# Blender 4.4.3
# www.blender.org
mtllib 2.mtl
o Clothbin
v 18.199308 -10.486582 64.712021
v 18.199308 -10.036583 64.712021
v 21.691164 -10.486582 64.712021
v 21.691164 -10.036583 64.712021
v 21.691164 -10.486582 59.823425
v 21.691164 -10.036581 59.823425
v 18.199308 -10.486582 59.823425
v 18.199308 -10.036581 59.823425
v 18.416502 -10.486582 64.494827
v 21.473970 -10.486582 64.494827
v 21.473970 -10.486582 60.040619
v 18.416502 -10.486582 60.040619
v 18.818462 -15.767997 63.909241
v 21.072010 -15.767997 63.909241
v 21.072010 -15.767996 60.626205
v 18.818462 -15.767996 60.626205
v 18.695152 -10.036582 64.216179
v 21.195320 -10.036582 64.216179
v 21.195320 -10.036582 60.319267
v 18.695152 -10.036582 60.319267
v 18.951420 -15.922582 63.816746
v 20.939053 -15.922582 63.816746
v 20.939053 -15.922582 60.718700
v 18.951420 -15.922582 60.718700
v 18.734148 -14.660183 63.829132
v 18.758366 -14.978381 63.582218
v 18.709930 -14.341986 63.582218
v 18.734148 -14.660183 63.335308
v 18.662470 -13.718381 63.582218
v 18.686199 -14.030183 63.200596
v 18.710417 -14.348381 62.953686
v 18.661982 -13.711986 62.953686
v 18.686199 -14.030183 62.706772
v 18.590303 -12.770184 63.200596
v 18.614521 -13.088381 62.953686
v 18.590303 -12.770184 62.706776
v 18.494406 -11.510183 63.200596
v 18.470188 -11.191985 62.953686
v 18.734148 -14.660183 62.572063
v 18.758366 -14.978381 62.325150
v 18.709930 -14.341985 62.325150
v 18.734148 -14.660183 62.078239
v 18.662470 -13.718381 62.325150
v 18.614035 -13.081985 62.325150
v 18.638252 -13.400183 62.078239
v 18.686199 -14.030183 61.943527
v 18.686199 -14.030183 61.449707
v 18.494406 -11.510183 61.943527
v 18.518623 -11.828381 61.696617
v 18.494406 -11.510183 61.449707
v 18.734148 -14.660183 61.314995
v 18.758366 -14.978381 61.068085
v 18.709930 -14.341985 61.068085
v 18.734148 -14.660183 60.821171
v 18.638252 -13.400183 61.314995
v 18.662470 -13.718381 61.068085
v 18.614035 -13.081985 61.068085
v 18.638252 -13.400183 60.821171
v 19.417694 -14.341986 64.067352
v 19.664606 -14.660183 64.032074
v 19.170782 -13.400184 64.171776
v 19.664606 -13.400184 64.171776
v 19.170782 -12.140183 64.311485
v 19.417694 -12.458382 64.276199
v 19.417694 -11.821985 64.346764
v 20.046228 -14.348381 64.066643
v 20.046228 -13.711986 64.137207
v 20.046228 -13.088382 64.206352
v 20.046228 -12.451985 64.276909
v 20.046228 -11.191985 64.416618
v 20.427851 -14.660183 64.032074
v 20.674763 -14.978381 63.996792
v 20.674763 -13.718382 64.136497
v 20.921673 -13.400184 64.171776
v 20.427851 -12.140183 64.311485
v 20.674763 -11.821985 64.346764
v 20.921673 -12.140183 64.311485
v 21.156324 -14.660183 63.829132
v 21.180542 -14.341986 63.582218
v 21.156324 -14.660183 63.335308
v 21.252220 -13.400184 63.829132
v 21.228003 -13.718381 63.582218
v 21.252220 -13.400184 63.335308
v 21.323900 -12.458382 63.582218
v 21.372335 -11.821985 63.582218
v 21.204273 -14.030183 63.200596
v 21.180056 -14.348381 62.953686
v 21.204273 -14.030183 62.706772
v 21.275951 -13.088381 62.953686
v 21.300169 -12.770184 62.706776
v 21.396067 -11.510183 62.706776
v 21.372335 -11.821985 62.325150
v 21.180056 -14.348381 61.696617
v 21.228491 -13.711985 61.696617
v 21.204273 -14.030183 61.449707
v 21.324387 -12.451985 61.696617
v 21.396067 -11.510183 61.449707
v 21.132107 -14.978381 61.068085
v 21.228003 -13.718381 61.068085
v 21.372335 -11.821985 61.068085
v 19.170782 -14.660183 60.503372
v 19.664606 -14.660183 60.503372
v 19.417694 -13.718381 60.398949
v 19.417694 -13.081985 60.328388
v 19.664606 -13.400183 60.363670
v 19.417694 -11.821985 60.188683
v 19.664606 -12.140182 60.223965
v 19.799316 -14.030183 60.433521
v 20.046228 -14.348381 60.468803
v 20.293140 -14.030183 60.433521
v 19.799316 -12.770183 60.293816
v 20.046228 -13.088381 60.329098
v 20.293140 -12.770183 60.293816
v 20.046228 -11.828381 60.189392
v 20.046228 -11.191985 60.118832
v 20.427851 -13.400183 60.363670
v 20.674763 -13.718381 60.398949
v 20.674763 -13.081985 60.328388
v 20.921673 -13.400183 60.363670
v 20.674763 -12.458381 60.259243
v 20.674763 -11.821985 60.188683
v 18.896456 -14.660183 63.829132
v 18.910311 -14.978381 63.582218
v 18.882603 -14.341986 63.582218
v 18.896456 -14.660183 63.335308
v 18.786739 -12.140183 63.829132
v 18.772886 -11.821985 63.582218
v 18.786739 -12.140183 63.335308
v 18.828022 -13.088381 62.953686
v 18.745457 -11.191985 62.953686
v 18.896456 -14.660183 62.572063
v 18.841599 -13.400183 62.572063
v 18.855452 -13.718381 62.325150
v 18.827744 -13.081985 62.325150
v 18.786739 -12.140183 62.572063
v 18.800592 -12.458381 62.325150
v 18.869026 -14.030183 61.943527
v 18.882881 -14.348381 61.696617
v 18.855173 -13.711985 61.696617
v 18.869026 -14.030183 61.449707
v 18.800314 -12.451985 61.696617
v 18.745457 -11.191985 61.696617
v 18.882603 -14.341985 61.068085
v 18.855452 -13.718381 61.068085
v 18.800592 -12.458381 61.068085
v 19.417694 -14.341985 60.611439
v 19.664606 -14.660183 60.633034
v 19.417694 -13.718381 60.569118
v 19.417694 -13.081985 60.525932
v 20.046228 -14.348381 60.611874
v 20.293140 -14.030183 60.590279
v 19.799316 -12.770183 60.504776
v 20.293140 -12.770183 60.504776
v 20.046228 -11.828381 60.440861
v 20.046228 -11.191985 60.397675
v 20.293140 -11.510183 60.419270
v 20.427851 -14.660183 60.633034
v 20.674763 -13.718381 60.569118
v 20.674763 -13.081985 60.525932
v 20.921673 -13.400183 60.547527
v 20.427851 -12.140182 60.462021
v 20.674763 -12.458381 60.483616
v 20.674763 -11.821985 60.440430
v 20.994017 -14.660183 63.829132
v 20.980162 -14.978381 63.582218
v 20.994017 -14.660183 63.335308
v 21.048874 -13.400184 63.829132
v 21.035021 -13.718381 63.582218
v 21.048874 -13.400184 63.335308
v 21.103733 -12.140183 63.829132
v 21.089880 -12.458382 63.582218
v 21.117308 -11.828382 62.953686
v 21.145016 -11.191985 62.953686
v 20.980162 -14.978381 62.325150
v 21.007870 -14.341985 62.325150
v 20.994017 -14.660183 62.078239
v 21.048874 -13.400183 62.572063
v 21.035021 -13.718381 62.325150
v 21.062729 -13.081985 62.325150
v 21.048874 -13.400183 62.078239
v 21.089880 -12.458381 62.325150
v 21.117586 -11.821985 62.325150
v 21.007591 -14.348381 61.696617
v 21.035299 -13.711985 61.696617
v 21.062450 -13.088381 61.696617
v 21.090158 -12.451985 61.696617
v 21.076303 -12.770183 61.449707
v 21.131163 -11.510183 61.943527
v 21.117308 -11.828381 61.696617
v 21.131163 -11.510183 61.449707
v 20.994017 -14.660183 61.314995
v 20.980162 -14.978381 61.068085
v 21.007870 -14.341985 61.068085
v 20.994017 -14.660183 60.821171
v 21.035021 -13.718381 61.068085
v 21.062729 -13.081985 61.068085
v 21.048874 -13.400183 60.821171
v 21.103733 -12.140182 61.314995
v 21.089880 -12.458381 61.068085
v 21.117586 -11.821985 61.068085
v 21.103733 -12.140182 60.821171
v 19.170782 -14.660183 63.902412
v 19.417694 -14.978381 63.880821
v 19.170782 -13.400184 63.987919
v 19.170782 -12.140183 64.073425
v 19.417694 -12.458382 64.051834
v 19.417694 -11.821985 64.095016
v 20.046228 -14.348381 63.923573
v 20.046228 -13.711986 63.966759
v 19.799316 -11.510183 64.116180
v 20.046228 -11.191985 64.137772
v 20.293140 -11.510183 64.116180
v 20.674763 -14.341986 63.924007
v 20.674763 -13.718382 63.966324
v 19.170782 -14.660183 64.032074
v 19.417694 -14.978381 63.996792
v 19.417694 -14.978381 60.538654
v 19.417694 -14.341985 60.468094
v 19.170782 -14.660183 60.633034
v 19.417694 -14.978381 60.654625
v 19.417694 -14.341986 63.924007
v 19.664606 -14.660183 63.902412
v 19.417694 -13.718382 64.136497
v 19.417694 -13.081985 64.207062
v 19.170782 -13.400183 60.363670
v 19.170782 -13.400183 60.547527
v 19.664606 -13.400183 60.547527
v 19.417694 -13.718382 63.966324
v 19.417694 -13.081985 64.009514
v 19.664606 -13.400184 63.987919
v 19.664606 -12.140183 64.311485
v 19.417694 -12.458381 60.259243
v 19.170782 -12.140182 60.223965
v 19.170782 -12.140182 60.462021
v 19.417694 -12.458381 60.483616
v 19.417694 -11.821985 60.440430
v 19.664606 -12.140182 60.462021
v 19.664606 -12.140183 64.073425
v 19.799316 -14.030184 64.101921
v 20.293140 -14.030184 64.101921
v 20.046228 -13.711985 60.398239
v 19.799316 -14.030183 60.590279
v 20.046228 -13.711985 60.568687
v 19.799316 -14.030184 63.945168
v 20.293140 -14.030184 63.945168
v 19.799316 -12.770184 64.241631
v 20.293140 -12.770184 64.241631
v 20.046228 -12.451984 60.258537
v 20.046228 -13.088381 60.526367
v 20.046228 -12.451984 60.483181
v 19.799316 -12.770184 64.030670
v 20.046228 -13.088382 64.009079
v 20.046228 -12.451985 64.052269
v 20.293140 -12.770184 64.030670
v 19.799316 -11.510183 64.381332
v 20.046228 -11.828382 64.346054
v 20.293140 -11.510183 64.381332
v 19.799316 -11.510183 60.154110
v 20.293140 -11.510183 60.154110
v 19.799316 -11.510183 60.419270
v 20.046228 -11.828382 64.094582
v 20.674763 -14.341986 64.067352
v 20.921673 -14.660183 64.032074
v 20.427851 -14.660183 60.503372
v 20.674763 -14.978381 60.538654
v 20.674763 -14.341985 60.468094
v 20.921673 -14.660183 60.503372
v 20.674763 -14.978381 60.654625
v 20.674763 -14.341985 60.611439
v 20.921673 -14.660183 60.633034
v 20.674763 -14.978381 63.880821
v 20.427851 -14.660183 63.902412
v 20.921673 -14.660183 63.902412
v 20.427851 -13.400184 64.171776
v 20.674763 -13.081985 64.207062
v 20.427851 -13.400183 60.547527
v 20.427851 -13.400184 63.987919
v 20.674763 -13.081985 64.009514
v 20.921673 -13.400184 63.987919
v 20.674763 -12.458382 64.276199
v 20.427851 -12.140182 60.223965
v 20.921673 -12.140182 60.223965
v 20.921673 -12.140182 60.462021
v 20.427851 -12.140183 64.073425
v 20.674763 -12.458382 64.051834
v 20.674763 -11.821985 64.095016
v 20.921673 -12.140183 64.073425
v 21.132107 -14.978381 63.582218
v 21.007870 -14.341986 63.582218
v 18.638252 -13.400184 63.829132
v 18.614035 -13.081985 63.582218
v 18.638252 -13.400184 63.335308
v 21.276438 -13.081985 63.582218
v 18.841599 -13.400184 63.829132
v 18.855452 -13.718381 63.582218
v 18.827744 -13.081985 63.582218
v 18.841599 -13.400184 63.335308
v 21.062729 -13.081985 63.582218
v 18.542355 -12.140183 63.829132
v 18.566572 -12.458382 63.582218
v 18.518137 -11.821985 63.582218
v 18.542355 -12.140183 63.335308
v 21.348118 -12.140183 63.829132
v 21.348118 -12.140183 63.335308
v 18.800592 -12.458382 63.582218
v 21.117586 -11.821985 63.582218
v 21.103733 -12.140183 63.335308
v 21.228491 -13.711986 62.953686
v 18.869026 -14.030183 63.200596
v 18.882881 -14.348381 62.953686
v 18.855173 -13.711986 62.953686
v 18.869026 -14.030183 62.706772
v 21.021446 -14.030183 63.200596
v 21.007591 -14.348381 62.953686
v 21.035299 -13.711986 62.953686
v 21.021446 -14.030183 62.706772
v 18.566086 -12.451985 62.953686
v 21.300169 -12.770184 63.200596
v 21.324387 -12.451985 62.953686
v 18.814169 -12.770184 63.200596
v 18.800314 -12.451985 62.953686
v 18.814169 -12.770184 62.706776
v 21.076303 -12.770184 63.200596
v 21.062450 -13.088381 62.953686
v 21.090158 -12.451985 62.953686
v 21.076303 -12.770184 62.706776
v 18.518623 -11.828382 62.953686
v 18.494406 -11.510183 62.706776
v 21.396067 -11.510183 63.200596
v 21.371849 -11.828382 62.953686
v 21.420284 -11.191985 62.953686
v 18.759310 -11.510183 63.200596
v 18.773165 -11.828382 62.953686
v 18.759310 -11.510183 62.706776
v 21.131163 -11.510183 63.200596
v 21.131163 -11.510183 62.706776
v 21.156324 -14.660183 62.572063
v 21.132107 -14.978381 62.325150
v 21.180542 -14.341985 62.325150
v 21.156324 -14.660183 62.078239
v 18.910311 -14.978381 62.325150
v 18.882603 -14.341985 62.325150
v 18.896456 -14.660183 62.078239
v 20.994017 -14.660183 62.572063
v 18.638252 -13.400183 62.572063
v 21.252220 -13.400183 62.572063
v 21.228003 -13.718381 62.325150
v 21.276438 -13.081985 62.325150
v 21.252220 -13.400183 62.078239
v 18.841599 -13.400183 62.078239
v 18.542355 -12.140183 62.572063
v 18.566572 -12.458381 62.325150
v 18.518137 -11.821985 62.325150
v 18.542355 -12.140183 62.078239
v 21.348118 -12.140183 62.572063
v 21.323900 -12.458381 62.325150
v 21.348118 -12.140183 62.078239
v 18.772886 -11.821985 62.325150
v 18.786739 -12.140183 62.078239
v 21.103733 -12.140183 62.572063
v 21.103733 -12.140183 62.078239
v 18.710417 -14.348381 61.696617
v 18.661982 -13.711985 61.696617
v 21.204273 -14.030183 61.943527
v 21.021446 -14.030183 61.943527
v 21.021446 -14.030183 61.449707
v 18.590303 -12.770183 61.943527
v 18.614521 -13.088381 61.696617
v 18.566086 -12.451985 61.696617
v 18.590303 -12.770183 61.449707
v 21.300169 -12.770183 61.943527
v 21.275951 -13.088381 61.696617
v 21.300169 -12.770183 61.449707
v 18.814169 -12.770183 61.943527
v 18.828022 -13.088381 61.696617
v 18.814169 -12.770183 61.449707
v 21.076303 -12.770183 61.943527
v 18.470188 -11.191985 61.696617
v 21.396067 -11.510183 61.943527
v 21.371849 -11.828381 61.696617
v 21.420284 -11.191985 61.696617
v 18.759310 -11.510183 61.943527
v 18.773165 -11.828381 61.696617
v 18.759310 -11.510183 61.449707
v 21.145016 -11.191985 61.696617
v 21.156324 -14.660183 61.314995
v 21.180542 -14.341985 61.068085
v 21.156324 -14.660183 60.821171
v 18.896456 -14.660183 61.314995
v 18.910311 -14.978381 61.068085
v 18.896456 -14.660183 60.821171
v 21.252220 -13.400183 61.314995
v 21.276438 -13.081985 61.068085
v 21.252220 -13.400183 60.821171
v 18.841599 -13.400183 61.314995
v 18.827744 -13.081985 61.068085
v 18.841599 -13.400183 60.821171
v 21.048874 -13.400183 61.314995
v 18.542355 -12.140182 61.314995
v 18.566572 -12.458381 61.068085
v 18.518137 -11.821985 61.068085
v 18.542355 -12.140182 60.821171
v 21.348118 -12.140182 61.314995
v 21.323900 -12.458381 61.068085
v 21.348118 -12.140182 60.821171
v 18.786739 -12.140182 61.314995
v 18.772886 -11.821985 61.068085
v 18.786739 -12.140182 60.821171
vn -0.0000 -0.0000 1.0000
vn 1.0000 -0.0000 -0.0000
vn -0.0000 -0.0000 -1.0000
vn -1.0000 -0.0000 -0.0000
vn -0.0000 1.0000 -0.0000
vn -0.0000 -1.0000 -0.0000
vn -0.9971 -0.0759 -0.0000
vn -0.0000 -0.1102 0.9939
vn 0.9971 -0.0759 -0.0000
vn -0.9979 0.0156 0.0623
vn -0.9979 0.0156 0.0624
vn 0.9314 0.2183 -0.2911
vn 0.9315 0.2182 -0.2911
vn 0.0162 0.7050 -0.7090
vn 0.0161 0.7050 -0.7090
vn 0.0161 0.7050 -0.7091
vn -0.3926 0.6625 -0.6380
vn -0.3926 0.6625 -0.6379
vn -0.0000 -0.1102 -0.9939
vn 0.9991 0.0435 -0.0000
vn -0.0000 0.0677 0.9977
vn -0.9991 0.0435 -0.0000
vn -0.0000 0.0677 -0.9977
vn 0.7900 0.6130 -0.0000
vn -0.7900 -0.6130 -0.0000
vn 0.7900 -0.6130 -0.0000
vn -0.7900 0.6130 -0.0000
vn -0.0000 0.6130 -0.7900
vn -0.0000 -0.6130 0.7900
vn -0.0000 -0.6130 -0.7900
vn -0.0000 0.6130 0.7900
vt 1.000000 0.000000
vt 1.000000 1.000000
vt 0.000000 1.000000
vt 0.000000 0.000000
vt 0.858000 0.101429
vt 0.858000 0.898571
vt 0.142000 0.898571
vt 0.142000 0.101429
vt 0.937800 0.044429
vt 0.937800 0.955571
vt 0.062200 0.955571
vt 0.062200 0.044429
vt 0.062200 0.183921
vt 0.062200 0.126487
vt 0.062200 0.370505
vt 0.062200 0.287629
vt 0.062200 0.227893
vt 0.062200 0.311204
vt 0.062200 0.374813
vt 0.062200 0.425177
vt 0.062200 0.513026
vt 0.062200 0.457763
vt 0.062200 0.360828
vt 0.062200 0.419478
vt 0.062200 0.514000
vt 0.062200 0.454664
vt 0.062200 0.655538
vt 0.062200 0.715304
vt 0.062200 0.798160
vt 0.062200 0.667161
vt 0.062200 0.731703
vt 0.062200 0.820449
vt 0.062200 0.755435
vt 0.062200 0.430123
vt 0.062200 0.512584
vt 0.062200 0.365792
vt 0.062200 0.272046
vt 0.062200 0.207551
vt 0.062200 0.296824
vt 0.062200 0.253997
vt 0.062200 0.355369
vt 0.062200 0.701073
vt 0.062200 0.650363
vt 0.062200 0.737974
vt 0.062200 0.515131
vt 0.062200 0.846341
vt 0.062200 0.775660
vt 0.062200 0.808790
vt 0.062200 0.661199
vt 0.062200 0.572818
vt 0.062200 0.832761
vt 0.062200 0.673718
vt 0.062200 0.578583
vt 0.062200 0.514538
vt 0.062200 0.903170
vt 0.062200 0.451074
vt 0.062200 0.609050
vt 0.062200 0.601332
vt 0.062200 0.513491
vt 0.062200 0.218191
vt 0.062200 0.237128
vt 0.062200 0.323683
vt 0.062200 0.873589
vt 0.062200 0.788040
vt 0.062200 0.594634
vt 0.062200 0.196314
vt 0.062200 0.153893
vt 0.062200 0.177551
vt 0.062200 0.567840
vt 0.062200 0.378924
vt 0.062200 0.848051
vt 0.062200 0.645426
vt 0.604983 0.955571
vt 0.530992 0.955571
vt 0.650610 0.955571
vt 0.412423 0.955571
vt 0.455968 0.955571
vt 0.338163 0.955571
vt 0.534455 0.955571
vt 0.405997 0.955571
vt 0.319953 0.955571
vt 0.449260 0.955571
vt 0.612413 0.955571
vt 0.533226 0.955571
vt 0.661661 0.955571
vt 0.452851 0.955571
vt 0.326504 0.955571
vt 0.305406 0.955571
vt 0.220040 0.955571
vt 0.240582 0.955571
vt 0.313036 0.955571
vt 0.532059 0.955571
vt 0.535806 0.955571
vt 0.398554 0.955571
vt 0.674462 0.955571
vt 0.748982 0.955571
vt 0.731664 0.955571
vt 0.258315 0.955571
vt 0.620975 0.955571
vt 0.758548 0.955571
vt 0.723801 0.955571
vt 0.332477 0.955571
vt 0.739923 0.955571
vt 0.529975 0.955571
vt 0.852975 0.955571
vt 0.827077 0.955571
vt 0.769100 0.955571
vt 0.804719 0.955571
vt 0.937800 0.370505
vt 0.937800 0.311204
vt 0.937800 0.227893
vt 0.937800 0.296824
vt 0.937800 0.355369
vt 0.937800 0.253997
vt 0.937800 0.374813
vt 0.937800 0.287629
vt 0.937800 0.237128
vt 0.937800 0.365792
vt 0.937800 0.272046
vt 0.937800 0.218191
vt 0.937800 0.846341
vt 0.937800 0.903170
vt 0.937800 0.515131
vt 0.937800 0.183921
vt 0.937800 0.451074
vt 0.937800 0.360828
vt 0.937800 0.567840
vt 0.937800 0.650363
vt 0.937800 0.673718
vt 0.937800 0.731703
vt 0.937800 0.820449
vt 0.937800 0.514000
vt 0.937800 0.572818
vt 0.937800 0.661199
vt 0.937800 0.578583
vt 0.937800 0.715304
vt 0.937800 0.798160
vt 0.937800 0.126487
vt 0.937800 0.207551
vt 0.937800 0.454664
vt 0.937800 0.419478
vt 0.937800 0.601332
vt 0.937800 0.513491
vt 0.937800 0.737974
vt 0.937800 0.655538
vt 0.937800 0.755435
vt 0.937800 0.667161
vt 0.937800 0.609050
vt 0.937800 0.514538
vt 0.937800 0.457763
vt 0.937800 0.513026
vt 0.937800 0.425177
vt 0.937800 0.512584
vt 0.937800 0.594634
vt 0.937800 0.430123
vt 0.937800 0.177551
vt 0.937800 0.153893
vt 0.937800 0.196314
vt 0.937800 0.323683
vt 0.937800 0.808790
vt 0.937800 0.378924
vt 0.937800 0.788040
vt 0.937800 0.645426
vt 0.937800 0.701073
vt 0.937800 0.848051
vt 0.937800 0.873589
vt 0.937800 0.832761
vt 0.937800 0.775660
vt 0.612413 0.044429
vt 0.661661 0.044429
vt 0.533226 0.044429
vt 0.530992 0.044429
vt 0.412423 0.044429
vt 0.338163 0.044429
vt 0.455968 0.044429
vt 0.405997 0.044429
vt 0.449260 0.044429
vt 0.319953 0.044429
vt 0.604983 0.044429
vt 0.650610 0.044429
vt 0.326504 0.044429
vt 0.452851 0.044429
vt 0.258315 0.044429
vt 0.220040 0.044429
vt 0.305406 0.044429
vt 0.240582 0.044429
vt 0.332477 0.044429
vt 0.313036 0.044429
vt 0.535806 0.044429
vt 0.674462 0.044429
vt 0.769100 0.044429
vt 0.532059 0.044429
vt 0.529975 0.044429
vt 0.758548 0.044429
vt 0.620975 0.044429
vt 0.534455 0.044429
vt 0.731664 0.044429
vt 0.739923 0.044429
vt 0.748982 0.044429
vt 0.398554 0.044429
vt 0.723801 0.044429
vt 0.804719 0.044429
vt 0.852975 0.044429
vt 0.827077 0.044429
vt 0.142000 0.633974
vt 0.142000 0.694366
vt 0.142000 0.781492
vt 0.142000 0.720748
vt 0.142000 0.346793
vt 0.142000 0.264353
vt 0.142000 0.206340
vt 0.142000 0.289094
vt 0.142000 0.487474
vt 0.142000 0.350342
vt 0.142000 0.432823
vt 0.142000 0.627555
vt 0.142000 0.684939
vt 0.142000 0.768001
vt 0.142000 0.637468
vt 0.142000 0.732295
vt 0.142000 0.486859
vt 0.142000 0.400738
vt 0.142000 0.342993
vt 0.142000 0.429484
vt 0.142000 0.543904
vt 0.142000 0.630718
vt 0.142000 0.573295
vt 0.142000 0.175208
vt 0.142000 0.119297
vt 0.142000 0.485810
vt 0.142000 0.796413
vt 0.142000 0.546200
vt 0.142000 0.339082
vt 0.142000 0.486525
vt 0.142000 0.577031
vt 0.142000 0.710295
vt 0.142000 0.624600
vt 0.142000 0.183677
vt 0.142000 0.334885
vt 0.142000 0.278343
vt 0.142000 0.191558
vt 0.142000 0.852699
vt 0.142000 0.676384
vt 0.142000 0.761667
vt 0.142000 0.252639
vt 0.142000 0.569904
vt 0.142000 0.405330
vt 0.142000 0.541825
vt 0.142000 0.487171
vt 0.142000 0.395679
vt 0.142000 0.425796
vt 0.142000 0.486180
vt 0.142000 0.788684
vt 0.142000 0.213281
vt 0.142000 0.621722
vt 0.142000 0.819296
vt 0.142000 0.774512
vt 0.142000 0.835168
vt 0.142000 0.353798
vt 0.142000 0.298850
vt 0.142000 0.155352
vt 0.142000 0.199206
vt 0.142000 0.138220
vt 0.142000 0.239701
vt 0.615730 0.898571
vt 0.534033 0.898571
vt 0.664740 0.898571
vt 0.745776 0.898571
vt 0.326700 0.898571
vt 0.451460 0.898571
vt 0.533168 0.898571
vt 0.413279 0.898571
vt 0.530847 0.898571
vt 0.455951 0.898571
vt 0.338905 0.898571
vt 0.728167 0.898571
vt 0.649138 0.898571
vt 0.531579 0.898571
vt 0.610117 0.898571
vt 0.532362 0.898571
vt 0.656551 0.898571
vt 0.733711 0.898571
vt 0.453814 0.898571
vt 0.330997 0.898571
vt 0.408969 0.898571
vt 0.317513 0.898571
vt 0.235641 0.898571
vt 0.335005 0.898571
vt 0.260677 0.898571
vt 0.248781 0.898571
vt 0.404207 0.898571
vt 0.752356 0.898571
vt 0.322272 0.898571
vt 0.722775 0.898571
vt 0.739653 0.898571
vt 0.801740 0.898571
vt 0.816738 0.898571
vt 0.833306 0.898571
vt 0.605023 0.898571
vt 0.530135 0.898571
vt 0.858000 0.788684
vt 0.858000 0.732295
vt 0.858000 0.637468
vt 0.858000 0.768001
vt 0.858000 0.684939
vt 0.858000 0.627555
vt 0.858000 0.633974
vt 0.858000 0.577031
vt 0.858000 0.486525
vt 0.858000 0.543904
vt 0.858000 0.781492
vt 0.858000 0.694366
vt 0.858000 0.541825
vt 0.858000 0.573295
vt 0.858000 0.487171
vt 0.858000 0.486180
vt 0.858000 0.425796
vt 0.858000 0.334885
vt 0.858000 0.395679
vt 0.858000 0.487474
vt 0.858000 0.432823
vt 0.858000 0.350342
vt 0.858000 0.405330
vt 0.858000 0.710295
vt 0.858000 0.624600
vt 0.858000 0.676384
vt 0.858000 0.486859
vt 0.858000 0.429484
vt 0.858000 0.342993
vt 0.858000 0.400738
vt 0.858000 0.774512
vt 0.858000 0.720748
vt 0.858000 0.630718
vt 0.858000 0.796413
vt 0.858000 0.852699
vt 0.858000 0.485810
vt 0.858000 0.175208
vt 0.858000 0.239701
vt 0.858000 0.213281
vt 0.858000 0.183677
vt 0.858000 0.339082
vt 0.858000 0.346793
vt 0.858000 0.191558
vt 0.858000 0.278343
vt 0.858000 0.546200
vt 0.858000 0.119297
vt 0.858000 0.252639
vt 0.858000 0.761667
vt 0.858000 0.289094
vt 0.858000 0.206340
vt 0.858000 0.264353
vt 0.858000 0.835168
vt 0.858000 0.621722
vt 0.858000 0.199206
vt 0.858000 0.819296
vt 0.858000 0.569904
vt 0.858000 0.138220
vt 0.858000 0.155352
vt 0.858000 0.298850
vt 0.858000 0.353798
vt 0.413279 0.101429
vt 0.338905 0.101429
vt 0.455951 0.101429
vt 0.533168 0.101429
vt 0.451460 0.101429
vt 0.326700 0.101429
vt 0.656551 0.101429
vt 0.739653 0.101429
vt 0.260677 0.101429
vt 0.248781 0.101429
vt 0.335005 0.101429
vt 0.453814 0.101429
vt 0.330997 0.101429
vt 0.322272 0.101429
vt 0.534033 0.101429
vt 0.664740 0.101429
vt 0.752356 0.101429
vt 0.530135 0.101429
vt 0.408969 0.101429
vt 0.532362 0.101429
vt 0.610117 0.101429
vt 0.531579 0.101429
vt 0.649138 0.101429
vt 0.728167 0.101429
vt 0.745776 0.101429
vt 0.615730 0.101429
vt 0.235641 0.101429
vt 0.733711 0.101429
vt 0.530847 0.101429
vt 0.605023 0.101429
vt 0.317513 0.101429
vt 0.816738 0.101429
vt 0.833306 0.101429
vt 0.404207 0.101429
vt 0.801740 0.101429
vt 0.722775 0.101429
vt 0.192199 0.000000
vt 0.169426 0.000000
vt 0.162498 1.000000
vt 0.187959 1.000000
vt 0.829956 1.000000
vt 0.855417 1.000000
vt 0.848489 0.000000
vt 0.825716 0.000000
vt 0.816281 1.000000
vt 0.844430 1.000000
vt 0.837502 0.000000
vt 0.812041 0.000000
vt 0.170044 0.000000
vt 0.144583 0.000000
vt 0.137655 1.000000
vt 0.165803 1.000000
vt 0.834197 1.000000
vt 0.862345 1.000000
vt 0.855417 0.000000
vt 0.829956 0.000000
vt 0.187959 0.000000
vt 0.162498 0.000000
vt 0.155570 1.000000
vt 0.183719 1.000000
vt 0.169426 1.000000
vt 0.192199 1.000000
vt 0.825716 1.000000
vt 0.848489 1.000000
vt 0.175409 0.000000
vt 0.141993 0.000000
vt 0.135065 1.000000
vt 0.171168 1.000000
vt 0.846747 1.000000
vt 0.882850 1.000000
vt 0.875923 0.000000
vt 0.842507 0.000000
vt 0.833072 1.000000
vt 0.871863 1.000000
vt 0.864935 0.000000
vt 0.828832 0.000000
vt 0.153253 0.000000
vt 0.117150 0.000000
vt 0.110222 1.000000
vt 0.149013 1.000000
vt 0.889778 1.000000
vt 0.882850 0.000000
vt 0.846747 0.000000
vt 0.850987 1.000000
vt 0.171168 0.000000
vt 0.135065 0.000000
vt 0.128137 1.000000
vt 0.166928 1.000000
vt 0.141993 1.000000
vt 0.175409 1.000000
vt 0.875923 1.000000
vt 0.842507 1.000000
vt 0.158618 0.000000
vt 0.114559 0.000000
vt 0.107631 1.000000
vt 0.154378 1.000000
vt 0.863537 1.000000
vt 0.910284 1.000000
vt 0.903356 0.000000
vt 0.859297 0.000000
vt 0.849862 1.000000
vt 0.899297 1.000000
vt 0.892369 0.000000
vt 0.845622 0.000000
vt 0.136463 0.000000
vt 0.089716 0.000000
vt 0.082788 1.000000
vt 0.132222 1.000000
vt 0.867778 1.000000
vt 0.917212 1.000000
vt 0.910284 0.000000
vt 0.863537 0.000000
vt 0.107631 0.000000
vt 0.100703 1.000000
vt 0.150138 1.000000
vt 0.154378 0.000000
vt 0.114559 1.000000
vt 0.158618 1.000000
vt 0.903356 1.000000
vt 0.859297 1.000000
vt 0.183804 0.000000
vt 0.155709 0.000000
vt 0.148781 1.000000
vt 0.179564 1.000000
vt 0.838352 1.000000
vt 0.869134 1.000000
vt 0.862206 0.000000
vt 0.834111 0.000000
vt 0.858146 1.000000
vt 0.851219 0.000000
vt 0.820436 0.000000
vt 0.824677 1.000000
vt 0.161648 0.000000
vt 0.130866 0.000000
vt 0.123938 1.000000
vt 0.157408 1.000000
vt 0.876062 1.000000
vt 0.869134 0.000000
vt 0.838352 0.000000
vt 0.842592 1.000000
vt 0.179564 0.000000
vt 0.148781 0.000000
vt 0.141853 1.000000
vt 0.175323 1.000000
vt 0.155709 1.000000
vt 0.183804 1.000000
vt 0.834111 1.000000
vt 0.862206 1.000000
vt 0.167013 0.000000
vt 0.128276 0.000000
vt 0.121348 1.000000
vt 0.162773 1.000000
vt 0.855142 1.000000
vt 0.896567 1.000000
vt 0.889639 0.000000
vt 0.850902 0.000000
vt 0.841467 1.000000
vt 0.885580 1.000000
vt 0.878652 0.000000
vt 0.837227 0.000000
vt 0.103433 0.000000
vt 0.096505 1.000000
vt 0.140618 1.000000
vt 0.144858 0.000000
vt 0.859382 1.000000
vt 0.903495 1.000000
vt 0.896567 0.000000
vt 0.855142 0.000000
vt 0.121348 0.000000
vt 0.114420 1.000000
vt 0.158533 1.000000
vt 0.162773 0.000000
vt 0.128276 1.000000
vt 0.167013 1.000000
vt 0.850902 1.000000
vt 0.889639 1.000000
vt 0.150223 0.000000
vt 0.100843 0.000000
vt 0.093915 1.000000
vt 0.145983 1.000000
vt 0.871933 1.000000
vt 0.924001 1.000000
vt 0.917073 0.000000
vt 0.867692 0.000000
vt 0.858258 1.000000
vt 0.913013 1.000000
vt 0.906085 0.000000
vt 0.854017 0.000000
vt 0.128067 0.000000
vt 0.075999 0.000000
vt 0.069071 1.000000
vt 0.123827 1.000000
vt 0.876173 1.000000
vt 0.930929 1.000000
vt 0.924001 0.000000
vt 0.871933 0.000000
vt 0.145983 0.000000
vt 0.093915 0.000000
vt 0.086987 1.000000
vt 0.141742 1.000000
vt 0.100843 1.000000
vt 0.150223 1.000000
vt 0.867692 1.000000
vt 0.917073 1.000000
vt 0.372887 0.000000
vt 0.343050 0.000000
vt 0.338295 1.000000
vt 0.370167 1.000000
vt 0.782058 1.000000
vt 0.813930 1.000000
vt 0.809174 0.000000
vt 0.779337 0.000000
vt 0.632554 1.000000
vt 0.666461 1.000000
vt 0.661705 0.000000
vt 0.629833 0.000000
vt 0.217942 0.000000
vt 0.186070 0.000000
vt 0.181315 1.000000
vt 0.215222 1.000000
vt 0.784778 1.000000
vt 0.818685 1.000000
vt 0.813930 0.000000
vt 0.782058 0.000000
vt 0.370167 0.000000
vt 0.338295 0.000000
vt 0.333539 1.000000
vt 0.367446 1.000000
vt 0.343050 1.000000
vt 0.372887 1.000000
vt 0.779337 1.000000
vt 0.809174 1.000000
vt 0.362115 0.000000
vt 0.324219 0.000000
vt 0.319464 1.000000
vt 0.359394 1.000000
vt 0.792830 1.000000
vt 0.832761 1.000000
vt 0.828005 0.000000
vt 0.790110 0.000000
vt 0.643326 1.000000
vt 0.685292 1.000000
vt 0.680536 0.000000
vt 0.640606 0.000000
vt 0.207170 0.000000
vt 0.167240 0.000000
vt 0.162484 1.000000
vt 0.204450 1.000000
vt 0.795550 1.000000
vt 0.837516 1.000000
vt 0.832761 0.000000
vt 0.792830 0.000000
vt 0.359394 0.000000
vt 0.319464 0.000000
vt 0.314708 1.000000
vt 0.356674 1.000000
vt 0.324219 1.000000
vt 0.362115 1.000000
vt 0.790110 1.000000
vt 0.828005 1.000000
vt 0.351342 0.000000
vt 0.305388 0.000000
vt 0.300633 1.000000
vt 0.348622 1.000000
vt 0.803602 1.000000
vt 0.851591 1.000000
vt 0.846836 0.000000
vt 0.800882 0.000000
vt 0.654099 1.000000
vt 0.704123 1.000000
vt 0.699367 0.000000
vt 0.651378 0.000000
vt 0.196398 0.000000
vt 0.148409 0.000000
vt 0.143653 1.000000
vt 0.193677 1.000000
vt 0.806323 1.000000
vt 0.856347 1.000000
vt 0.851591 0.000000
vt 0.803602 0.000000
vt 0.348622 0.000000
vt 0.300633 0.000000
vt 0.295877 1.000000
vt 0.345902 1.000000
vt 0.305388 1.000000
vt 0.351342 1.000000
vt 0.800882 1.000000
vt 0.846836 1.000000
vt 0.367501 0.000000
vt 0.333635 0.000000
vt 0.328879 1.000000
vt 0.364781 1.000000
vt 0.787444 1.000000
vt 0.823345 1.000000
vt 0.818590 0.000000
vt 0.784723 0.000000
vt 0.637940 1.000000
vt 0.675876 1.000000
vt 0.671121 0.000000
vt 0.635220 0.000000
vt 0.176655 0.000000
vt 0.171899 1.000000
vt 0.209836 1.000000
vt 0.212556 0.000000
vt 0.790164 1.000000
vt 0.828101 1.000000
vt 0.823345 0.000000
vt 0.787444 0.000000
vt 0.364781 0.000000
vt 0.328879 0.000000
vt 0.324124 1.000000
vt 0.362060 1.000000
vt 0.333635 1.000000
vt 0.367501 1.000000
vt 0.784723 1.000000
vt 0.818590 1.000000
vt 0.356729 0.000000
vt 0.314804 0.000000
vt 0.310048 1.000000
vt 0.354008 1.000000
vt 0.798216 1.000000
vt 0.842176 1.000000
vt 0.837420 0.000000
vt 0.795496 0.000000
vt 0.648712 1.000000
vt 0.694707 1.000000
vt 0.689952 0.000000
vt 0.645992 0.000000
vt 0.201784 0.000000
vt 0.157824 0.000000
vt 0.153069 1.000000
vt 0.199063 1.000000
vt 0.800937 1.000000
vt 0.846931 1.000000
vt 0.842176 0.000000
vt 0.798216 0.000000
vt 0.354008 0.000000
vt 0.310048 0.000000
vt 0.305293 1.000000
vt 0.351288 1.000000
vt 0.314804 1.000000
vt 0.356729 1.000000
vt 0.795496 1.000000
vt 0.837420 1.000000
vt 0.345956 0.000000
vt 0.295973 0.000000
vt 0.291218 1.000000
vt 0.343236 1.000000
vt 0.808989 1.000000
vt 0.861007 1.000000
vt 0.856251 0.000000
vt 0.806268 0.000000
vt 0.659485 1.000000
vt 0.713538 1.000000
vt 0.708782 0.000000
vt 0.656764 0.000000
vt 0.191011 0.000000
vt 0.138993 0.000000
vt 0.134238 1.000000
vt 0.188291 1.000000
vt 0.811709 1.000000
vt 0.865762 1.000000
vt 0.861007 0.000000
vt 0.808989 0.000000
vt 0.343236 0.000000
vt 0.291218 0.000000
vt 0.286462 1.000000
vt 0.340515 1.000000
vt 0.295973 1.000000
vt 0.345956 1.000000
vt 0.806268 1.000000
vt 0.856251 1.000000
s 1
usemtl white
f 3/1/1 4/2/1 2/3/1 1/4/1
f 5/1/2 6/2/2 4/3/2 3/4/2
f 7/1/3 8/2/3 6/3/3 5/4/3
f 1/1/4 2/2/4 8/3/4 7/4/4
f 22/5/5 23/6/5 24/7/5 21/8/5
f 15/9/6 14/10/6 13/11/6 16/12/6
f 9/11/6 1/3/6 7/4/6 12/12/6
f 10/10/6 3/2/6 1/3/6 9/11/6
f 11/9/6 5/1/6 3/2/6 10/10/6
f 12/12/6 7/4/6 5/1/6 11/9/6
f 16/12/7 52/13/7 54/14/7
f 369/15/7 399/16/7 400/17/7 370/18/7
f 49/19/7 367/20/7 352/21/7 354/22/7
f 363/23/7 46/24/7 43/25/7 45/26/7
f 317/27/7 34/28/7 300/29/7
f 32/30/7 30/31/7 29/32/7 292/33/7
f 48/34/7 49/19/7 354/22/7 353/35/7
f 368/36/7 55/37/7 56/38/7 47/39/7
f 56/38/7 51/40/7 362/41/7 47/39/7
f 55/37/7 368/36/7 370/18/7
f 37/42/7 327/43/7 302/44/7
f 40/45/7 26/46/7 28/47/7
f 291/48/7 35/49/7 345/50/7 43/25/7
f 27/51/7 31/52/7 39/53/7 40/45/7
f 47/39/7 352/21/7 367/20/7 368/36/7
f 41/54/7 51/40/7 52/13/7
f 26/46/7 16/12/7 13/11/7
f 16/12/7 26/46/7 40/45/7
f 25/55/7 26/46/7 13/11/7
f 16/12/7 40/45/7 42/56/7
f 41/54/7 39/53/7 31/52/7 33/57/7
f 36/58/7 44/59/7 345/50/7 35/49/7
f 327/43/7 317/27/7 300/29/7 302/44/7
f 40/45/7 28/47/7 27/51/7
f 12/12/7 16/12/7 54/14/7
f 42/56/7 41/54/7 52/13/7 16/12/7
f 400/17/7 57/60/7 55/37/7 370/18/7
f 12/12/7 401/61/7 49/19/7 50/62/7
f 290/63/7 25/55/7 13/11/7 9/11/7
f 327/43/7 44/59/7 36/58/7 317/27/7
f 43/25/7 46/24/7 292/33/7 291/48/7
f 9/11/7 37/42/7 302/44/7 301/64/7
f 327/43/7 328/65/7 48/34/7 353/35/7
f 327/43/7 363/23/7 45/26/7 44/59/7
f 362/41/7 33/57/7 32/30/7
f 33/57/7 362/41/7 51/40/7 41/54/7
f 53/66/7 51/40/7 56/38/7 58/67/7
f 57/60/7 400/17/7 402/68/7
f 29/32/7 30/31/7 31/52/7 27/51/7
f 369/15/7 367/20/7 49/19/7
f 327/43/7 351/69/7 352/21/7 47/39/7
f 290/63/7 29/32/7 27/51/7 25/55/7
f 401/61/7 399/16/7 369/15/7 49/19/7
f 327/43/7 47/39/7 363/23/7
f 12/12/7 54/14/7 53/66/7 58/67/7
f 402/68/7 12/12/7 58/67/7 57/60/7
f 46/24/7 362/41/7 32/30/7 292/33/7
f 12/12/7 50/62/7 378/70/7
f 12/12/7 402/68/7 401/61/7
f 299/71/7 290/63/7 9/11/7
f 353/35/7 351/69/7 327/43/7
f 300/29/7 34/28/7 35/49/7 291/48/7
f 38/72/7 378/70/7 48/34/7 328/65/7
f 290/63/7 299/71/7 300/29/7 291/48/7
f 38/72/7 9/11/7 12/12/7 378/70/7
f 301/64/7 299/71/7 9/11/7
f 38/72/7 37/42/7 9/11/7
f 257/73/8 256/74/8 75/75/8
f 231/76/8 255/77/8 65/78/8
f 67/79/8 62/80/8 223/81/8 239/82/8
f 247/83/8 68/84/8 274/85/8
f 246/86/8 224/87/8 62/80/8
f 216/88/8 215/89/8 13/11/8
f 223/81/8 61/90/8 215/89/8 59/91/8
f 61/90/8 9/11/8 13/11/8 215/89/8
f 231/76/8 246/86/8 69/92/8
f 59/91/8 66/93/8 239/82/8 223/81/8
f 59/91/8 60/94/8 71/95/8 66/93/8
f 67/79/8 73/96/8 274/85/8 68/84/8
f 69/92/8 280/97/8 75/75/8 256/74/8
f 9/11/8 61/90/8 63/98/8
f 67/79/8 68/84/8 246/86/8 62/80/8
f 240/99/8 66/93/8 71/95/8 262/100/8
f 10/10/8 257/73/8 75/75/8 76/101/8
f 216/88/8 13/11/8 14/10/8
f 69/92/8 256/74/8 255/77/8 231/76/8
f 64/102/8 63/98/8 61/90/8 224/87/8
f 9/11/8 63/98/8 65/78/8
f 60/94/8 216/88/8 14/10/8
f 280/97/8 247/83/8 274/85/8 275/103/8
f 70/104/8 9/11/8 65/78/8 255/77/8
f 231/76/8 64/102/8 224/87/8 246/86/8
f 262/100/8 73/96/8 67/79/8 240/99/8
f 10/10/8 9/11/8 70/104/8
f 10/10/8 70/104/8 257/73/8
f 263/105/8 74/106/8 73/96/8 262/100/8
f 280/97/8 69/92/8 247/83/8
f 14/10/8 72/107/8 71/95/8 60/94/8
f 10/10/8 76/101/8 77/108/8
f 263/105/8 72/107/8 14/10/8
f 77/108/8 280/97/8 275/103/8 74/106/8
f 74/106/8 10/10/8 77/108/8
f 10/10/8 74/106/8 263/105/8 14/10/8
f 96/109/9 373/110/9 404/111/9
f 95/112/9 93/113/9 386/114/9
f 380/115/9 403/116/9 100/117/9
f 372/118/9 392/119/9 393/120/9
f 14/10/9 288/121/9 78/122/9
f 338/123/9 14/10/9 98/124/9
f 340/125/9 338/123/9 98/124/9
f 94/126/9 95/112/9 355/127/9 330/128/9
f 87/129/9 86/130/9 82/131/9
f 96/109/9 404/111/9 403/116/9 380/115/9
f 347/132/9 346/133/9 89/134/9
f 393/120/9 404/111/9 373/110/9 372/118/9
f 338/123/9 337/135/9 87/129/9
f 89/134/9 318/136/9 84/137/9
f 98/124/9 14/10/9 15/9/9
f 388/138/9 98/124/9 15/9/9
f 95/112/9 99/139/9 392/119/9 372/118/9
f 349/140/9 347/132/9 364/141/9 94/126/9
f 90/142/9 89/134/9 346/133/9 348/143/9
f 304/144/9 84/137/9 318/136/9 319/145/9
f 83/146/9 82/131/9 86/130/9 308/147/9
f 88/148/9 87/129/9 337/135/9 339/149/9
f 96/109/9 357/150/9 356/151/9 371/152/9
f 92/153/9 91/154/9 330/128/9 355/127/9
f 386/114/9 339/149/9 340/125/9 98/124/9
f 347/132/10 89/134/11 84/137/11
f 338/123/12 87/129/12 82/131/13
f 379/155/9 357/150/9 96/109/9 380/115/9
f 405/156/9 404/111/9 393/120/9 394/157/9
f 356/151/9 95/112/9 372/118/9 371/152/9
f 99/139/9 95/112/9 386/114/9 387/158/9
f 308/147/9 88/148/9 339/149/9
f 11/9/9 97/159/9 380/115/9 100/117/9
f 319/145/9 90/142/9 348/143/9
f 293/160/9 83/146/9 308/147/9
f 348/143/9 349/140/9 94/126/9
f 394/157/9 388/138/9 15/9/9 11/9/9
f 388/138/9 394/157/9 99/139/9 387/158/9
f 347/132/9 293/160/9 93/113/9 364/141/9
f 95/112/9 356/151/9 355/127/9
f 319/145/14 348/143/15 94/126/16
f 293/160/17 308/147/17 339/149/18
f 92/153/9 357/150/9 379/155/9
f 330/128/9 319/145/9 94/126/9
f 381/161/9 91/154/9 92/153/9 379/155/9
f 405/156/9 394/157/9 11/9/9
f 85/162/9 304/144/9 319/145/9 330/128/9
f 100/117/9 405/156/9 11/9/9
f 331/163/9 91/154/9 381/161/9
f 10/10/9 85/162/9 330/128/9 329/164/9
f 381/161/9 97/159/9 11/9/9
f 10/10/9 329/164/9 331/163/9
f 331/163/9 381/161/9 11/9/9 10/10/9
f 303/165/9 85/162/9 10/10/9
f 293/160/9 347/132/9 84/137/9
f 293/160/9 339/149/9 386/114/9 93/113/9
f 81/166/9 293/160/9 84/137/9 303/165/9
f 81/166/9 303/165/9 10/10/9
f 81/166/9 10/10/9 14/10/9 78/122/9
f 82/131/9 81/166/9 78/122/9 79/167/9
f 80/168/9 338/123/9 82/131/9 79/167/9
f 14/10/9 338/123/9 80/168/9 288/121/9
f 113/169/19 116/170/19 112/171/19
f 114/172/19 107/173/19 106/174/19 258/175/19
f 105/176/19 108/177/19 103/178/19
f 259/179/19 281/180/19 114/172/19
f 112/171/19 105/176/19 104/181/19 111/182/19
f 106/174/19 233/183/19 12/12/19
f 16/12/19 101/184/19 217/185/19
f 104/181/19 225/186/19 233/183/19 232/187/19
f 12/12/19 233/183/19 225/186/19
f 218/188/19 109/189/19 264/190/19 265/191/19
f 232/187/19 248/192/19 111/182/19 104/181/19
f 115/193/19 258/175/19 106/174/19 12/12/19
f 266/194/19 264/190/19 109/189/19 110/195/19
f 15/9/19 16/12/19 217/185/19
f 112/171/19 241/196/19 108/177/19 105/176/19
f 120/197/19 118/198/19 116/170/19 113/169/19
f 101/184/19 16/12/19 12/12/19 225/186/19
f 120/197/19 248/192/19 114/172/19 281/180/19
f 117/199/19 241/196/19 112/171/19 116/170/19
f 15/9/19 217/185/19 102/200/19
f 115/193/19 12/12/19 11/9/19
f 11/9/19 259/179/19 115/193/19
f 120/197/19 113/169/19 248/192/19
f 121/201/19 281/180/19 259/179/19 11/9/19
f 218/188/19 101/184/19 225/186/19 103/178/19
f 265/191/19 15/9/19 102/200/19 218/188/19
f 282/202/19 121/201/19 11/9/19
f 108/177/19 109/189/19 218/188/19 103/178/19
f 266/194/19 110/195/19 241/196/19 117/199/19
f 248/192/19 232/187/19 107/173/19 114/172/19
f 267/203/19 266/194/19 117/199/19 119/204/19
f 15/9/19 265/191/19 267/203/19
f 119/204/19 118/198/19 120/197/19 282/202/19
f 11/9/19 15/9/19 267/203/19 119/204/19
f 119/204/19 282/202/19 11/9/19
f 20/7/5 8/3/5 2/4/5 17/8/5
f 19/6/5 6/2/5 8/3/5 20/7/5
f 18/5/5 4/1/5 6/2/5 19/6/5
f 17/8/5 2/4/5 4/1/5 18/5/5
f 139/205/20 140/206/20 144/207/20 395/208/20
f 321/209/20 128/210/20 305/211/20 320/212/20
f 358/213/20 333/214/20 135/215/20
f 141/216/20 376/217/20 145/218/20
f 140/206/20 138/219/20 389/220/20
f 134/221/20 322/222/20 129/223/20 132/224/20
f 350/225/20 375/226/20 374/227/20
f 21/8/20 123/228/20 122/229/20
f 341/230/20 21/8/20 390/231/20
f 343/232/20 341/230/20 390/231/20
f 390/231/20 21/8/20 24/7/20
f 311/233/20 133/234/20 132/224/20 129/223/20
f 137/235/20 145/218/20 376/217/20 375/226/20
f 141/216/20 145/218/20 406/236/20 383/237/20
f 124/238/20 310/239/20 309/240/20 295/241/20
f 375/226/20 350/225/20 133/234/20 137/235/20
f 391/242/20 390/231/20 24/7/20
f 384/243/20 383/237/20 406/236/20 407/244/20
f 297/245/20 295/241/20 309/240/20 311/233/20
f 382/246/20 334/247/20 333/214/20 358/213/20
f 359/248/20 136/249/20 374/227/20
f 312/250/20 310/239/20 131/251/20 342/252/20
f 17/8/20 21/8/20 122/229/20
f 359/248/20 374/227/20 141/216/20 383/237/20
f 333/214/20 134/221/20 136/249/20 135/215/20
f 144/207/20 140/206/20 389/220/20 143/253/20
f 342/252/20 343/232/20 390/231/20 389/220/20
f 127/254/20 128/210/20 321/209/20
f 389/220/20 138/219/20 312/250/20 342/252/20
f 20/7/20 142/255/20 384/243/20 407/244/20
f 305/211/20 297/245/20 311/233/20
f 408/256/20 139/205/20 395/208/20 396/257/20
f 382/246/20 358/213/20 359/248/20 383/237/20
f 397/258/20 144/207/20 143/253/20 391/242/20
f 311/233/20 312/250/20 138/219/20
f 136/249/20 134/221/20 350/225/20 374/227/20
f 134/221/20 333/214/20 321/209/20 322/222/20
f 133/234/20 311/233/20 138/219/20 137/235/20
f 408/256/20 145/218/20 137/235/20 139/205/20
f 142/255/20 130/259/20 334/247/20 382/246/20
f 305/211/20 311/233/20 129/223/20 320/212/20
f 127/254/20 321/209/20 333/214/20 332/260/20
f 397/258/20 391/242/20 24/7/20 20/7/20
f 408/256/20 396/257/20 397/258/20
f 126/261/20 296/262/20 297/245/20 305/211/20
f 408/256/20 397/258/20 20/7/20
f 294/263/20 296/262/20 126/261/20
f 407/244/20 408/256/20 20/7/20
f 130/259/20 142/255/20 20/7/20 17/8/20
f 127/254/20 332/260/20 130/259/20 17/8/20
f 126/261/20 127/254/20 17/8/20
f 294/263/20 126/261/20 17/8/20
f 294/263/20 17/8/20 122/229/20
f 341/230/20 124/238/20 125/264/20
f 295/241/20 294/263/20 122/229/20 124/238/20
f 341/230/20 131/251/20 310/239/20 124/238/20
f 125/264/20 123/228/20 21/8/20 341/230/20
f 151/265/21 150/266/21 157/267/21 269/268/21
f 148/269/21 242/270/21 243/271/21
f 237/272/21 154/273/21 260/274/21 236/275/21
f 162/276/21 161/277/21 250/278/21 153/279/21
f 249/280/21 276/281/21 159/282/21
f 249/280/21 152/283/21 149/284/21 227/285/21
f 220/286/21 219/287/21 24/7/21
f 235/288/21 234/289/21 226/290/21
f 20/7/21 226/290/21 234/289/21
f 147/291/21 220/286/21 24/7/21 23/6/21
f 249/280/21 227/285/21 148/269/21 243/271/21
f 23/6/21 268/292/21 146/293/21 147/291/21
f 146/293/21 150/266/21 242/270/21 148/269/21
f 163/294/21 154/273/21 250/278/21 161/277/21
f 162/276/21 153/279/21 249/280/21 159/282/21
f 154/273/21 237/272/21 235/288/21 226/290/21
f 148/269/21 226/290/21 219/287/21 146/293/21
f 158/295/21 276/281/21 249/280/21 243/271/21
f 149/284/21 154/273/21 226/290/21
f 283/296/21 162/276/21 159/282/21 160/297/21
f 269/268/21 158/295/21 243/271/21 151/265/21
f 268/292/21 157/267/21 150/266/21 146/293/21
f 152/283/21 250/278/21 154/273/21 149/284/21
f 270/298/21 268/292/21 23/6/21
f 270/298/21 160/297/21 158/295/21 269/268/21
f 156/299/21 154/273/21 163/294/21
f 19/6/21 155/300/21 156/299/21 163/294/21
f 160/297/21 270/298/21 23/6/21 19/6/21
f 283/296/21 160/297/21 19/6/21
f 163/294/21 283/296/21 19/6/21
f 155/300/21 19/6/21 20/7/21
f 236/275/21 260/274/21 155/300/21 20/7/21
f 234/289/21 236/275/21 20/7/21
f 20/7/21 24/7/21 219/287/21 226/290/21
f 193/301/22 191/302/22 183/303/22
f 199/304/22 187/305/22 186/306/22
f 184/307/22 365/308/22 178/309/22 180/310/22
f 195/311/22 366/312/22 184/307/22
f 361/313/22 377/314/22 181/315/22
f 175/316/22 344/317/22 314/318/22 316/319/22
f 182/320/22 360/321/22 172/322/22 336/323/22
f 198/324/22 189/325/22 190/326/22
f 179/327/22 177/328/22 324/329/22 326/330/22
f 196/331/22 398/332/22 185/333/22
f 23/6/22 192/334/22 194/335/22
f 174/336/22 165/337/22 166/338/22
f 165/337/22 23/6/22 22/5/22
f 23/6/22 165/337/22 174/336/22
f 306/339/22 172/322/22 360/321/22 181/315/22
f 289/340/22 314/318/22 344/317/22 174/336/22
f 186/306/22 189/325/22 198/324/22 199/304/22
f 315/341/22 365/308/22 183/303/22
f 325/342/22 377/314/22 185/333/22
f 289/340/22 168/343/22 313/344/22 314/318/22
f 23/6/22 174/336/22 176/345/22
f 164/346/22 165/337/22 22/5/22
f 315/341/22 313/344/22 168/343/22 169/347/22
f 19/6/22 200/348/22 198/324/22 190/326/22
f 325/342/22 323/349/22 171/350/22 307/351/22
f 185/333/22 398/332/22 195/311/22 184/307/22
f 195/311/22 193/301/22 183/303/22 366/312/22
f 199/304/22 196/331/22 185/333/22 187/305/22
f 174/336/22 166/338/22 289/340/22
f 183/303/22 191/302/22 192/334/22 23/6/22
f 189/325/22 186/306/22 377/314/22 361/313/22
f 179/327/22 185/333/22 184/307/22 180/310/22
f 194/335/22 193/301/22 195/311/22 197/352/22
f 175/316/22 183/303/22 23/6/22 176/345/22
f 19/6/22 190/326/22 385/353/22
f 181/315/22 307/351/22 306/339/22
f 183/303/22 175/316/22 316/319/22 315/341/22
f 315/341/22 169/347/22 298/354/22
f 164/346/22 22/5/22 18/5/22
f 182/320/22 189/325/22 361/313/22
f 197/352/22 196/331/22 199/304/22 201/355/22
f 336/323/22 188/356/22 189/325/22 182/320/22
f 164/346/22 167/357/22 168/343/22 289/340/22
f 325/342/22 185/333/22 179/327/22 326/330/22
f 19/6/22 23/6/22 194/335/22 197/352/22
f 307/351/22 181/315/22 377/314/22 325/342/22
f 19/6/22 197/352/22 201/355/22
f 298/354/22 178/309/22 365/308/22 315/341/22
f 19/6/22 201/355/22 200/348/22
f 385/353/22 188/356/22 336/323/22
f 324/329/22 177/328/22 178/309/22 298/354/22
f 167/357/22 164/346/22 18/5/22
f 171/350/22 323/349/22 324/329/22 298/354/22
f 170/358/22 171/350/22 298/354/22 167/357/22
f 335/359/22 172/322/22 306/339/22
f 336/323/22 173/360/22 19/6/22 385/353/22
f 18/5/22 19/6/22 173/360/22
f 18/5/22 173/360/22 335/359/22 306/339/22
f 170/358/22 167/357/22 18/5/22
f 306/339/22 170/358/22 18/5/22
f 238/361/23 207/362/23 210/363/23
f 209/364/23 244/365/23 228/366/23
f 209/364/23 277/367/23 214/368/23
f 207/362/23 205/369/23 17/8/23
f 204/370/23 205/369/23 206/371/23
f 17/8/23 205/369/23 204/370/23
f 238/361/23 251/372/23 229/373/23
f 221/374/23 208/375/23 272/376/23 271/377/23
f 211/378/23 210/363/23 207/362/23 17/8/23
f 230/379/23 229/373/23 251/372/23 252/380/23
f 254/381/23 253/382/23 284/383/23 285/384/23
f 213/385/23 272/376/23 208/375/23 245/386/23
f 213/385/23 245/386/23 209/364/23 214/368/23
f 229/373/23 204/370/23 206/371/23 238/361/23
f 228/366/23 221/374/23 202/387/23 204/370/23
f 278/388/23 277/367/23 209/364/23 228/366/23
f 221/374/23 228/366/23 244/365/23 208/375/23
f 211/378/23 17/8/23 18/5/23
f 251/372/23 238/361/23 210/363/23 261/389/23
f 21/8/23 17/8/23 204/370/23 202/387/23
f 212/390/23 211/378/23 18/5/23
f 21/8/23 202/387/23 203/391/23
f 279/392/23 273/393/23 213/385/23 214/368/23
f 222/394/23 221/374/23 271/377/23
f 278/388/23 228/366/23 230/379/23 252/380/23
f 222/394/23 271/377/23 21/8/23 203/391/23
f 285/384/23 278/388/23 252/380/23 254/381/23
f 253/382/23 251/372/23 261/389/23
f 212/390/23 284/383/23 253/382/23 261/389/23
f 279/392/23 278/388/23 285/384/23 287/395/23
f 22/5/23 21/8/23 271/377/23
f 22/5/23 271/377/23 273/393/23
f 18/5/23 286/396/23 284/383/23 212/390/23
f 18/5/23 279/392/23 287/395/23
f 287/395/23 286/396/23 18/5/23
f 22/5/23 273/393/23 279/392/23 18/5/23
f 220/397/24 217/398/24 101/399/24 219/400/24
f 202/401/24 215/402/24 216/403/24 203/404/24
f 146/405/25 218/406/25 102/407/25 147/408/25
f 222/409/25 60/410/25 59/411/25 221/412/25
f 221/413/26 59/414/26 215/415/26 202/416/26
f 219/417/26 101/418/26 218/419/26 146/420/26
f 147/417/27 102/418/27 217/421/27 220/422/27
f 203/423/27 216/424/27 60/415/27 222/416/27
f 148/425/24 103/426/24 225/427/24 226/428/24
f 204/429/24 61/430/24 223/431/24 228/432/24
f 149/433/25 104/434/25 105/435/25 227/436/25
f 230/437/25 62/438/25 224/439/25 229/440/25
f 224/441/26 61/442/26 204/443/26 229/444/26
f 226/445/26 225/446/26 104/447/26 149/448/26
f 227/445/27 105/446/27 103/449/27 148/450/27
f 223/451/27 62/442/27 230/443/27 228/452/27
f 235/453/24 232/454/24 233/455/24 234/456/24
f 205/457/24 63/458/24 64/459/24 206/460/24
f 236/461/25 106/462/25 107/463/25 237/464/25
f 238/465/25 231/466/25 65/467/25 207/468/25
f 207/469/26 65/470/26 63/471/26 205/472/26
f 233/473/26 106/474/26 236/475/26 234/476/26
f 237/476/27 107/473/27 232/477/27 235/478/27
f 64/479/27 231/471/27 238/472/27 206/480/27
f 150/481/24 109/482/24 108/483/24 242/484/24
f 244/485/24 239/486/24 66/487/24 208/488/24
f 241/489/25 110/490/25 151/491/25 243/492/25
f 245/493/25 240/494/25 67/495/25 209/496/25
f 67/497/26 239/498/26 244/499/26 209/500/26
f 242/501/26 108/502/26 241/503/26 243/504/26
f 151/501/27 110/502/27 109/505/27 150/506/27
f 208/507/27 66/508/27 240/498/27 245/499/27
f 249/509/24 112/510/24 111/511/24 152/512/24
f 251/513/24 246/514/24 68/515/24 252/516/24
f 250/517/25 248/518/25 113/519/25 153/520/25
f 247/521/25 69/522/25 253/523/25 254/524/25
f 253/525/26 69/526/26 246/527/26 251/528/26
f 111/529/26 248/530/26 250/531/26 152/532/26
f 153/532/27 113/529/27 112/533/27 249/534/27
f 252/535/27 68/536/27 247/527/27 254/528/27
f 154/537/24 114/538/24 258/539/24 260/540/24
f 210/541/24 255/542/24 256/543/24 261/544/24
f 155/545/25 115/546/25 259/547/25 156/548/25
f 212/549/25 257/550/25 70/551/25 211/552/25
f 211/553/26 70/554/26 255/555/26 210/556/26
f 260/557/26 258/558/26 115/559/26 155/560/26
f 156/557/27 259/558/27 114/561/27 154/562/27
f 261/563/27 256/564/27 257/555/27 212/556/27
f 268/397/24 265/398/24 264/399/24 157/400/24
f 272/401/24 71/402/24 72/403/24 271/404/24
f 269/405/25 266/406/25 267/407/25 270/408/25
f 273/409/25 263/410/25 262/411/25 213/412/25
f 213/413/26 262/414/26 71/415/26 272/416/26
f 264/418/26 266/419/26 269/420/26 157/417/26
f 270/417/27 267/418/27 265/421/27 268/422/27
f 271/423/27 72/424/27 263/415/27 273/416/27
f 158/425/24 117/426/24 116/427/24 276/428/24
f 277/429/24 274/430/24 73/431/24 214/432/24
f 159/433/25 118/434/25 119/435/25 160/436/25
f 279/437/25 74/438/25 275/439/25 278/440/25
f 278/444/26 275/441/26 274/442/26 277/443/26
f 276/445/26 116/446/26 118/447/26 159/448/26
f 160/445/27 119/446/27 117/449/27 158/450/27
f 214/452/27 73/451/27 74/442/27 279/443/27
f 162/453/24 120/454/24 281/455/24 161/456/24
f 284/457/24 75/458/24 280/459/24 285/460/24
f 163/461/25 121/462/25 282/463/25 283/464/25
f 77/466/25 76/467/25 286/468/25 287/465/25
f 286/469/26 76/470/26 75/471/26 284/472/26
f 161/476/26 281/473/26 121/474/26 163/475/26
f 282/473/27 120/477/27 162/478/27 283/476/27
f 285/480/27 280/479/27 77/471/27 287/472/27
f 123/565/28 26/566/28 25/567/28 122/568/28
f 164/569/28 78/570/28 288/571/28 165/572/28
f 124/573/29 27/574/29 28/575/29 125/576/29
f 166/577/29 80/578/29 79/579/29 289/580/29
f 289/581/30 79/582/30 78/583/30 164/584/30
f 122/585/30 25/586/30 27/587/30 124/588/30
f 125/585/31 28/586/31 26/589/31 123/590/31
f 165/591/31 288/592/31 80/583/31 166/584/31
f 295/593/28 29/594/28 290/595/28 294/596/28
f 167/597/28 81/598/28 82/599/28 168/600/28
f 296/601/29 291/602/29 292/603/29 297/604/29
f 169/605/29 83/606/29 293/607/29 298/608/29
f 298/609/30 293/610/30 81/611/30 167/612/30
f 294/613/30 290/614/30 291/615/30 296/616/30
f 297/613/31 292/614/31 29/617/31 295/618/31
f 168/619/31 82/620/31 83/611/31 169/612/31
f 305/621/28 300/622/28 299/623/28 126/624/28
f 170/625/28 303/626/28 84/627/28 171/628/28
f 127/629/29 301/630/29 302/631/29 128/632/29
f 307/633/29 304/634/29 85/635/29 306/636/29
f 306/637/30 85/638/30 303/639/30 170/640/30
f 126/641/30 299/642/30 301/643/30 127/644/30
f 128/641/31 302/642/31 300/645/31 305/646/31
f 171/647/31 84/648/31 304/639/31 307/640/31
f 310/649/28 31/650/28 30/651/28 309/652/28
f 313/653/28 86/654/28 87/655/28 314/656/28
f 311/657/29 32/658/29 33/659/29 312/660/29
f 88/661/29 308/662/29 315/663/29 316/664/29
f 315/665/30 308/666/30 86/667/30 313/668/30
f 309/669/30 30/670/30 32/671/30 311/672/30
f 312/669/31 33/670/31 31/673/31 310/674/31
f 314/675/31 87/676/31 88/667/31 316/668/31
f 129/677/28 35/678/28 34/679/28 320/680/28
f 323/681/28 318/682/28 89/683/28 324/684/28
f 321/685/29 317/686/29 36/687/29 322/688/29
f 326/689/29 90/690/29 319/691/29 325/692/29
f 325/693/30 319/694/30 318/695/30 323/696/30
f 320/697/30 34/698/30 317/699/30 321/700/30
f 322/697/31 36/698/31 35/701/31 129/702/31
f 324/703/31 89/704/31 90/695/31 326/696/31
f 333/705/28 327/706/28 37/707/28 332/708/28
f 335/709/28 329/710/28 330/711/28 172/712/28
f 130/713/29 38/714/29 328/715/29 334/716/29
f 336/717/29 91/718/29 331/719/29 173/720/29
f 173/721/30 331/722/30 329/723/30 335/724/30
f 332/725/30 37/726/30 38/727/30 130/728/30
f 334/725/31 328/726/31 327/729/31 333/730/31
f 172/731/31 330/732/31 91/723/31 336/724/31
f 341/565/28 40/566/28 39/567/28 131/568/28
f 344/569/28 337/570/28 338/571/28 174/572/28
f 342/573/29 41/574/29 42/575/29 343/576/29
f 176/577/29 340/578/29 339/579/29 175/580/29
f 175/581/30 339/582/30 337/583/30 344/584/30
f 131/585/30 39/586/30 41/587/30 342/588/30
f 343/585/31 42/586/31 40/589/31 341/590/31
f 174/591/31 338/592/31 340/583/31 176/584/31
f 133/593/28 43/594/28 345/595/28 132/596/28
f 177/597/28 346/598/28 347/599/28 178/600/28
f 134/601/29 44/602/29 45/603/29 350/604/29
f 180/605/29 349/606/29 348/607/29 179/608/29
f 179/609/30 348/610/30 346/611/30 177/612/30
f 132/613/30 345/614/30 44/615/30 134/616/30
f 350/613/31 45/614/31 43/617/31 133/618/31
f 347/620/31 349/611/31 180/612/31 178/619/31
f 136/621/28 352/622/28 351/623/28 135/624/28
f 360/625/28 355/626/28 356/627/28 181/628/28
f 358/629/29 353/630/29 354/631/29 359/632/29
f 361/633/29 357/634/29 92/635/29 182/636/29
f 182/637/30 92/638/30 355/639/30 360/640/30
f 135/641/30 351/642/30 353/643/30 358/644/30
f 359/641/31 354/642/31 352/645/31 136/646/31
f 181/647/31 356/648/31 357/639/31 361/640/31
f 138/649/28 362/650/28 46/651/28 137/652/28
f 365/653/28 364/654/28 93/655/28 183/656/28
f 139/657/29 363/658/29 47/659/29 140/660/29
f 366/664/29 95/661/29 94/662/29 184/663/29
f 184/665/30 94/666/30 364/667/30 365/668/30
f 137/669/30 46/670/30 363/671/30 139/672/30
f 140/669/31 47/670/31 362/673/31 138/674/31
f 93/676/31 95/667/31 366/668/31 183/675/31
f 375/677/28 368/678/28 367/679/28 374/680/28
f 377/681/28 371/682/28 372/683/28 185/684/28
f 141/685/29 369/686/29 370/687/29 376/688/29
f 187/689/29 373/690/29 96/691/29 186/692/29
f 186/693/30 96/694/30 371/695/30 377/696/30
f 374/697/30 367/698/30 369/699/30 141/700/30
f 376/697/31 370/698/31 368/701/31 375/702/31
f 185/703/31 372/704/31 373/695/31 187/696/31
f 383/705/28 49/706/28 48/707/28 382/708/28
f 188/709/28 379/710/28 380/711/28 189/712/28
f 142/713/29 378/714/29 50/715/29 384/716/29
f 190/717/29 97/718/29 381/719/29 385/720/29
f 385/721/30 381/722/30 379/723/30 188/724/30
f 382/725/30 48/726/30 378/727/30 142/728/30
f 384/725/31 50/726/31 49/729/31 383/730/31
f 189/731/31 380/732/31 97/723/31 190/724/31
f 390/565/28 52/566/28 51/567/28 389/568/28
f 191/569/28 386/570/28 98/571/28 192/572/28
f 143/573/29 53/574/29 54/575/29 391/576/29
f 194/577/29 388/578/29 387/579/29 193/580/29
f 193/581/30 387/582/30 386/583/30 191/584/30
f 389/585/30 51/586/30 53/587/30 143/588/30
f 391/585/31 54/586/31 52/589/31 390/590/31
f 192/591/31 98/592/31 388/583/31 194/584/31
f 144/593/28 56/594/28 55/595/28 395/596/28
f 398/597/28 392/598/28 99/599/28 195/600/28
f 396/601/29 57/602/29 58/603/29 397/604/29
f 197/605/29 394/606/29 393/607/29 196/608/29
f 196/609/30 393/610/30 392/611/30 398/612/30
f 395/613/30 55/614/30 57/615/30 396/616/30
f 397/613/31 58/614/31 56/617/31 144/618/31
f 195/619/31 99/620/31 394/611/31 197/612/31
f 145/621/28 400/622/28 399/623/28 406/624/28
f 198/625/28 403/626/28 404/627/28 199/628/28
f 407/629/29 401/630/29 402/631/29 408/632/29
f 201/633/29 405/634/29 100/635/29 200/636/29
f 200/637/30 100/638/30 403/639/30 198/640/30
f 406/641/30 399/642/30 401/643/30 407/644/30
f 408/641/31 402/642/31 400/645/31 145/646/31
f 199/647/31 404/648/31 405/639/31 201/640/31
