# Blender 4.5.3 LTS
# www.blender.org
mtllib bed.mtl
o Pillow_网格.015
v -48.763134 -10.879018 -13.571695
v -48.763134 -10.879017 -21.361725
v -48.542126 -10.702312 -13.571695
v -48.763134 -10.191152 -14.102695
v -47.968300 -10.243511 -20.830725
v -48.763134 -10.723302 -21.361725
v -48.145050 -10.674319 -13.571695
v -47.968300 -10.243512 -14.102695
v -47.294472 -10.392622 -20.830725
v -48.542126 -10.702311 -21.361725
v -47.598621 -10.719269 -13.571695
v -47.294472 -10.392622 -14.102695
v -46.844234 -10.615782 -20.830725
v -48.145050 -10.674318 -21.361725
v -47.305550 -10.879017 -13.571694
v -46.844234 -10.615782 -14.102695
v -46.686131 -10.879017 -20.830725
v -47.598618 -10.719268 -21.361725
v -47.598618 -10.933456 -13.571695
v -46.686134 -10.879017 -14.102695
v -46.844234 -10.963697 -20.830725
v -47.305546 -10.879017 -21.361725
v -48.145050 -10.946592 -13.571695
v -47.598618 -10.933455 -21.361725
v -46.844234 -10.963698 -14.102695
v -47.294472 -11.028913 -20.830725
v -47.294472 -11.028913 -14.102695
v -47.968300 -11.072489 -20.830727
v -48.542126 -10.938413 -13.571695
v -48.763134 -10.932278 -13.571695
v -48.145050 -10.946592 -21.361725
v -48.542126 -10.938412 -21.361725
v -47.968300 -11.072490 -14.102695
v -48.763134 -11.087790 -20.830727
v -48.763134 -11.087790 -14.102695
v -49.557968 -11.072490 -20.830727
v -48.984142 -10.938413 -13.571695
v -49.381218 -10.946593 -13.571695
v -48.763134 -10.932278 -21.361725
v -48.984142 -10.938412 -21.361725
v -49.557968 -11.072490 -14.102695
v -50.231796 -11.028914 -20.830727
v -50.231796 -11.028913 -14.102695
v -50.682034 -10.963699 -20.830727
v -49.927650 -10.933457 -13.571695
v -50.682034 -10.963699 -14.102695
v -50.840134 -10.879018 -20.830727
v -49.927650 -10.933457 -21.361727
v -49.381218 -10.946592 -21.361727
v -50.220722 -10.879018 -13.571696
v -50.220718 -10.879018 -21.361727
v -49.927650 -10.719270 -13.571695
v -50.840137 -10.879018 -14.102695
v -50.682034 -10.615783 -20.830727
v -49.557968 -10.243512 -14.102695
v -48.763134 -10.191151 -20.830727
v -48.984142 -10.702311 -21.361725
v -48.763134 -10.723303 -13.571695
v -50.682034 -10.615783 -14.102695
v -50.231796 -10.392623 -20.830727
v -49.381218 -10.674319 -13.571695
v -49.927650 -10.719269 -21.361727
v -50.231796 -10.392623 -14.102695
v -49.557968 -10.243512 -20.830727
v -48.984142 -10.702312 -13.571695
v -49.381218 -10.674318 -21.361727
v -48.763134 -10.347014 -13.727221
v -48.136372 -10.377892 -13.727221
v -48.763134 -10.347015 -21.206200
v -48.136368 -10.377891 -21.206200
v -47.543602 -10.475129 -13.727221
v -47.543598 -10.475129 -21.206200
v -47.065189 -10.646092 -13.727221
v -47.065189 -10.646093 -21.206200
v -46.867558 -10.879017 -13.727221
v -46.867554 -10.879017 -21.206200
v -47.065189 -10.954841 -13.727221
v -47.065189 -10.954841 -21.206200
v -47.543602 -11.004803 -13.727221
v -47.543598 -11.004802 -21.206200
v -48.136368 -11.033218 -21.206200
v -48.136372 -11.033219 -13.727221
v -48.763134 -11.042242 -13.727221
v -48.763134 -11.042242 -21.206200
v -49.389896 -11.033219 -21.206200
v -49.389900 -11.033219 -13.727221
v -49.982670 -11.004803 -13.727221
v -49.982666 -11.004803 -21.206200
v -50.461079 -10.954842 -21.206200
v -50.461079 -10.954842 -13.727222
v -50.658710 -10.879018 -21.206200
v -50.658714 -10.879018 -13.727222
v -50.461079 -10.646093 -21.206200
v -50.461079 -10.646093 -13.727222
v -49.389900 -10.377892 -13.727221
v -49.389896 -10.377891 -21.206200
v -49.982666 -10.475130 -21.206200
v -49.982670 -10.475130 -13.727221
vn -0.0000 -0.0000 1.0000
vn 0.0657 0.9978 -0.0000
vn -0.0000 -0.0000 -1.0000
vn 0.2161 0.9764 -0.0000
vn 0.4441 0.8960 -0.0000
vn 0.8573 0.5149 -0.0000
vn 0.4722 -0.8815 -0.0000
vn 0.1434 -0.9897 -0.0000
vn 0.0645 -0.9979 -0.0000
vn 0.0192 -0.9998 -0.0000
vn -0.0192 -0.9998 -0.0000
vn -0.0645 -0.9979 -0.0000
vn -0.1433 -0.9897 -0.0000
vn -0.4722 -0.8815 -0.0000
vn -0.8573 0.5149 -0.0000
vn -0.4441 0.8960 -0.0000
vn -0.2161 0.9764 -0.0000
vn -0.0657 0.9978 -0.0000
vn 0.0047 0.4034 0.9150
vn -0.0000 0.4035 0.9150
vn 0.0543 0.9272 -0.3705
vn 0.0324 0.4636 0.8854
vn 0.1779 0.9147 -0.3630
vn 0.1088 0.5165 0.8493
vn 0.3649 0.8597 -0.3575
vn 0.2650 0.3312 0.9056
vn 0.7386 0.5296 -0.4171
vn 0.1938 -0.7300 0.6554
vn 0.4007 -0.8881 -0.2252
vn 0.0554 -0.9000 0.4324
vn 0.1222 -0.9853 -0.1197
vn 0.0178 -0.8731 0.4873
vn 0.0564 -0.9918 -0.1150
vn -0.0000 -0.8336 0.5524
vn 0.0028 -0.8335 0.5524
vn 0.0170 -0.9931 -0.1160
vn -0.0028 -0.8336 0.5524
vn -0.0170 -0.9931 -0.1160
vn -0.0178 -0.8731 0.4873
vn -0.0564 -0.9918 -0.1150
vn -0.0554 -0.9000 0.4324
vn -0.1222 -0.9853 -0.1198
vn -0.1938 -0.7300 0.6554
vn -0.4007 -0.8881 -0.2252
vn -0.2650 0.3312 0.9056
vn -0.7386 0.5296 -0.4171
vn -0.1088 0.5165 0.8493
vn -0.3649 0.8597 -0.3575
vn -0.0324 0.4636 0.8854
vn -0.1779 0.9147 -0.3630
vn -0.0047 0.4034 0.9150
vn -0.0543 0.9272 -0.3705
vn 0.0543 0.9272 0.3705
vn 0.0047 0.4034 -0.9150
vn -0.0000 0.4035 -0.9150
vn 0.1779 0.9146 0.3630
vn 0.0324 0.4636 -0.8854
vn 0.3649 0.8597 0.3575
vn 0.1088 0.5165 -0.8493
vn 0.7386 0.5296 0.4171
vn 0.2650 0.3312 -0.9056
vn 0.4007 -0.8881 0.2252
vn 0.1938 -0.7300 -0.6554
vn 0.1222 -0.9853 0.1198
vn 0.0554 -0.9000 -0.4325
vn 0.0564 -0.9918 0.1150
vn 0.0178 -0.8731 -0.4873
vn 0.0170 -0.9931 0.1160
vn -0.0000 -0.8335 -0.5525
vn 0.0028 -0.8335 -0.5524
vn -0.0170 -0.9931 0.1160
vn -0.0028 -0.8335 -0.5525
vn -0.0564 -0.9918 0.1150
vn -0.0178 -0.8731 -0.4873
vn -0.1222 -0.9853 0.1197
vn -0.0554 -0.9000 -0.4324
vn -0.4007 -0.8881 0.2252
vn -0.1938 -0.7300 -0.6554
vn -0.7386 0.5296 0.4171
vn -0.2650 0.3312 -0.9056
vn -0.3649 0.8597 0.3575
vn -0.1088 0.5165 -0.8493
vn -0.1779 0.9146 0.3630
vn -0.0324 0.4636 -0.8854
vn -0.0543 0.9272 0.3705
vn -0.0047 0.4034 -0.9150
vt 0.371555 0.553204
vt 0.386813 0.500000
vt 0.500000 0.500000
vt 0.062500 0.068164
vt 0.062500 0.931836
vt 0.000000 0.931836
vt 0.000000 0.068164
vt 0.628445 0.553204
vt 0.613187 0.500000
vt 0.351208 0.648792
vt 0.125000 0.068164
vt 0.125000 0.931836
vt 0.648792 0.648792
vt 0.383881 0.780336
vt 0.187500 0.068164
vt 0.187500 0.931836
vt 0.616119 0.780336
vt 0.500000 0.850887
vt 0.250000 0.068164
vt 0.250000 0.931836
vt 0.312500 0.068164
vt 0.312500 0.931836
vt 0.375000 0.068164
vt 0.375000 0.931836
vt 0.437500 0.068164
vt 0.437500 0.931836
vt 0.500000 0.068164
vt 0.500000 0.931836
vt 0.628445 0.446796
vt 0.562500 0.068164
vt 0.562500 0.931836
vt 0.371555 0.446796
vt 0.648792 0.351208
vt 0.625000 0.068164
vt 0.625000 0.931836
vt 0.351208 0.351208
vt 0.616119 0.219664
vt 0.687500 0.068164
vt 0.687500 0.931836
vt 0.383881 0.219664
vt 0.500000 0.149113
vt 0.750000 0.068164
vt 0.750000 0.931836
vt 0.812500 0.068164
vt 0.812500 0.931836
vt 0.875000 0.068164
vt 0.875000 0.931836
vt 0.937500 0.068164
vt 0.937500 0.931836
vt 1.000000 0.068164
vt 1.000000 0.931836
vt 0.151695 0.776602
vt 0.159324 0.500000
vt -0.317347 0.855021
vt 0.170653 0.874903
vt 0.240915 0.325600
vt 0.238868 0.623477
vt -0.283511 0.882605
vt 0.235046 0.912975
vt 0.288512 0.389312
vt 0.282898 0.750317
vt -0.251941 0.894846
vt 0.268698 0.948187
vt 0.377565 0.421185
vt 0.380085 0.866879
vt -0.188813 0.902117
vt 0.285714 0.969598
vt 0.466124 0.381902
vt 0.533064 0.917178
vt -0.077563 0.929094
vt 0.323279 0.979658
vt 0.512358 0.311907
vt 0.685442 0.858649
vt 0.050554 0.976370
vt 0.405675 0.997193
vt 0.531451 0.259934
vt 0.780901 0.734505
vt 0.165058 1.023981
vt 0.504944 1.029777
vt 0.552497 0.229402
vt 0.822346 0.601675
vt 0.260691 1.057755
vt 0.587569 1.066191
vt 0.588322 0.199299
vt 0.830693 0.475900
vt 0.342725 1.069459
vt 0.644554 1.094410
vt 0.626486 0.148635
vt 0.816032 0.350759
vt 0.422103 1.057624
vt 0.677937 1.104661
vt 0.638947 0.081136
vt 0.769560 0.220131
vt 0.512268 1.032272
vt 0.697076 1.091491
vt 0.627660 0.071134
vt 0.687640 0.125440
vt 0.619056 1.029459
vt 0.717171 1.059616
vt 0.566941 0.143914
vt 0.500000 0.108638
vt 0.714309 1.075750
vt 0.750000 1.040474
vt 0.584421 0.209589
vt 0.348837 0.162848
vt 0.728615 1.114917
vt 0.757245 1.047199
vt 0.629994 0.256812
vt 0.255544 0.282241
vt 0.666838 0.942953
vt 0.735263 0.928011
vt 0.673219 0.282237
vt 0.215870 0.409964
vt 0.728210 0.804561
vt 0.848543 0.808877
vt -0.068164 1.000000
vt -0.068164 0.500000
vt -0.697195 0.778206
vt 0.341305 0.817970
vt 0.130622 0.002408
vt 0.106182 0.693750
vt -0.692023 0.833375
vt 0.407592 0.894113
vt 0.193143 -0.001712
vt 0.214589 0.851841
vt -0.691382 0.857855
vt 0.412396 0.964539
vt 0.255130 -0.008518
vt 0.376288 0.953422
vt -0.627626 0.872399
vt 0.383929 1.007360
vt 0.316129 -0.016532
vt 0.566129 0.983468
vt -0.467625 0.926352
vt 0.396559 1.027480
vt 0.375923 -0.024978
vt 0.754764 0.936962
vt -0.273892 1.020903
vt 0.498849 1.062550
vt 0.434457 -0.033335
vt 0.913010 0.820218
vt -0.107383 1.116126
vt 0.634889 1.127718
vt 0.491807 -0.041196
vt 1.016246 0.650146
vt 0.021382 1.183673
vt 0.737637 1.200545
vt 0.548199 -0.048199
vt 1.048199 0.451801
vt 0.122950 1.207083
vt 0.789108 1.256984
vt 0.604179 -0.053937
vt 1.003618 0.254721
vt 0.219205 1.183412
vt 0.793373 1.277485
vt 0.661775 -0.057393
vt 0.890328 0.089054
vt 0.337036 1.132709
vt 0.769151 1.251146
vt 0.755320 -0.006845
vt 0.759161 0.031215
vt 0.488113 1.127082
vt 0.746841 1.187396
vt 0.616119 1.219664
vt 0.750000 1.149113
vt 0.817635 0.067971
vt 0.313793 0.106031
vt 0.582231 1.297998
vt 0.701991 1.162561
vt 0.888433 0.066827
vt 0.159880 0.213274
vt 0.396176 0.954070
vt 0.595525 0.924185
vt 0.959625 0.064474
vt 0.060185 0.373132
vt 0.456420 0.677286
vt 0.759587 0.685918
s 1
usemtl white
f 3/1/1 58/2/1 1/3/1
f 8/4/2 5/5/2 56/6/2 4/7/2
f 10/8/3 2/3/3 6/9/3
f 7/10/1 3/1/1 1/3/1
f 12/11/4 9/12/4 5/5/4 8/4/4
f 14/13/3 2/3/3 10/8/3
f 11/14/1 7/10/1 1/3/1
f 16/15/5 13/16/5 9/12/5 12/11/5
f 18/17/3 2/3/3 14/13/3
f 15/18/1 11/14/1 1/3/1
f 20/19/6 17/20/6 13/16/6 16/15/6
f 22/18/3 2/3/3 18/17/3
f 19/17/1 15/18/1 1/3/1
f 25/21/7 21/22/7 17/20/7 20/19/7
f 24/14/3 2/3/3 22/18/3
f 23/13/1 19/17/1 1/3/1
f 27/23/8 26/24/8 21/22/8 25/21/8
f 31/10/3 2/3/3 24/14/3
f 29/8/1 23/13/1 1/3/1
f 33/25/9 28/26/9 26/24/9 27/23/9
f 32/1/3 2/3/3 31/10/3
f 30/9/1 29/8/1 1/3/1
f 35/27/10 34/28/10 28/26/10 33/25/10
f 39/2/3 2/3/3 32/1/3
f 37/29/1 30/9/1 1/3/1
f 41/30/11 36/31/11 34/28/11 35/27/11
f 40/32/3 2/3/3 39/2/3
f 38/33/1 37/29/1 1/3/1
f 43/34/12 42/35/12 36/31/12 41/30/12
f 49/36/3 2/3/3 40/32/3
f 45/37/1 38/33/1 1/3/1
f 46/38/13 44/39/13 42/35/13 43/34/13
f 48/40/3 2/3/3 49/36/3
f 50/41/1 45/37/1 1/3/1
f 53/42/14 47/43/14 44/39/14 46/38/14
f 51/41/3 2/3/3 48/40/3
f 52/40/1 50/41/1 1/3/1
f 59/44/15 54/45/15 47/43/15 53/42/15
f 62/37/3 2/3/3 51/41/3
f 61/36/1 52/40/1 1/3/1
f 63/46/16 60/47/16 54/45/16 59/44/16
f 66/33/3 2/3/3 62/37/3
f 65/32/1 61/36/1 1/3/1
f 55/48/17 64/49/17 60/47/17 63/46/17
f 57/29/3 2/3/3 66/33/3
f 58/2/1 65/32/1 1/3/1
f 4/50/18 56/51/18 64/49/18 55/48/18
f 6/9/3 2/3/3 57/29/3
f 3/1/19 68/52/19 67/53/20 58/2/20
f 5/5/21 70/54/21 69/55/21 56/6/21
f 7/10/22 71/56/22 68/57/22 3/1/22
f 9/12/23 72/58/23 70/59/23 5/5/23
f 11/14/24 73/60/24 71/61/24 7/10/24
f 13/16/25 74/62/25 72/63/25 9/12/25
f 15/18/26 75/64/26 73/65/26 11/14/26
f 17/20/27 76/66/27 74/67/27 13/16/27
f 19/17/28 77/68/28 75/69/28 15/18/28
f 21/22/29 78/70/29 76/71/29 17/20/29
f 23/13/30 79/72/30 77/73/30 19/17/30
f 26/24/31 80/74/31 78/75/31 21/22/31
f 29/8/32 82/76/32 79/77/32 23/13/32
f 28/26/33 81/78/33 80/79/33 26/24/33
f 30/9/34 83/80/34 82/81/35 29/8/35
f 34/28/36 84/82/36 81/83/36 28/26/36
f 37/29/37 86/84/37 83/85/34 30/9/34
f 36/31/38 85/86/38 84/87/38 34/28/38
f 38/33/39 87/88/39 86/89/39 37/29/39
f 42/35/40 88/90/40 85/91/40 36/31/40
f 45/37/41 90/92/41 87/93/41 38/33/41
f 44/39/42 89/94/42 88/95/42 42/35/42
f 50/41/43 92/96/43 90/97/43 45/37/43
f 47/43/44 91/98/44 89/99/44 44/39/44
f 52/40/45 94/100/45 92/101/45 50/41/45
f 54/45/46 93/102/46 91/103/46 47/43/46
f 61/36/47 98/104/47 94/105/47 52/40/47
f 60/47/48 97/106/48 93/107/48 54/45/48
f 65/32/49 95/108/49 98/109/49 61/36/49
f 64/49/50 96/110/50 97/111/50 60/47/50
f 58/2/20 67/112/20 95/113/51 65/32/51
f 56/51/52 69/114/52 96/115/52 64/49/52
f 68/52/53 8/116/53 4/117/53 67/53/53
f 70/54/54 10/118/54 6/119/55 69/55/55
f 71/56/56 12/120/56 8/121/56 68/57/56
f 72/58/57 14/122/57 10/123/57 70/59/57
f 73/60/58 16/124/58 12/125/58 71/61/58
f 74/62/59 18/126/59 14/127/59 72/63/59
f 75/64/60 20/128/60 16/129/60 73/65/60
f 76/66/61 22/130/61 18/131/61 74/67/61
f 77/68/62 25/132/62 20/133/62 75/69/62
f 78/70/63 24/134/63 22/135/63 76/71/63
f 79/72/64 27/136/64 25/137/64 77/73/64
f 80/74/65 31/138/65 24/139/65 78/75/65
f 82/76/66 33/140/66 27/141/66 79/77/66
f 81/78/67 32/142/67 31/143/67 80/79/67
f 83/80/68 35/144/68 33/145/68 82/81/68
f 84/82/69 39/146/69 32/147/70 81/83/70
f 86/84/71 41/148/71 35/149/71 83/85/71
f 85/86/72 40/150/72 39/151/69 84/87/69
f 87/88/73 43/152/73 41/153/73 86/89/73
f 88/90/74 49/154/74 40/155/74 85/91/74
f 90/92/75 46/156/75 43/157/75 87/93/75
f 89/94/76 48/158/76 49/159/76 88/95/76
f 92/96/77 53/160/77 46/161/77 90/97/77
f 91/98/78 51/162/78 48/163/78 89/99/78
f 94/100/79 59/42/79 53/27/79 92/101/79
f 93/102/80 62/164/80 51/165/80 91/103/80
f 98/104/81 63/166/81 59/167/81 94/105/81
f 97/106/82 66/168/82 62/169/82 93/107/82
f 95/108/83 55/170/83 63/171/83 98/109/83
f 96/110/84 57/172/84 66/173/84 97/111/84
f 67/112/85 4/174/85 55/175/85 95/113/85
f 69/114/55 6/176/55 57/177/86 96/115/86
o Single_Bed_网格.014
v -28.211849 -14.862267 -10.716711
v -50.711849 -14.862267 -10.716711
v -28.211849 -12.873473 -10.716711
v -50.711849 -12.873473 -10.716711
v -28.211849 -12.873472 -24.216709
v -50.711849 -12.873472 -24.216709
v -28.211849 -14.862267 -24.216709
v -50.711849 -14.862267 -24.216709
v -27.761848 -14.862267 -10.716711
v -27.761848 -12.873473 -10.716711
v -27.761848 -12.873472 -24.216709
v -27.761848 -14.862267 -24.216709
v -51.161850 -14.862267 -10.716711
v -51.161850 -12.873473 -10.716711
v -51.161850 -12.873472 -24.216709
v -51.161850 -14.862267 -24.216709
v -28.211849 -9.167062 -10.716710
v -28.211849 -9.167061 -24.216709
v -27.761848 -9.167062 -10.716710
v -27.761848 -9.167061 -24.216709
v -50.711849 -6.213474 -10.716711
v -50.711849 -6.213473 -24.216709
v -51.161850 -6.213474 -10.716711
v -51.161850 -6.213473 -24.216709
v -28.211849 -10.974474 -10.716710
v -50.711849 -10.974474 -10.716710
v -28.211849 -10.974472 -24.216711
v -50.711849 -10.974472 -24.216711
v -27.761848 -15.759049 -10.716712
v -29.563293 -15.759049 -10.716712
v -27.761848 -14.859050 -10.716711
v -29.563293 -14.859050 -10.716711
v -27.761848 -14.859049 -12.515419
v -29.563293 -14.859049 -12.515419
v -27.761848 -15.759049 -12.515420
v -29.563293 -15.759049 -12.515420
v -27.761848 -15.759048 -22.414894
v -29.563293 -15.759048 -22.414894
v -27.761848 -14.859049 -22.414894
v -29.563293 -14.859049 -22.414894
v -27.761848 -14.859048 -24.213602
v -29.563293 -14.859048 -24.213602
v -27.761848 -15.759048 -24.213602
v -29.563293 -15.759048 -24.213602
v -49.335014 -15.759049 -10.716712
v -51.161850 -15.759049 -10.716712
v -49.335014 -14.859050 -10.716711
v -51.161850 -14.859050 -10.716711
v -49.335014 -14.859049 -12.515419
v -51.161850 -14.859049 -12.515419
v -49.335014 -15.759049 -12.515420
v -51.161850 -15.759049 -12.515420
v -49.335014 -15.759048 -22.414894
v -51.161850 -15.759048 -22.414894
v -49.335014 -14.859049 -22.414894
v -51.161850 -14.859049 -22.414894
v -49.335014 -14.859048 -24.213602
v -51.161850 -14.859048 -24.213602
v -49.335014 -15.759048 -24.213602
v -51.161850 -15.759048 -24.213602
vn -0.0000 1.0000 -0.0000
vn -0.0000 -0.0000 1.0000
vn -0.0000 -0.0000 -1.0000
vn -0.0000 -1.0000 -0.0000
vn -1.0000 -0.0000 -0.0000
vn 1.0000 -0.0000 -0.0000
vt 1.000000 0.000000
vt 1.000000 1.000000
vt 0.000000 1.000000
vt 0.000000 0.000000
s 1
usemtl white
f 125/178/87 126/179/87 124/180/87 123/181/87
f 124/180/88 102/180/88 101/181/88 123/181/88
f 125/178/89 103/178/89 104/179/89 126/179/89
usemtl Mat.2
f 101/178/88 102/179/88 100/180/88 99/181/88
f 105/178/89 106/179/89 104/180/89 103/181/89
f 99/178/90 100/179/90 106/180/90 105/181/90
f 112/178/91 113/179/91 114/180/91 111/181/91
f 109/178/92 108/179/92 107/180/92 110/181/92
f 107/180/90 99/180/90 105/181/90 110/181/90
f 108/179/88 101/179/88 99/180/88 107/180/88
f 118/178/87 116/178/87 115/179/87 117/179/87
f 110/181/89 105/181/89 103/178/89 109/178/89
f 114/180/90 106/180/90 100/181/90 111/181/90
f 113/179/89 104/179/89 106/180/89 114/180/89
f 121/178/87 119/178/87 120/179/87 122/179/87
f 111/181/88 100/181/88 102/178/88 112/178/88
f 115/179/88 101/179/88 108/179/88 117/179/88
f 116/178/91 103/178/91 101/179/91 115/179/91
f 118/178/89 109/178/89 103/178/89 116/178/89
f 117/179/92 108/179/92 109/178/92 118/178/92
f 120/179/89 104/179/89 113/179/89 122/179/89
f 119/178/92 102/178/92 104/179/92 120/179/92
f 121/178/88 112/178/88 102/178/88 119/178/88
f 122/179/91 113/179/91 112/178/91 121/178/91
f 126/179/91 104/179/91 102/180/91 124/180/91
f 123/181/92 101/181/92 103/178/92 125/178/92
f 129/178/88 130/179/88 128/180/88 127/181/88
f 131/178/87 132/179/87 130/180/87 129/181/87
f 133/178/89 134/179/89 132/180/89 131/181/89
f 127/178/90 128/179/90 134/180/90 133/181/90
f 130/178/91 132/179/91 134/180/91 128/181/91
f 131/178/92 129/179/92 127/180/92 133/181/92
f 137/178/88 138/179/88 136/180/88 135/181/88
f 139/178/87 140/179/87 138/180/87 137/181/87
f 141/178/89 142/179/89 140/180/89 139/181/89
f 135/178/90 136/179/90 142/180/90 141/181/90
f 138/178/91 140/179/91 142/180/91 136/181/91
f 139/178/92 137/179/92 135/180/92 141/181/92
f 145/178/88 146/179/88 144/180/88 143/181/88
f 147/178/87 148/179/87 146/180/87 145/181/87
f 149/178/89 150/179/89 148/180/89 147/181/89
f 143/178/90 144/179/90 150/180/90 149/181/90
f 146/178/91 148/179/91 150/180/91 144/181/91
f 147/178/92 145/179/92 143/180/92 149/181/92
f 153/178/88 154/179/88 152/180/88 151/181/88
f 155/178/87 156/179/87 154/180/87 153/181/87
f 157/178/89 158/179/89 156/180/89 155/181/89
f 151/178/90 152/179/90 158/180/90 157/181/90
f 154/178/91 156/179/91 158/180/91 152/181/91
f 155/178/92 153/179/92 151/180/92 157/181/92
