# Blender 4.5.3 LTS
# www.blender.org
mtllib 大柜子.mtl
o Shelves
v -50.065250 -15.751934 24.970005
v -50.065250 -9.751934 24.970007
v -50.065250 -3.751935 24.970009
v -50.065250 2.248065 24.970009
v -45.565250 -15.751934 24.970005
v -45.565250 -9.751934 24.970007
v -45.565250 -3.751935 24.970009
v -45.565250 2.248065 24.970009
v -45.565250 -15.751932 12.370007
v -45.565250 -9.751932 12.370008
v -45.565250 -3.751933 12.370008
v -45.565250 2.248067 12.370009
v -50.065250 -15.751932 12.370007
v -50.065250 -9.751932 12.370008
v -50.065250 -3.751933 12.370008
v -50.065250 2.248067 12.370009
v -45.565250 -15.301933 24.520006
v -45.565250 -10.201935 24.520008
v -45.565250 -15.301931 12.820006
v -45.565250 -10.201933 12.820007
v -45.565250 -9.751934 24.520008
v -45.565250 -4.201935 24.520008
v -45.565250 -9.751932 12.820007
v -45.565250 -4.201933 12.820008
v -45.565250 -3.751935 24.520008
v -45.565250 1.798065 24.520008
v -45.565250 -3.751933 12.820008
v -45.565250 1.798067 12.820009
v -49.678692 -15.301933 24.520006
v -49.678692 -10.201935 24.520008
v -49.678692 -15.301931 12.820006
v -49.678692 -10.201933 12.820007
v -49.678692 -9.751934 24.520008
v -49.678692 -4.201935 24.520008
v -49.678692 -9.751932 12.820007
v -49.678692 -4.201933 12.820008
v -49.678692 -3.751935 24.520008
v -49.678692 1.798065 24.520008
v -49.678692 -3.751933 12.820008
v -49.678692 1.798067 12.820009
vn -0.0000 -0.0000 1.0000
vn 1.0000 -0.0000 -0.0000
vn -0.0000 -0.0000 -1.0000
vn -1.0000 -0.0000 -0.0000
vn -0.0000 1.0000 -0.0000
vn -0.0000 -1.0000 -0.0000
vn -0.0000 -0.0000 -0.0000
vt 1.000000 0.000000
vt 1.000000 0.333333
vt 0.000000 0.333333
vt 0.000000 0.000000
vt 1.000000 0.666667
vt 0.000000 0.666667
vt 1.000000 1.000000
vt 0.000000 1.000000
vt 0.964286 0.025000
vt 0.964286 0.308333
vt 0.035714 0.308334
vt 0.035714 0.025000
vt 0.964286 0.358333
vt 0.964286 0.641667
vt 0.035714 0.641667
vt 0.035714 0.358333
vt 0.964286 0.691667
vt 0.964286 0.975000
vt 0.035714 0.975000
vt 0.035714 0.691667
s 1
usemtl Mat.2
f 5/1/1 6/2/1 2/3/1 1/4/1
f 6/2/1 7/5/1 3/6/1 2/3/1
f 7/5/1 8/7/1 4/8/1 3/6/1
f 31/9/2 32/10/2 30/11/2 29/12/2
f 35/13/2 36/14/2 34/15/2 33/16/2
f 39/17/2 40/18/2 38/19/2 37/20/2
f 13/1/3 14/2/3 10/3/3 9/4/3
f 14/2/3 15/5/3 11/6/3 10/3/3
f 15/5/3 16/7/3 12/8/3 11/6/3
f 1/1/4 2/2/4 14/3/4 13/4/4
f 2/2/4 3/5/4 15/6/4 14/3/4
f 3/5/4 4/7/4 16/8/4 15/6/4
f 8/1/5 12/7/5 16/8/5 4/4/5
f 9/1/6 5/7/6 1/8/6 13/4/6
f 18/11/2 6/3/2 5/4/2 17/12/2
f 20/10/2 10/2/2 6/3/2 18/11/2
f 19/9/2 9/1/2 10/2/2 20/10/2
f 17/12/2 5/4/2 9/1/2 19/9/2
f 22/15/2 7/6/2 6/3/2 21/16/2
f 24/14/2 11/5/2 7/6/2 22/15/2
f 23/13/2 10/2/2 11/5/2 24/14/2
f 21/16/2 6/3/2 10/2/2 23/13/2
f 26/19/2 8/8/2 7/6/2 25/20/2
f 28/18/2 12/7/2 8/8/2 26/19/2
f 27/17/2 11/5/2 12/7/2 28/18/2
f 25/20/7 7/6/7 11/5/7 27/17/7
f 30/11/3 18/11/3 17/12/3 29/12/3
f 32/10/6 20/10/6 18/11/6 30/11/6
f 31/9/1 19/9/1 20/10/1 32/10/1
f 29/12/5 17/12/5 19/9/5 31/9/5
f 34/15/3 22/15/3 21/16/3 33/16/3
f 36/14/6 24/14/6 22/15/6 34/15/6
f 35/13/1 23/13/1 24/14/1 36/14/1
f 33/16/5 21/16/5 23/13/5 35/13/5
f 38/19/3 26/19/3 25/20/3 37/20/3
f 40/18/6 28/18/6 26/19/6 38/19/6
f 39/17/1 27/17/1 28/18/1 40/18/1
f 37/20/5 25/20/5 27/17/5 39/17/5
