# Blender 4.5.3 LTS
# www.blender.org
mtllib books.mtl
o Book_Shelf
v -51.154079 5.231314 -25.297491
v -51.154079 8.630897 -25.297489
v -47.754498 5.231314 -25.297491
v -47.754498 8.630897 -25.297489
v -47.754498 5.231314 -25.644375
v -47.754498 8.630897 -25.644375
v -51.154079 5.231314 -25.644375
v -51.154079 8.630897 -25.644375
v -47.754498 5.553434 -25.297489
v -51.154079 5.553434 -25.297489
v -51.154079 5.553434 -25.644375
v -47.754498 5.553434 -25.644375
v -47.754498 5.231316 -35.257011
v -51.154079 5.231316 -35.257011
v -51.154079 5.553436 -35.257011
v -47.754498 5.553436 -35.257011
v -47.754498 5.231316 -35.611271
v -51.154079 5.231316 -35.611271
v -51.154079 5.553436 -35.611271
v -47.754498 5.553436 -35.611271
v -51.154079 8.630898 -35.257011
v -47.754498 8.630898 -35.257011
v -51.154079 8.630898 -35.611271
v -47.754498 8.630898 -35.611271
vn -0.0000 -0.0000 1.0000
vn 1.0000 -0.0000 -0.0000
vn -0.0000 -0.0000 -1.0000
vn -1.0000 -0.0000 -0.0000
vn -0.0000 1.0000 -0.0000
vn -0.0000 -1.0000 -0.0000
vt 1.000000 0.094753
vt 1.000000 1.000000
vt 0.000000 1.000000
vt 0.000000 0.094753
vt 1.000000 0.000000
vt 0.000000 0.000000
s 1
usemtl Mat.2
f 9/1/1 4/2/1 2/3/1 10/4/1
f 12/1/2 6/2/2 4/3/2 9/4/2
f 11/1/3 8/2/3 6/3/3 12/4/3
f 10/1/4 2/2/4 8/3/4 11/4/4
f 4/5/5 6/2/5 8/3/5 2/6/5
f 5/5/6 3/2/6 1/3/6 7/6/6
f 10/4/1 1/6/1 3/5/1 9/1/1
f 11/4/4 7/6/4 1/5/4 10/1/4
f 20/4/3 17/6/3 18/5/3 19/1/3
f 9/4/2 3/6/2 5/5/2 12/1/2
f 14/5/4 7/5/4 11/1/4 15/1/4
f 13/6/6 5/6/6 7/5/6 14/5/6
f 16/4/2 12/4/2 5/6/2 13/6/2
f 15/1/5 11/1/5 12/4/5 16/4/5
f 18/5/4 14/5/4 15/1/4 19/1/4
f 17/6/6 13/6/6 14/5/6 18/5/6
f 20/4/2 16/4/2 13/6/2 17/6/2
f 23/1/5 21/1/5 22/4/5 24/4/5
f 22/4/2 16/4/2 20/4/2 24/4/2
f 21/1/1 15/1/1 16/4/1 22/4/1
f 23/1/4 19/1/4 15/1/4 21/1/4
f 24/4/3 20/4/3 19/1/3 23/1/3
o Book_1
v -50.973774 5.560991 -25.872499
v -50.973774 9.662760 -25.872499
v -48.141579 5.560991 -25.872499
v -48.141579 9.662760 -25.872499
v -48.141579 5.560991 -26.374155
v -48.141579 9.662760 -26.374155
v -50.973774 5.560991 -26.374155
v -50.973774 9.662760 -26.374155
v -50.973774 5.560991 -25.782499
v -50.973774 9.662760 -25.782499
v -48.051579 5.560991 -25.782499
v -48.051579 9.662760 -25.782499
v -48.051579 5.560991 -26.464155
v -48.051579 9.662760 -26.464155
v -50.973774 5.560991 -26.464155
v -50.973774 9.662760 -26.464155
v -51.005840 5.560991 -25.872499
v -51.005840 5.578991 -25.872499
v -51.005840 5.560991 -26.374155
v -51.005840 5.578991 -26.374155
v -50.973774 9.644760 -25.872499
v -48.141579 9.644760 -25.872499
v -48.141579 9.644760 -26.374155
v -50.973774 9.644760 -26.374155
v -51.005840 9.644760 -25.872499
v -51.005840 9.644760 -26.374155
v -50.973774 5.578991 -25.872499
v -48.141579 5.578991 -25.872499
v -48.141579 5.578991 -26.374155
v -50.973774 5.578991 -26.374155
v -51.005840 5.578991 -25.872499
v -50.973774 5.578991 -25.872499
vn -0.0000 -0.0000 1.0000
vn 1.0000 -0.0000 -0.0000
vn -0.0000 -0.0000 -1.0000
vn -0.0000 1.0000 -0.0000
vn -0.0000 -1.0000 -0.0000
vn -1.0000 -0.0000 -0.0000
vt 1.000000 0.000000
vt 1.000000 1.000000
vt 0.000000 1.000000
vt 0.000000 0.000000
s 1
usemtl white
f 51/7/9 25/7/9 41/7/9 42/7/9
f 46/7/10 47/8/10 48/9/10 45/10/10
f 53/7/11 52/8/11 51/9/11 54/10/11
f 34/9/12 26/9/12 25/10/12 33/10/12
f 39/7/12 31/7/12 32/8/12 40/8/12
f 42/7/8 41/7/8 43/10/8 44/10/8
f 49/8/10 45/8/10 48/9/10 50/9/10
f 53/7/12 29/7/12 27/8/12 52/8/12
f 44/10/11 54/10/11 51/7/11 42/7/11
f 47/8/7 30/8/7 32/9/7 48/9/7
f 46/7/12 28/7/12 30/8/12 47/8/12
f 45/10/9 26/10/9 28/7/9 46/7/9
f 44/10/7 43/10/7 31/10/7 54/10/7
f 52/8/9 27/8/9 25/9/9 51/9/9
f 54/10/7 31/10/7 29/7/7 53/7/7
f 31/10/9 43/7/9 50/8/9 48/9/9
f 43/10/12 41/7/12 49/8/12 50/9/12
f 55/10/7 56/7/7 45/8/7 49/9/7
usemtl Mat.000
f 35/7/7 36/8/7 34/9/7 33/10/7
f 37/7/8 38/8/8 36/9/8 35/10/8
f 39/7/9 40/8/9 38/9/9 37/10/9
f 36/8/10 28/8/10 26/9/10 34/9/10
f 33/10/11 25/10/11 27/7/11 35/7/11
f 38/8/10 30/8/10 28/9/10 36/9/10
f 35/10/11 27/10/11 29/7/11 37/7/11
f 40/8/10 32/8/10 30/9/10 38/9/10
f 37/10/11 29/10/11 31/7/11 39/7/11
o Book_2_2
v -50.864399 5.560992 -26.693474
v -50.864399 9.044802 -26.693474
v -48.032204 5.560992 -26.693474
v -48.032204 9.044802 -26.693474
v -48.032204 5.560992 -27.378193
v -48.032204 9.044802 -27.378193
v -50.864399 5.560992 -27.378193
v -50.864399 9.044802 -27.378193
v -50.864399 5.560991 -26.603474
v -50.864399 9.044802 -26.603474
v -47.942204 5.560991 -26.603474
v -47.942204 9.044802 -26.603474
v -47.942204 5.560992 -27.468193
v -47.942204 9.044802 -27.468193
v -50.864399 5.560992 -27.468193
v -50.864399 9.044802 -27.468193
v -50.896465 5.560992 -26.693474
v -50.896465 5.578991 -26.693474
v -50.896465 5.560992 -27.378193
v -50.896465 5.578991 -27.378193
v -50.864399 9.026801 -26.693474
v -48.032204 9.026801 -26.693474
v -48.032204 9.026801 -27.378193
v -50.864399 9.026801 -27.378193
v -50.896465 9.026801 -26.693474
v -50.896465 9.026801 -27.378193
v -50.864399 5.578991 -26.693474
v -48.032204 5.578991 -26.693474
v -48.032204 5.578991 -27.378193
v -50.864399 5.578991 -27.378193
v -50.896465 5.578991 -26.693474
v -50.864399 5.578991 -26.693474
vn -0.0000 -0.0000 1.0000
vn 1.0000 -0.0000 -0.0000
vn -0.0000 -0.0000 -1.0000
vn -0.0000 1.0000 -0.0000
vn -0.0000 -1.0000 -0.0000
vn -1.0000 -0.0000 -0.0000
vt 1.000000 0.000000
vt 1.000000 1.000000
vt 0.000000 1.000000
vt 0.000000 0.000000
s 1
usemtl white
f 83/11/15 57/11/15 73/11/15 74/11/15
f 78/11/16 79/12/16 80/13/16 77/14/16
f 85/11/17 84/12/17 83/13/17 86/14/17
f 66/13/18 58/13/18 57/14/18 65/14/18
f 71/11/18 63/11/18 64/12/18 72/12/18
f 74/11/14 73/11/14 75/14/14 76/14/14
f 81/12/16 77/12/16 80/13/16 82/13/16
f 85/11/18 61/11/18 59/12/18 84/12/18
f 76/14/17 86/14/17 83/11/17 74/11/17
f 79/12/13 62/12/13 64/13/13 80/13/13
f 78/11/18 60/11/18 62/12/18 79/12/18
f 77/14/15 58/14/15 60/11/15 78/11/15
f 76/14/13 75/14/13 63/14/13 86/14/13
f 84/12/15 59/12/15 57/13/15 83/13/15
f 86/14/13 63/14/13 61/11/13 85/11/13
f 63/14/15 75/11/15 82/12/15 80/13/15
f 75/14/18 73/11/18 81/12/18 82/13/18
f 87/14/13 88/11/13 77/12/13 81/13/13
usemtl Mat.6
f 67/11/13 68/12/13 66/13/13 65/14/13
f 69/11/14 70/12/14 68/13/14 67/14/14
f 71/11/15 72/12/15 70/13/15 69/14/15
f 68/12/16 60/12/16 58/13/16 66/13/16
f 65/14/17 57/14/17 59/11/17 67/11/17
f 70/12/16 62/12/16 60/13/16 68/13/16
f 67/14/17 59/14/17 61/11/17 69/11/17
f 72/12/16 64/12/16 62/13/16 70/13/16
f 69/14/17 61/14/17 63/11/17 71/11/17
o Book_3
v -50.920799 5.560989 -32.156448
v -50.920799 9.662758 -32.156448
v -48.088604 5.560989 -32.156448
v -48.088604 9.662758 -32.156448
v -48.088604 5.560989 -32.658104
v -48.088604 9.662758 -32.658104
v -50.920799 5.560989 -32.658104
v -50.920799 9.662758 -32.658104
v -50.920799 5.560989 -32.066448
v -50.920799 9.662758 -32.066448
v -47.998604 5.560989 -32.066448
v -47.998604 9.662758 -32.066448
v -47.998604 5.560989 -32.748104
v -47.998604 9.662758 -32.748104
v -50.920799 5.560989 -32.748104
v -50.920799 9.662758 -32.748104
v -50.952866 5.560989 -32.156448
v -50.952866 5.578989 -32.156448
v -50.952866 5.560989 -32.658104
v -50.952866 5.578989 -32.658104
v -50.920799 9.644758 -32.156448
v -48.088604 9.644758 -32.156448
v -48.088604 9.644758 -32.658104
v -50.920799 9.644758 -32.658104
v -50.952866 9.644758 -32.156448
v -50.952866 9.644758 -32.658104
v -50.920799 5.578989 -32.156448
v -48.088604 5.578989 -32.156448
v -48.088604 5.578989 -32.658104
v -50.920799 5.578989 -32.658104
v -50.952866 5.578989 -32.156448
v -50.920799 5.578989 -32.156448
vn -0.0000 -0.0000 1.0000
vn 1.0000 -0.0000 -0.0000
vn -0.0000 -0.0000 -1.0000
vn -0.0000 1.0000 -0.0000
vn -0.0000 -1.0000 -0.0000
vn -1.0000 -0.0000 -0.0000
vt 1.000000 0.000000
vt 1.000000 1.000000
vt 0.000000 1.000000
vt 0.000000 0.000000
s 1
usemtl white
f 115/15/21 89/15/21 105/15/21 106/15/21
f 110/15/22 111/16/22 112/17/22 109/18/22
f 117/15/23 116/16/23 115/17/23 118/18/23
f 98/17/24 90/17/24 89/18/24 97/18/24
f 103/15/24 95/15/24 96/16/24 104/16/24
f 106/15/20 105/15/20 107/18/20 108/18/20
f 113/16/22 109/16/22 112/17/22 114/17/22
f 117/15/24 93/15/24 91/16/24 116/16/24
f 108/18/23 118/18/23 115/15/23 106/15/23
f 111/16/19 94/16/19 96/17/19 112/17/19
f 110/15/24 92/15/24 94/16/24 111/16/24
f 109/18/21 90/18/21 92/15/21 110/15/21
f 108/18/19 107/18/19 95/18/19 118/18/19
f 116/16/21 91/16/21 89/17/21 115/17/21
f 118/18/19 95/18/19 93/15/19 117/15/19
f 95/18/21 107/15/21 114/16/21 112/17/21
f 107/18/24 105/15/24 113/16/24 114/17/24
f 119/18/19 120/15/19 109/16/19 113/17/19
usemtl Mat.5
f 99/15/19 100/16/19 98/17/19 97/18/19
f 101/15/20 102/16/20 100/17/20 99/18/20
f 103/15/21 104/16/21 102/17/21 101/18/21
f 100/16/22 92/16/22 90/17/22 98/17/22
f 97/18/23 89/18/23 91/15/23 99/15/23
f 102/16/22 94/16/22 92/17/22 100/17/22
f 99/18/23 91/18/23 93/15/23 101/15/23
f 104/16/22 96/16/22 94/17/22 102/17/22
f 101/18/23 93/18/23 95/15/23 103/15/23
o Book_4
v -50.890839 5.560989 -34.451725
v -50.890839 8.819196 -34.451725
v -48.058643 5.560989 -34.451725
v -48.058643 8.819196 -34.451725
v -48.058643 5.560989 -35.110325
v -48.058643 8.819196 -35.110325
v -50.890839 5.560989 -35.110325
v -50.890839 8.819196 -35.110325
v -50.890839 5.560989 -34.361725
v -50.890839 8.819196 -34.361725
v -47.968643 5.560989 -34.361725
v -47.968643 8.819196 -34.361725
v -47.968643 5.560990 -35.200325
v -47.968643 8.819196 -35.200325
v -50.890839 5.560990 -35.200325
v -50.890839 8.819196 -35.200325
v -50.922905 5.560989 -34.451725
v -50.922905 5.578990 -34.451725
v -50.922905 5.560989 -35.110325
v -50.922905 5.578990 -35.110325
v -50.890839 8.801195 -34.451725
v -48.058643 8.801195 -34.451725
v -48.058643 8.801195 -35.110325
v -50.890839 8.801195 -35.110325
v -50.922905 8.801195 -34.451725
v -50.922905 8.801195 -35.110325
v -50.890839 5.578990 -34.451725
v -48.058643 5.578990 -34.451725
v -48.058643 5.578990 -35.110325
v -50.890839 5.578990 -35.110325
v -50.922905 5.578990 -34.451725
v -50.890839 5.578990 -34.451725
vn -0.0000 -0.0000 1.0000
vn 1.0000 -0.0000 -0.0000
vn -0.0000 -0.0000 -1.0000
vn -0.0000 1.0000 -0.0000
vn -0.0000 -1.0000 -0.0000
vn -1.0000 -0.0000 -0.0000
vt 1.000000 0.000000
vt 1.000000 1.000000
vt 0.000000 1.000000
vt 0.000000 0.000000
s 1
usemtl white
f 147/19/27 121/19/27 137/19/27 138/19/27
f 142/19/28 143/20/28 144/21/28 141/22/28
f 149/19/29 148/20/29 147/21/29 150/22/29
f 130/21/30 122/21/30 121/22/30 129/22/30
f 135/19/30 127/19/30 128/20/30 136/20/30
f 138/19/26 137/19/26 139/22/26 140/22/26
f 145/20/28 141/20/28 144/21/28 146/21/28
f 149/19/30 125/19/30 123/20/30 148/20/30
f 140/22/29 150/22/29 147/19/29 138/19/29
f 143/20/25 126/20/25 128/21/25 144/21/25
f 142/19/30 124/19/30 126/20/30 143/20/30
f 141/22/27 122/22/27 124/19/27 142/19/27
f 140/22/25 139/22/25 127/22/25 150/22/25
f 148/20/27 123/20/27 121/21/27 147/21/27
f 150/22/25 127/22/25 125/19/25 149/19/25
f 127/22/27 139/19/27 146/20/27 144/21/27
f 139/22/30 137/19/30 145/20/30 146/21/30
f 151/22/25 152/19/25 141/20/25 145/21/25
usemtl Mat.4
f 131/19/25 132/20/25 130/21/25 129/22/25
f 133/19/26 134/20/26 132/21/26 131/22/26
f 135/19/27 136/20/27 134/21/27 133/22/27
f 132/20/28 124/20/28 122/21/28 130/21/28
f 129/22/29 121/22/29 123/19/29 131/19/29
f 134/20/28 126/20/28 124/21/28 132/21/28
f 131/22/29 123/22/29 125/19/29 133/19/29
f 136/20/28 128/20/28 126/21/28 134/21/28
f 133/22/29 125/22/29 127/19/29 135/19/29
o Book_3_2
v -50.973774 5.560989 -31.175562
v -50.973774 9.858935 -31.175560
v -48.141579 5.560989 -31.175562
v -48.141579 9.858935 -31.175560
v -48.141579 5.560989 -31.834160
v -48.141579 9.858935 -31.834158
v -50.973774 5.560989 -31.834160
v -50.973774 9.858935 -31.834158
v -50.973774 5.560989 -31.085562
v -50.973774 9.858935 -31.085560
v -48.051579 5.560989 -31.085562
v -48.051579 9.858935 -31.085560
v -48.051579 5.560989 -31.924160
v -48.051579 9.858935 -31.924158
v -50.973774 5.560989 -31.924160
v -50.973774 9.858935 -31.924158
v -51.005840 5.560989 -31.175562
v -51.005840 5.578989 -31.175562
v -51.005840 5.560989 -31.834160
v -51.005840 5.578989 -31.834160
v -50.973774 9.840936 -31.175560
v -48.141579 9.840936 -31.175560
v -48.141579 9.840936 -31.834158
v -50.973774 9.840936 -31.834158
v -51.005840 9.840936 -31.175560
v -51.005840 9.840936 -31.834158
v -50.973774 5.578989 -31.175562
v -48.141579 5.578989 -31.175562
v -48.141579 5.578989 -31.834160
v -50.973774 5.578989 -31.834160
v -51.005840 5.578989 -31.175562
v -50.973774 5.578989 -31.175562
vn -0.0000 -0.0000 1.0000
vn 1.0000 -0.0000 -0.0000
vn -0.0000 -0.0000 -1.0000
vn -0.0000 1.0000 -0.0000
vn -0.0000 -1.0000 -0.0000
vn -1.0000 -0.0000 -0.0000
vt 1.000000 0.000000
vt 1.000000 1.000000
vt 0.000000 1.000000
vt 0.000000 0.000000
s 1
usemtl white
f 179/23/33 153/23/33 169/23/33 170/23/33
f 174/23/34 175/24/34 176/25/34 173/26/34
f 181/23/35 180/24/35 179/25/35 182/26/35
f 162/25/36 154/25/36 153/26/36 161/26/36
f 167/23/36 159/23/36 160/24/36 168/24/36
f 170/23/32 169/23/32 171/26/32 172/26/32
f 177/24/34 173/24/34 176/25/34 178/25/34
f 181/23/36 157/23/36 155/24/36 180/24/36
f 172/26/35 182/26/35 179/23/35 170/23/35
f 175/24/31 158/24/31 160/25/31 176/25/31
f 174/23/36 156/23/36 158/24/36 175/24/36
f 173/26/33 154/26/33 156/23/33 174/23/33
f 172/26/31 171/26/31 159/26/31 182/26/31
f 180/24/33 155/24/33 153/25/33 179/25/33
f 182/26/31 159/26/31 157/23/31 181/23/31
f 159/26/33 171/23/33 178/24/33 176/25/33
f 171/26/36 169/23/36 177/24/36 178/25/36
f 183/26/31 184/23/31 173/24/31 177/25/31
usemtl Mat.000
f 163/23/31 164/24/31 162/25/31 161/26/31
f 165/23/32 166/24/32 164/25/32 163/26/32
f 167/23/33 168/24/33 166/25/33 165/26/33
f 164/24/34 156/24/34 154/25/34 162/25/34
f 161/26/35 153/26/35 155/23/35 163/23/35
f 166/24/34 158/24/34 156/25/34 164/25/34
f 163/26/35 155/26/35 157/23/35 165/23/35
f 168/24/34 160/24/34 158/25/34 166/25/34
f 165/26/35 157/26/35 159/23/35 167/23/35
o Book_5
v -51.066494 5.560989 -33.751377
v -51.066494 9.113461 -33.751373
v -48.234299 5.560989 -33.751377
v -48.234299 9.113461 -33.751373
v -48.234299 5.560989 -34.227180
v -48.234299 9.113461 -34.227180
v -51.066494 5.560989 -34.227180
v -51.066494 9.113461 -34.227180
v -51.066494 5.560989 -33.661377
v -51.066494 9.113461 -33.661373
v -48.144299 5.560989 -33.661377
v -48.144299 9.113461 -33.661373
v -48.144299 5.560990 -34.317181
v -48.144299 9.113461 -34.317181
v -51.066494 5.560990 -34.317181
v -51.066494 9.113461 -34.317181
v -51.098560 5.560989 -33.751377
v -51.098560 5.578990 -33.751377
v -51.098560 5.560989 -34.227180
v -51.098560 5.578990 -34.227180
v -51.066494 9.095462 -33.751373
v -48.234299 9.095462 -33.751373
v -48.234299 9.095462 -34.227180
v -51.066494 9.095462 -34.227180
v -51.098560 9.095462 -33.751373
v -51.098560 9.095462 -34.227180
v -51.066494 5.578990 -33.751377
v -48.234299 5.578990 -33.751377
v -48.234299 5.578990 -34.227180
v -51.066494 5.578990 -34.227180
v -51.098560 5.578990 -33.751377
v -51.066494 5.578990 -33.751377
vn -0.0000 -0.0000 1.0000
vn 1.0000 -0.0000 -0.0000
vn -0.0000 -0.0000 -1.0000
vn -0.0000 1.0000 -0.0000
vn -0.0000 -1.0000 -0.0000
vn -1.0000 -0.0000 -0.0000
vt 1.000000 0.000000
vt 1.000000 1.000000
vt 0.000000 1.000000
vt 0.000000 0.000000
s 1
usemtl white
f 211/27/39 185/27/39 201/27/39 202/27/39
f 206/27/40 207/28/40 208/29/40 205/30/40
f 213/27/41 212/28/41 211/29/41 214/30/41
f 194/29/42 186/29/42 185/30/42 193/30/42
f 199/27/42 191/27/42 192/28/42 200/28/42
f 202/27/38 201/27/38 203/30/38 204/30/38
f 209/28/40 205/28/40 208/29/40 210/29/40
f 213/27/42 189/27/42 187/28/42 212/28/42
f 204/30/41 214/30/41 211/27/41 202/27/41
f 207/28/37 190/28/37 192/29/37 208/29/37
f 206/27/42 188/27/42 190/28/42 207/28/42
f 205/30/39 186/30/39 188/27/39 206/27/39
f 204/30/37 203/30/37 191/30/37 214/30/37
f 212/28/39 187/28/39 185/29/39 211/29/39
f 214/30/37 191/30/37 189/27/37 213/27/37
f 191/30/39 203/27/39 210/28/39 208/29/39
f 203/30/42 201/27/42 209/28/42 210/29/42
f 215/30/37 216/27/37 205/28/37 209/29/37
usemtl Mat.1
f 195/27/37 196/28/37 194/29/37 193/30/37
f 197/27/38 198/28/38 196/29/38 195/30/38
f 199/27/39 200/28/39 198/29/39 197/30/39
f 196/28/40 188/28/40 186/29/40 194/29/40
f 193/30/41 185/30/41 187/27/41 195/27/41
f 198/28/40 190/28/40 188/29/40 196/29/40
f 195/30/41 187/30/41 189/27/41 197/27/41
f 200/28/40 192/28/40 190/29/40 198/29/40
f 197/30/41 189/30/41 191/27/41 199/27/41
o Book_7
v -50.973774 5.560990 -27.693317
v -50.973774 8.279708 -27.693317
v -48.141579 5.560990 -27.693317
v -48.141579 8.279708 -27.693317
v -48.141579 5.560990 -28.286827
v -48.141579 8.279708 -28.286827
v -50.973774 5.560990 -28.286827
v -50.973774 8.279708 -28.286827
v -50.973774 5.560990 -27.603317
v -50.973774 8.279708 -27.603317
v -48.051579 5.560990 -27.603317
v -48.051579 8.279708 -27.603317
v -48.051579 5.560990 -28.376827
v -48.051579 8.279708 -28.376827
v -50.973774 5.560990 -28.376827
v -50.973774 8.279708 -28.376827
v -51.005840 5.560990 -27.693317
v -51.005840 5.578990 -27.693317
v -51.005840 5.560990 -28.286827
v -51.005840 5.578990 -28.286827
v -50.973774 8.261708 -27.693317
v -48.141579 8.261708 -27.693317
v -48.141579 8.261708 -28.286827
v -50.973774 8.261708 -28.286827
v -51.005840 8.261708 -27.693317
v -51.005840 8.261708 -28.286827
v -50.973774 5.578990 -27.693317
v -48.141579 5.578990 -27.693317
v -48.141579 5.578990 -28.286827
v -50.973774 5.578990 -28.286827
v -51.005840 5.578990 -27.693317
v -50.973774 5.578990 -27.693317
vn -0.0000 -0.0000 1.0000
vn 1.0000 -0.0000 -0.0000
vn -0.0000 -0.0000 -1.0000
vn -0.0000 1.0000 -0.0000
vn -0.0000 -1.0000 -0.0000
vn -1.0000 -0.0000 -0.0000
vt 1.000000 0.000000
vt 1.000000 1.000000
vt 0.000000 1.000000
vt 0.000000 0.000000
s 1
usemtl white
f 243/31/45 217/31/45 233/31/45 234/31/45
f 238/31/46 239/32/46 240/33/46 237/34/46
f 245/31/47 244/32/47 243/33/47 246/34/47
f 226/33/48 218/33/48 217/34/48 225/34/48
f 231/31/48 223/31/48 224/32/48 232/32/48
f 234/31/44 233/31/44 235/34/44 236/34/44
f 241/32/46 237/32/46 240/33/46 242/33/46
f 245/31/48 221/31/48 219/32/48 244/32/48
f 236/34/47 246/34/47 243/31/47 234/31/47
f 239/32/43 222/32/43 224/33/43 240/33/43
f 238/31/48 220/31/48 222/32/48 239/32/48
f 237/34/45 218/34/45 220/31/45 238/31/45
f 236/34/43 235/34/43 223/34/43 246/34/43
f 244/32/45 219/32/45 217/33/45 243/33/45
f 246/34/43 223/34/43 221/31/43 245/31/43
f 223/34/45 235/31/45 242/32/45 240/33/45
f 235/34/48 233/31/48 241/32/48 242/33/48
f 247/34/43 248/31/43 237/32/43 241/33/43
usemtl Mat
f 227/31/43 228/32/43 226/33/43 225/34/43
f 229/31/44 230/32/44 228/33/44 227/34/44
f 231/31/45 232/32/45 230/33/45 229/34/45
f 228/32/46 220/32/46 218/33/46 226/33/46
f 225/34/47 217/34/47 219/31/47 227/31/47
f 230/32/46 222/32/46 220/33/46 228/33/46
f 227/34/47 219/34/47 221/31/47 229/31/47
f 232/32/46 224/32/46 222/33/46 230/33/46
f 229/34/47 221/34/47 223/31/47 231/31/47
o Book_6
v -50.973774 5.560992 -32.917618
v -50.973774 8.279710 -32.917618
v -48.141579 5.560992 -32.917618
v -48.141579 8.279710 -32.917618
v -48.141579 5.560992 -33.511131
v -48.141579 8.279710 -33.511131
v -50.973774 5.560992 -33.511131
v -50.973774 8.279710 -33.511131
v -50.973774 5.560992 -32.827618
v -50.973774 8.279710 -32.827618
v -48.051579 5.560992 -32.827618
v -48.051579 8.279710 -32.827618
v -48.051579 5.560992 -33.601131
v -48.051579 8.279710 -33.601131
v -50.973774 5.560992 -33.601131
v -50.973774 8.279710 -33.601131
v -51.005840 5.560992 -32.917618
v -51.005840 5.578992 -32.917618
v -51.005840 5.560992 -33.511131
v -51.005840 5.578992 -33.511131
v -50.973774 8.261710 -32.917618
v -48.141579 8.261710 -32.917618
v -48.141579 8.261710 -33.511131
v -50.973774 8.261710 -33.511131
v -51.005840 8.261710 -32.917618
v -51.005840 8.261710 -33.511131
v -50.973774 5.578992 -32.917618
v -48.141579 5.578992 -32.917618
v -48.141579 5.578992 -33.511131
v -50.973774 5.578992 -33.511131
v -51.005840 5.578992 -32.917618
v -50.973774 5.578992 -32.917618
vn -0.0000 -0.0000 1.0000
vn 1.0000 -0.0000 -0.0000
vn -0.0000 -0.0000 -1.0000
vn -0.0000 1.0000 -0.0000
vn -0.0000 -1.0000 -0.0000
vn -1.0000 -0.0000 -0.0000
vt 1.000000 0.000000
vt 1.000000 1.000000
vt 0.000000 1.000000
vt 0.000000 0.000000
s 1
usemtl white
f 275/35/51 249/35/51 265/35/51 266/35/51
f 270/35/52 271/36/52 272/37/52 269/38/52
f 277/35/53 276/36/53 275/37/53 278/38/53
f 258/37/54 250/37/54 249/38/54 257/38/54
f 263/35/54 255/35/54 256/36/54 264/36/54
f 266/35/50 265/35/50 267/38/50 268/38/50
f 273/36/52 269/36/52 272/37/52 274/37/52
f 277/35/54 253/35/54 251/36/54 276/36/54
f 268/38/53 278/38/53 275/35/53 266/35/53
f 271/36/49 254/36/49 256/37/49 272/37/49
f 270/35/54 252/35/54 254/36/54 271/36/54
f 269/38/51 250/38/51 252/35/51 270/35/51
f 268/38/49 267/38/49 255/38/49 278/38/49
f 276/36/51 251/36/51 249/37/51 275/37/51
f 278/38/49 255/38/49 253/35/49 277/35/49
f 255/38/51 267/35/51 274/36/51 272/37/51
f 267/38/54 265/35/54 273/36/54 274/37/54
f 279/38/49 280/35/49 269/36/49 273/37/49
usemtl Mat.6
f 259/35/49 260/36/49 258/37/49 257/38/49
f 261/35/50 262/36/50 260/37/50 259/38/50
f 263/35/51 264/36/51 262/37/51 261/38/51
f 260/36/52 252/36/52 250/37/52 258/37/52
f 257/38/53 249/38/53 251/35/53 259/35/53
f 262/36/52 254/36/52 252/37/52 260/37/52
f 259/38/53 251/38/53 253/35/53 261/35/53
f 264/36/52 256/36/52 254/37/52 262/37/52
f 261/38/53 253/38/53 255/35/53 263/35/53
o Book_10
v -51.052303 5.560991 -30.242619
v -51.052303 9.322822 -30.242619
v -48.220108 5.560991 -30.242619
v -48.220108 9.322822 -30.242619
v -48.220108 5.560991 -30.935490
v -48.220108 9.322822 -30.935490
v -51.052303 5.560991 -30.935490
v -51.052303 9.322822 -30.935490
v -51.052303 5.560991 -30.152618
v -51.052303 9.322822 -30.152618
v -48.130108 5.560991 -30.152618
v -48.130108 9.322822 -30.152618
v -48.130108 5.560991 -31.025490
v -48.130108 9.322822 -31.025490
v -51.052303 5.560991 -31.025490
v -51.052303 9.322822 -31.025490
v -51.084370 5.560991 -30.242619
v -51.084370 5.578991 -30.242619
v -51.084370 5.560991 -30.935490
v -51.084370 5.578991 -30.935490
v -51.052303 9.304822 -30.242619
v -48.220108 9.304822 -30.242619
v -48.220108 9.304822 -30.935490
v -51.052303 9.304822 -30.935490
v -51.084370 9.304822 -30.242619
v -51.084370 9.304822 -30.935490
v -51.052303 5.578991 -30.242619
v -48.220108 5.578991 -30.242619
v -48.220108 5.578991 -30.935490
v -51.052303 5.578991 -30.935490
v -51.084370 5.578991 -30.242619
v -51.052303 5.578991 -30.242619
vn -0.0000 -0.0000 1.0000
vn 1.0000 -0.0000 -0.0000
vn -0.0000 -0.0000 -1.0000
vn -0.0000 1.0000 -0.0000
vn -0.0000 -1.0000 -0.0000
vn -1.0000 -0.0000 -0.0000
vt 1.000000 0.000000
vt 1.000000 1.000000
vt 0.000000 1.000000
vt 0.000000 0.000000
s 1
usemtl white
f 307/39/57 281/39/57 297/39/57 298/39/57
f 302/39/58 303/40/58 304/41/58 301/42/58
f 309/39/59 308/40/59 307/41/59 310/42/59
f 290/41/60 282/41/60 281/42/60 289/42/60
f 295/39/60 287/39/60 288/40/60 296/40/60
f 298/39/56 297/39/56 299/42/56 300/42/56
f 305/40/58 301/40/58 304/41/58 306/41/58
f 309/39/60 285/39/60 283/40/60 308/40/60
f 300/42/59 310/42/59 307/39/59 298/39/59
f 303/40/55 286/40/55 288/41/55 304/41/55
f 302/39/60 284/39/60 286/40/60 303/40/60
f 301/42/57 282/42/57 284/39/57 302/39/57
f 300/42/55 299/42/55 287/42/55 310/42/55
f 308/40/57 283/40/57 281/41/57 307/41/57
f 310/42/55 287/42/55 285/39/55 309/39/55
f 287/42/57 299/39/57 306/40/57 304/41/57
f 299/42/60 297/39/60 305/40/60 306/41/60
f 311/42/55 312/39/55 301/40/55 305/41/55
usemtl Mat.1
f 291/39/55 292/40/55 290/41/55 289/42/55
f 293/39/56 294/40/56 292/41/56 291/42/56
f 295/39/57 296/40/57 294/41/57 293/42/57
f 292/40/58 284/40/58 282/41/58 290/41/58
f 289/42/59 281/42/59 283/39/59 291/39/59
f 294/40/58 286/40/58 284/41/58 292/41/58
f 291/42/59 283/42/59 285/39/59 293/39/59
f 296/40/58 288/40/58 286/41/58 294/41/58
f 293/42/59 285/42/59 287/39/59 295/39/59
o Book_9
v -50.919212 5.560991 -29.431740
v -50.919212 8.841242 -29.431740
v -48.087017 5.560991 -29.431740
v -48.087017 8.841242 -29.431740
v -48.087017 5.560991 -29.933395
v -48.087017 8.841242 -29.933395
v -50.919212 5.560991 -29.933395
v -50.919212 8.841242 -29.933395
v -50.919212 5.560991 -29.341740
v -50.919212 8.841242 -29.341740
v -47.997017 5.560991 -29.341740
v -47.997017 8.841242 -29.341740
v -47.997017 5.560991 -30.023396
v -47.997017 8.841242 -30.023396
v -50.919212 5.560991 -30.023396
v -50.919212 8.841242 -30.023396
v -50.951279 5.560991 -29.431740
v -50.951279 5.578991 -29.431740
v -50.951279 5.560991 -29.933395
v -50.951279 5.578991 -29.933395
v -50.919212 8.823242 -29.431740
v -48.087017 8.823242 -29.431740
v -48.087017 8.823242 -29.933395
v -50.919212 8.823242 -29.933395
v -50.951279 8.823242 -29.431740
v -50.951279 8.823242 -29.933395
v -50.919212 5.578991 -29.431740
v -48.087017 5.578991 -29.431740
v -48.087017 5.578991 -29.933395
v -50.919212 5.578991 -29.933395
v -50.951279 5.578991 -29.431740
v -50.919212 5.578991 -29.431740
vn -0.0000 -0.0000 1.0000
vn 1.0000 -0.0000 -0.0000
vn -0.0000 -0.0000 -1.0000
vn -0.0000 1.0000 -0.0000
vn -0.0000 -1.0000 -0.0000
vn -1.0000 -0.0000 -0.0000
vt 1.000000 0.000000
vt 1.000000 1.000000
vt 0.000000 1.000000
vt 0.000000 0.000000
s 1
usemtl white
f 339/43/63 313/43/63 329/43/63 330/43/63
f 334/43/64 335/44/64 336/45/64 333/46/64
f 341/43/65 340/44/65 339/45/65 342/46/65
f 322/45/66 314/45/66 313/46/66 321/46/66
f 327/43/66 319/43/66 320/44/66 328/44/66
f 330/43/62 329/43/62 331/46/62 332/46/62
f 337/44/64 333/44/64 336/45/64 338/45/64
f 341/43/66 317/43/66 315/44/66 340/44/66
f 332/46/65 342/46/65 339/43/65 330/43/65
f 335/44/61 318/44/61 320/45/61 336/45/61
f 334/43/66 316/43/66 318/44/66 335/44/66
f 333/46/63 314/46/63 316/43/63 334/43/63
f 332/46/61 331/46/61 319/46/61 342/46/61
f 340/44/63 315/44/63 313/45/63 339/45/63
f 342/46/61 319/46/61 317/43/61 341/43/61
f 319/46/63 331/43/63 338/44/63 336/45/63
f 331/46/66 329/43/66 337/44/66 338/45/66
f 343/46/61 344/43/61 333/44/61 337/45/61
usemtl Blue
f 323/43/61 324/44/61 322/45/61 321/46/61
f 325/43/62 326/44/62 324/45/62 323/46/62
f 327/43/63 328/44/63 326/45/63 325/46/63
f 324/44/64 316/44/64 314/45/64 322/45/64
f 321/46/65 313/46/65 315/43/65 323/43/65
f 326/44/64 318/44/64 316/45/64 324/45/64
f 323/46/65 315/46/65 317/43/65 325/43/65
f 328/44/64 320/44/64 318/45/64 326/45/64
f 325/46/65 317/46/65 319/43/65 327/43/65
o Book_8
v -51.102264 5.560991 -28.671074
v -51.102264 9.113463 -28.671074
v -48.270069 5.560991 -28.604536
v -48.270069 9.113463 -28.604536
v -48.270069 5.560991 -29.106192
v -48.270069 9.113463 -29.106192
v -51.102264 5.560991 -29.032999
v -51.102264 9.113463 -29.032999
v -51.102264 5.560991 -28.581074
v -51.102264 9.113463 -28.581074
v -48.180069 5.560991 -28.514536
v -48.180069 9.113463 -28.514536
v -48.180069 5.560991 -29.196192
v -48.180069 9.113463 -29.196192
v -51.102264 5.560991 -29.122999
v -51.102264 9.113463 -29.122999
v -51.134331 5.560991 -28.671074
v -51.134331 5.578991 -28.671074
v -51.134331 5.560991 -29.032999
v -51.134331 5.578991 -29.032999
v -51.102264 9.095463 -28.671074
v -48.270069 9.095463 -28.604536
v -48.270069 9.095463 -29.106192
v -51.102264 9.095463 -29.032999
v -51.134331 9.095463 -28.671074
v -51.134331 9.095463 -29.032999
v -51.102264 5.578991 -28.671074
v -48.270069 5.578991 -28.604536
v -48.270069 5.578991 -29.106192
v -51.102264 5.578991 -29.032999
v -51.134331 5.578991 -28.671074
v -51.102264 5.578991 -28.671074
vn -0.0228 -0.0000 0.9997
vn 1.0000 -0.0000 -0.0000
vn -0.0250 -0.0000 -0.9997
vn -0.0000 -0.0000 -1.0000
vn -0.0000 1.0000 -0.0000
vn -0.0000 -1.0000 -0.0000
vn -1.0000 -0.0000 -0.0000
vn 0.0258 -0.0000 0.9997
vn 0.0235 -0.0000 -0.9997
vn -0.0000 -0.0000 1.0000
vt 1.000000 0.000000
vt 1.000000 1.000000
vt 0.000000 1.000000
vt 0.000000 0.000000
s 1
usemtl white
f 371/47/70 345/47/70 361/47/70 362/47/70
f 366/47/71 367/48/71 368/49/71 365/50/71
f 373/47/72 372/48/72 371/49/72 374/50/72
f 354/49/73 346/49/73 345/50/73 353/50/73
f 359/47/73 351/47/73 352/48/73 360/48/73
f 362/47/68 361/47/68 363/50/68 364/50/68
f 369/48/71 365/48/71 368/49/71 370/49/71
f 373/47/73 349/47/73 347/48/73 372/48/73
f 364/50/72 374/50/72 371/47/72 362/47/72
f 367/48/74 350/48/74 352/49/74 368/49/74
f 366/47/73 348/47/73 350/48/73 367/48/73
f 365/50/75 346/50/75 348/47/75 366/47/75
f 364/50/76 363/50/76 351/50/76 374/50/76
f 372/48/75 347/48/75 345/49/75 371/49/75
f 374/50/74 351/50/74 349/47/74 373/47/74
f 351/50/70 363/47/70 370/48/70 368/49/70
f 363/50/73 361/47/73 369/48/73 370/49/73
f 375/50/76 376/47/76 365/48/76 369/49/76
usemtl Mat.5
f 355/47/67 356/48/67 354/49/67 353/50/67
f 357/47/68 358/48/68 356/49/68 355/50/68
f 359/47/69 360/48/69 358/49/69 357/50/69
f 356/48/71 348/48/71 346/49/71 354/49/71
f 353/50/72 345/50/72 347/47/72 355/47/72
f 358/48/71 350/48/71 348/49/71 356/49/71
f 355/50/72 347/50/72 349/47/72 357/47/72
f 360/48/71 352/48/71 350/49/71 358/49/71
f 357/50/72 349/50/72 351/47/72 359/47/72
