# Blender 4.5.3 LTS
# www.blender.org
mtllib 书2.mtl
o Book
v 3.629121 -14.937805 -149.808121
v 6.290405 -14.937804 -151.725845
v 2.210363 -14.937804 -151.776993
v 4.871647 -14.937803 -153.694702
v 2.210363 -14.436149 -151.776993
v 4.871647 -14.436148 -153.694702
v 3.629121 -14.436150 -149.808121
v 6.290405 -14.436149 -151.725845
v 3.629121 -15.027805 -149.808121
v 6.290405 -15.027804 -151.725845
v 2.157747 -15.027804 -151.850006
v 4.819031 -15.027803 -153.767731
v 2.157747 -14.346148 -151.850006
v 4.819031 -14.346148 -153.767715
v 3.629121 -14.346149 -149.808121
v 6.290405 -14.346148 -151.725845
v 3.362606 -14.436150 -150.208771
v 3.662471 -14.937805 -149.792633
v 3.348002 -14.436150 -150.198242
v 3.662471 -14.436150 -149.792633
v 6.275802 -14.937804 -151.715317
v 4.857044 -14.937803 -153.684189
v 4.857044 -14.436148 -153.684189
v 6.275802 -14.436149 -151.715317
v 6.294548 -14.937804 -151.689301
v 6.294548 -14.436149 -151.689301
v 3.643724 -14.937805 -149.818649
v 2.224967 -14.937804 -151.787521
v 2.224967 -14.436149 -151.787521
v 3.643724 -14.436150 -149.818649
v 3.291213 -14.346149 -150.277054
v 3.291213 -14.436150 -150.277054
v 3.305817 -14.436150 -150.287582
v 3.305817 -14.937805 -150.287582
v 3.291213 -14.937805 -150.277054
v 3.291213 -15.027805 -150.277054
v 5.952497 -15.027804 -152.194763
v 5.952497 -14.937804 -152.194763
v 5.937894 -14.937804 -152.184250
v 5.937894 -14.436148 -152.184250
v 5.952497 -14.436148 -152.194763
v 5.952497 -14.346148 -152.194763
v 3.348002 -14.346149 -150.198242
v 6.009286 -14.346148 -152.115952
v 6.009286 -14.436148 -152.115952
v 5.994683 -14.436148 -152.105438
v 5.994683 -14.937804 -152.105438
v 6.009286 -14.937804 -152.115952
v 6.009286 -15.027804 -152.115952
v 3.348002 -15.027805 -150.198242
v 3.348002 -14.937805 -150.198242
v 3.362606 -14.937805 -150.208771
v 3.348002 -14.454149 -150.198242
v 3.333399 -14.454149 -150.187729
v 3.276610 -14.328149 -150.266525
v 3.276610 -14.454149 -150.266525
v 3.291213 -14.454149 -150.277054
v 3.291213 -14.919806 -150.277054
v 3.276610 -14.919806 -150.266541
v 3.276610 -15.045805 -150.266541
v 5.967101 -15.045804 -152.205292
v 5.967101 -14.919804 -152.205292
v 5.952497 -14.919804 -152.194763
v 5.952497 -14.454148 -152.194763
v 5.967101 -14.454148 -152.205292
v 5.967101 -14.328148 -152.205292
v 3.333399 -14.328150 -150.187729
v 6.023890 -14.328148 -152.126480
v 6.023890 -14.454148 -152.126480
v 6.009286 -14.454148 -152.115952
v 6.009286 -14.919805 -152.115952
v 6.023890 -14.919805 -152.126480
v 6.023890 -15.045804 -152.126480
v 3.333399 -15.045805 -150.187729
v 3.333399 -14.919806 -150.187729
v 3.348002 -14.919806 -150.198242
vn -0.0000 -1.0000 -0.0000
vn -0.5846 -0.0000 -0.8113
vn -0.0000 1.0000 -0.0000
vn -0.8113 -0.0000 0.5846
vn 0.8113 -0.0000 -0.5846
vn 0.5846 -0.0000 0.8113
vt 0.197794 0.000000
vt 1.000000 0.000000
vt 1.000000 1.000000
vt 0.197794 1.000000
vt 0.000000 1.000000
vt 0.000000 0.000000
vt 0.802206 0.000000
vt 0.802206 1.000000
vt 0.164553 0.000000
vt 0.835447 0.000000
vt 0.835447 0.000000
vt 0.164553 1.000000
vt 0.835447 1.000000
vt 0.835447 1.000000
s 1
usemtl white
f 39/1/5 22/2/5 23/3/5 40/4/5
f 33/1/4 29/2/4 28/3/4 34/4/4
f 10/5/6 2/5/6 1/6/6 9/6/6
f 15/2/6 7/2/6 8/3/6 16/3/6
f 25/3/5 21/3/5 24/5/5 26/5/5
f 29/2/6 5/2/6 3/3/6 28/3/6
f 20/6/4 30/6/4 27/2/4 18/2/4
f 40/4/1 23/3/1 6/3/1 41/4/1
f 22/2/6 4/2/6 6/3/6 23/3/6
f 39/1/3 38/1/3 4/2/3 22/2/3
f 34/4/3 28/3/3 3/3/3 35/4/3
f 33/1/1 32/1/1 5/2/1 29/2/1
f 18/6/1 27/2/1 21/3/1 25/5/1
f 17/9/1 30/6/1 7/6/1 19/9/1
f 52/12/4 27/5/4 30/6/4 17/9/4
f 51/12/3 1/5/3 27/5/3 52/12/3
f 47/9/3 21/6/3 2/6/3 48/9/3
f 46/12/5 24/5/5 21/6/5 47/9/5
f 45/12/1 8/5/1 24/5/1 46/12/1
f 26/6/3 24/2/3 30/3/3 20/5/3
f 26/6/6 20/2/6 18/3/6 25/5/6
usemtl Mat.3
f 75/9/4 59/1/4 60/1/4 74/9/4
f 67/10/4 55/7/4 56/7/4 54/11/4
f 53/9/4 57/1/4 58/4/4 76/12/4
f 76/12/3 58/4/3 59/4/3 75/12/3
f 54/9/1 56/1/1 57/1/1 53/9/1
f 68/13/3 66/8/3 55/7/3 67/10/3
f 69/14/5 65/8/5 66/8/5 68/13/5
f 70/12/1 64/4/1 65/4/1 69/12/1
f 71/9/5 63/1/5 64/4/5 70/12/5
f 72/9/3 62/1/3 63/1/3 71/9/3
f 73/12/5 61/4/5 62/4/5 72/12/5
f 74/9/1 60/1/1 61/4/1 73/12/1
f 59/1/2 35/1/2 36/1/2 60/1/2
f 74/9/6 50/9/6 51/9/6 75/9/6
f 55/7/2 31/7/2 32/7/2 56/7/2
f 54/11/6 19/11/6 43/10/6 67/10/6
f 57/1/2 33/1/2 34/4/2 58/4/2
f 76/12/6 52/12/6 17/9/6 53/9/6
f 58/4/2 34/4/2 35/4/2 59/4/2
f 75/12/6 51/12/6 52/12/6 76/12/6
f 56/1/2 32/1/2 33/1/2 57/1/2
f 53/9/6 17/9/6 19/9/6 54/9/6
f 66/8/2 42/8/2 31/7/2 55/7/2
f 67/10/6 43/10/6 44/13/6 68/13/6
f 65/8/2 41/8/2 42/8/2 66/8/2
f 68/13/6 44/13/6 45/14/6 69/14/6
f 64/4/2 40/4/2 41/4/2 65/4/2
f 69/12/6 45/12/6 46/12/6 70/12/6
f 63/1/2 39/1/2 40/4/2 64/4/2
f 70/12/6 46/12/6 47/9/6 71/9/6
f 62/1/2 38/1/2 39/1/2 63/1/2
f 71/9/6 47/9/6 48/9/6 72/9/6
f 61/4/2 37/4/2 38/4/2 62/4/2
f 72/12/6 48/12/6 49/12/6 73/12/6
f 60/1/2 36/1/2 37/4/2 61/4/2
f 73/12/6 49/12/6 50/9/6 74/9/6
usemtl Mat.5
f 36/1/1 11/2/1 12/3/1 37/4/1
f 13/2/2 14/3/2 12/5/2 11/6/2
f 31/7/3 42/8/3 14/5/3 13/6/3
f 37/4/5 12/3/5 4/3/5 38/4/5
f 36/1/4 35/1/4 3/2/4 11/2/4
f 14/3/5 6/3/5 4/5/5 12/5/5
f 11/6/4 3/6/4 5/2/4 13/2/4
f 42/8/5 41/8/5 6/5/5 14/5/5
f 31/7/4 13/6/4 5/6/4 32/7/4
f 19/11/4 7/2/4 15/2/4 43/10/4
f 50/9/4 9/6/4 1/6/4 51/9/4
f 49/12/1 10/5/1 9/6/1 50/9/1
f 48/12/5 2/5/5 10/5/5 49/12/5
f 44/13/5 16/3/5 8/3/5 45/14/5
f 43/10/3 15/2/3 16/3/3 44/13/3
