# Blender 4.5.3 LTS
# www.blender.org
mtllib 保险柜.mtl
o Smart_Bank_Safe_Deposite_Box
v -8.654709 -15.767059 -117.083969
v -8.654709 -12.661691 -117.083969
v -4.905095 -15.767059 -117.083969
v -4.905095 -12.661691 -117.083969
v -4.905095 -15.767058 -121.862701
v -4.905095 -12.661690 -121.862701
v -8.654709 -15.767058 -121.862701
v -8.654709 -12.661690 -121.862701
v -4.905095 -15.332899 -117.466835
v -4.905095 -13.095851 -117.466835
v -4.905095 -15.332898 -121.479836
v -4.905095 -13.095850 -121.479836
v -8.419130 -15.332899 -117.466835
v -8.419130 -13.095851 -117.466835
v -8.419130 -15.332898 -121.479836
v -8.419130 -13.095850 -121.479836
vn -0.0000 -0.0000 1.0000
vn 1.0000 -0.0000 -0.0000
vn -0.0000 -0.0000 -1.0000
vn -1.0000 -0.0000 -0.0000
vn -0.0000 1.0000 -0.0000
vn -0.0000 -1.0000 -0.0000
vt 1.000000 0.000000
vt 1.000000 1.000000
vt 0.000000 1.000000
vt 0.000000 0.000000
vt 0.940000 0.042857
vt 0.940000 0.957143
vt 0.060000 0.957143
vt 0.060000 0.042857
s 1
usemtl Mat.8
f 3/1/1 4/2/1 2/3/1 1/4/1
f 15/5/2 16/6/2 14/7/2 13/8/2
f 7/1/3 8/2/3 6/3/3 5/4/3
f 1/1/4 2/2/4 8/3/4 7/4/4
f 4/1/5 6/2/5 8/3/5 2/4/5
f 5/1/6 3/2/6 1/3/6 7/4/6
f 10/7/2 4/3/2 3/4/2 9/8/2
f 12/6/2 6/2/2 4/3/2 10/7/2
f 11/5/2 5/1/2 6/2/2 12/6/2
f 9/8/2 3/4/2 5/1/2 11/5/2
f 14/7/3 10/7/3 9/8/3 13/8/3
f 16/6/6 12/6/6 10/7/6 14/7/6
f 15/5/1 11/5/1 12/6/1 16/6/1
f 13/8/5 9/8/5 11/5/5 15/5/5
