# Blender 4.5.3 LTS
# www.blender.org
mtllib sepbook.mtl
o Book_2
v 2.593324 -15.655881 -150.532562
v 5.873574 -15.655882 -150.532562
v 2.593324 -15.655881 -152.959351
v 5.873575 -15.655881 -152.959351
v 2.593324 -15.154224 -152.959351
v 5.873575 -15.154225 -152.959351
v 2.593324 -15.154225 -150.532562
v 5.873574 -15.154225 -150.532562
v 2.593324 -15.745881 -150.532562
v 5.873574 -15.745881 -150.532562
v 2.593324 -15.745881 -153.049347
v 5.873575 -15.745881 -153.049347
v 2.593324 -15.064225 -153.049347
v 5.873575 -15.064225 -153.049347
v 2.593324 -15.064225 -150.532562
v 5.873574 -15.064225 -150.532562
v 2.611324 -15.154225 -151.013412
v 2.611324 -15.655881 -150.500488
v 2.593324 -15.154225 -151.013412
v 2.611324 -15.154225 -150.500488
v 5.855575 -15.655882 -150.532562
v 5.855575 -15.655881 -152.959351
v 5.855575 -15.154225 -152.959351
v 5.855575 -15.154225 -150.532562
v 5.855575 -15.655882 -150.500488
v 5.855575 -15.154225 -150.500488
v 2.611324 -15.655881 -150.532562
v 2.611325 -15.655881 -152.959351
v 2.611325 -15.154224 -152.959351
v 2.611324 -15.154225 -150.532562
v 2.593324 -15.064225 -151.110550
v 2.593324 -15.154225 -151.110550
v 2.611324 -15.154225 -151.110550
v 2.611324 -15.655881 -151.110550
v 2.593324 -15.655881 -151.110550
v 2.593324 -15.745881 -151.110550
v 5.873575 -15.745881 -151.110550
v 5.873575 -15.655882 -151.110550
v 5.855575 -15.655882 -151.110550
v 5.855575 -15.154225 -151.110550
v 5.873575 -15.154225 -151.110550
v 5.873575 -15.064225 -151.110550
v 2.593324 -15.064225 -151.013412
v 5.873575 -15.064225 -151.013412
v 5.873575 -15.154225 -151.013412
v 5.855575 -15.154225 -151.013412
v 5.855575 -15.655882 -151.013412
v 5.873575 -15.655882 -151.013412
v 5.873575 -15.745881 -151.013412
v 2.593324 -15.745881 -151.013412
v 2.593324 -15.655881 -151.013412
v 2.611324 -15.655881 -151.013412
v 2.593324 -15.172225 -151.013412
v 2.575324 -15.172225 -151.013412
v 2.575324 -15.046225 -151.110550
v 2.575324 -15.172225 -151.110550
v 2.593324 -15.172225 -151.110550
v 2.593324 -15.637881 -151.110550
v 2.575324 -15.637881 -151.110550
v 2.575324 -15.763881 -151.110550
v 5.891574 -15.763882 -151.110550
v 5.891574 -15.637881 -151.110550
v 5.873575 -15.637881 -151.110550
v 5.873575 -15.172225 -151.110550
v 5.891574 -15.172225 -151.110550
v 5.891574 -15.046226 -151.110550
v 2.575324 -15.046225 -151.013412
v 5.891574 -15.046226 -151.013412
v 5.891574 -15.172225 -151.013412
v 5.873575 -15.172225 -151.013412
v 5.873575 -15.637881 -151.013412
v 5.891574 -15.637881 -151.013412
v 5.891574 -15.763882 -151.013412
v 2.575324 -15.763881 -151.013412
v 2.575324 -15.637881 -151.013412
v 2.593324 -15.637881 -151.013412
vn -0.0000 -1.0000 -0.0000
vn -0.0000 -0.0000 -1.0000
vn -0.0000 1.0000 -0.0000
vn -1.0000 -0.0000 -0.0000
vn 1.0000 -0.0000 -0.0000
vn -0.0000 -0.0000 1.0000
vt 0.197794 0.000000
vt 1.000000 0.000000
vt 1.000000 1.000000
vt 0.197794 1.000000
vt 0.000000 1.000000
vt 0.000000 0.000000
vt 0.802206 0.000000
vt 0.802206 1.000000
vt 0.164553 0.000000
vt 0.835447 0.000000
vt 0.835447 0.000000
vt 0.164553 1.000000
vt 0.835447 1.000000
vt 0.835447 1.000000
s 1
usemtl white
f 39/1/5 22/2/5 23/3/5 40/4/5
f 33/1/4 29/2/4 28/3/4 34/4/4
f 10/5/6 2/5/6 1/6/6 9/6/6
f 15/2/6 7/2/6 8/3/6 16/3/6
f 25/3/5 21/3/5 24/5/5 26/5/5
f 29/2/6 5/2/6 3/3/6 28/3/6
f 20/6/4 30/6/4 27/2/4 18/2/4
f 40/4/1 23/3/1 6/3/1 41/4/1
f 22/2/6 4/2/6 6/3/6 23/3/6
f 39/1/3 38/1/3 4/2/3 22/2/3
f 34/4/3 28/3/3 3/3/3 35/4/3
f 33/1/1 32/1/1 5/2/1 29/2/1
f 18/6/1 27/2/1 21/3/1 25/5/1
f 17/9/1 30/6/1 7/6/1 19/9/1
f 52/12/4 27/5/4 30/6/4 17/9/4
f 51/12/3 1/5/3 27/5/3 52/12/3
f 47/9/3 21/6/3 2/6/3 48/9/3
f 46/12/5 24/5/5 21/6/5 47/9/5
f 45/12/1 8/5/1 24/5/1 46/12/1
f 26/6/3 24/2/3 30/3/3 20/5/3
f 26/6/6 20/2/6 18/3/6 25/5/6
usemtl Mat.3
f 75/9/4 59/1/4 60/1/4 74/9/4
f 67/10/4 55/7/4 56/7/4 54/11/4
f 53/9/4 57/1/4 58/4/4 76/12/4
f 76/12/3 58/4/3 59/4/3 75/12/3
f 54/9/1 56/1/1 57/1/1 53/9/1
f 68/13/3 66/8/3 55/7/3 67/10/3
f 69/14/5 65/8/5 66/8/5 68/13/5
f 70/12/1 64/4/1 65/4/1 69/12/1
f 71/9/5 63/1/5 64/4/5 70/12/5
f 72/9/3 62/1/3 63/1/3 71/9/3
f 73/12/5 61/4/5 62/4/5 72/12/5
f 74/9/1 60/1/1 61/4/1 73/12/1
f 59/1/2 35/1/2 36/1/2 60/1/2
f 74/9/6 50/9/6 51/9/6 75/9/6
f 55/7/2 31/7/2 32/7/2 56/7/2
f 54/11/6 19/11/6 43/10/6 67/10/6
f 57/1/2 33/1/2 34/4/2 58/4/2
f 76/12/6 52/12/6 17/9/6 53/9/6
f 58/4/2 34/4/2 35/4/2 59/4/2
f 75/12/6 51/12/6 52/12/6 76/12/6
f 56/1/2 32/1/2 33/1/2 57/1/2
f 53/9/6 17/9/6 19/9/6 54/9/6
f 66/8/2 42/8/2 31/7/2 55/7/2
f 67/10/6 43/10/6 44/13/6 68/13/6
f 65/8/2 41/8/2 42/8/2 66/8/2
f 68/13/6 44/13/6 45/14/6 69/14/6
f 64/4/2 40/4/2 41/4/2 65/4/2
f 69/12/6 45/12/6 46/12/6 70/12/6
f 63/1/2 39/1/2 40/4/2 64/4/2
f 70/12/6 46/12/6 47/9/6 71/9/6
f 62/1/2 38/1/2 39/1/2 63/1/2
f 71/9/6 47/9/6 48/9/6 72/9/6
f 61/4/2 37/4/2 38/4/2 62/4/2
f 72/12/6 48/12/6 49/12/6 73/12/6
f 60/1/2 36/1/2 37/4/2 61/4/2
f 73/12/6 49/12/6 50/9/6 74/9/6
usemtl Mat
f 36/1/1 11/2/1 12/3/1 37/4/1
f 13/2/2 14/3/2 12/5/2 11/6/2
f 31/7/3 42/8/3 14/5/3 13/6/3
f 37/4/5 12/3/5 4/3/5 38/4/5
f 36/1/4 35/1/4 3/2/4 11/2/4
f 14/3/5 6/3/5 4/5/5 12/5/5
f 11/6/4 3/6/4 5/2/4 13/2/4
f 42/8/5 41/8/5 6/5/5 14/5/5
f 31/7/4 13/6/4 5/6/4 32/7/4
f 19/11/4 7/2/4 15/2/4 43/10/4
f 50/9/4 9/6/4 1/6/4 51/9/4
f 49/12/1 10/5/1 9/6/1 50/9/1
f 48/12/5 2/5/5 10/5/5 49/12/5
f 44/13/5 16/3/5 8/3/5 45/14/5
f 43/10/3 15/2/3 16/3/3 44/13/3
o Book
v 3.629121 -14.937805 -149.808121
v 6.290405 -14.937804 -151.725845
v 2.210363 -14.937804 -151.776993
v 4.871647 -14.937803 -153.694702
v 2.210363 -14.436149 -151.776993
v 4.871647 -14.436148 -153.694702
v 3.629121 -14.436150 -149.808121
v 6.290405 -14.436149 -151.725845
v 3.629121 -15.027805 -149.808121
v 6.290405 -15.027804 -151.725845
v 2.157747 -15.027804 -151.850006
v 4.819031 -15.027803 -153.767731
v 2.157747 -14.346148 -151.850006
v 4.819031 -14.346148 -153.767715
v 3.629121 -14.346149 -149.808121
v 6.290405 -14.346148 -151.725845
v 3.362606 -14.436150 -150.208771
v 3.662471 -14.937805 -149.792633
v 3.348002 -14.436150 -150.198242
v 3.662471 -14.436150 -149.792633
v 6.275802 -14.937804 -151.715317
v 4.857044 -14.937803 -153.684189
v 4.857044 -14.436148 -153.684189
v 6.275802 -14.436149 -151.715317
v 6.294548 -14.937804 -151.689301
v 6.294548 -14.436149 -151.689301
v 3.643724 -14.937805 -149.818649
v 2.224967 -14.937804 -151.787521
v 2.224967 -14.436149 -151.787521
v 3.643724 -14.436150 -149.818649
v 3.291213 -14.346149 -150.277054
v 3.291213 -14.436150 -150.277054
v 3.305817 -14.436150 -150.287582
v 3.305817 -14.937805 -150.287582
v 3.291213 -14.937805 -150.277054
v 3.291213 -15.027805 -150.277054
v 5.952497 -15.027804 -152.194763
v 5.952497 -14.937804 -152.194763
v 5.937894 -14.937804 -152.184250
v 5.937894 -14.436148 -152.184250
v 5.952497 -14.436148 -152.194763
v 5.952497 -14.346148 -152.194763
v 3.348002 -14.346149 -150.198242
v 6.009286 -14.346148 -152.115952
v 6.009286 -14.436148 -152.115952
v 5.994683 -14.436148 -152.105438
v 5.994683 -14.937804 -152.105438
v 6.009286 -14.937804 -152.115952
v 6.009286 -15.027804 -152.115952
v 3.348002 -15.027805 -150.198242
v 3.348002 -14.937805 -150.198242
v 3.362606 -14.937805 -150.208771
v 3.348002 -14.454149 -150.198242
v 3.333399 -14.454149 -150.187729
v 3.276610 -14.328149 -150.266525
v 3.276610 -14.454149 -150.266525
v 3.291213 -14.454149 -150.277054
v 3.291213 -14.919806 -150.277054
v 3.276610 -14.919806 -150.266541
v 3.276610 -15.045805 -150.266541
v 5.967101 -15.045804 -152.205292
v 5.967101 -14.919804 -152.205292
v 5.952497 -14.919804 -152.194763
v 5.952497 -14.454148 -152.194763
v 5.967101 -14.454148 -152.205292
v 5.967101 -14.328148 -152.205292
v 3.333399 -14.328150 -150.187729
v 6.023890 -14.328148 -152.126480
v 6.023890 -14.454148 -152.126480
v 6.009286 -14.454148 -152.115952
v 6.009286 -14.919805 -152.115952
v 6.023890 -14.919805 -152.126480
v 6.023890 -15.045804 -152.126480
v 3.333399 -15.045805 -150.187729
v 3.333399 -14.919806 -150.187729
v 3.348002 -14.919806 -150.198242
vn -0.0000 -1.0000 -0.0000
vn -0.5846 -0.0000 -0.8113
vn -0.0000 1.0000 -0.0000
vn -0.8113 -0.0000 0.5846
vn 0.8113 -0.0000 -0.5846
vn 0.5846 -0.0000 0.8113
vt 0.197794 0.000000
vt 1.000000 0.000000
vt 1.000000 1.000000
vt 0.197794 1.000000
vt 0.000000 1.000000
vt 0.000000 0.000000
vt 0.802206 0.000000
vt 0.802206 1.000000
vt 0.164553 0.000000
vt 0.835447 0.000000
vt 0.835447 0.000000
vt 0.164553 1.000000
vt 0.835447 1.000000
vt 0.835447 1.000000
s 1
usemtl white
f 115/15/11 98/16/11 99/17/11 116/18/11
f 109/15/10 105/16/10 104/17/10 110/18/10
f 86/19/12 78/19/12 77/20/12 85/20/12
f 91/16/12 83/16/12 84/17/12 92/17/12
f 101/17/11 97/17/11 100/19/11 102/19/11
f 105/16/12 81/16/12 79/17/12 104/17/12
f 96/20/10 106/20/10 103/16/10 94/16/10
f 116/18/7 99/17/7 82/17/7 117/18/7
f 98/16/12 80/16/12 82/17/12 99/17/12
f 115/15/9 114/15/9 80/16/9 98/16/9
f 110/18/9 104/17/9 79/17/9 111/18/9
f 109/15/7 108/15/7 81/16/7 105/16/7
f 94/20/7 103/16/7 97/17/7 101/19/7
f 93/23/7 106/20/7 83/20/7 95/23/7
f 128/26/10 103/19/10 106/20/10 93/23/10
f 127/26/9 77/19/9 103/19/9 128/26/9
f 123/23/9 97/20/9 78/20/9 124/23/9
f 122/26/11 100/19/11 97/20/11 123/23/11
f 121/26/7 84/19/7 100/19/7 122/26/7
f 102/20/9 100/16/9 106/17/9 96/19/9
f 102/20/12 96/16/12 94/17/12 101/19/12
usemtl Mat.3
f 151/23/10 135/15/10 136/15/10 150/23/10
f 143/24/10 131/21/10 132/21/10 130/25/10
f 129/23/10 133/15/10 134/18/10 152/26/10
f 152/26/9 134/18/9 135/18/9 151/26/9
f 130/23/7 132/15/7 133/15/7 129/23/7
f 144/27/9 142/22/9 131/21/9 143/24/9
f 145/28/11 141/22/11 142/22/11 144/27/11
f 146/26/7 140/18/7 141/18/7 145/26/7
f 147/23/11 139/15/11 140/18/11 146/26/11
f 148/23/9 138/15/9 139/15/9 147/23/9
f 149/26/11 137/18/11 138/18/11 148/26/11
f 150/23/7 136/15/7 137/18/7 149/26/7
f 135/15/8 111/15/8 112/15/8 136/15/8
f 150/23/12 126/23/12 127/23/12 151/23/12
f 131/21/8 107/21/8 108/21/8 132/21/8
f 130/25/12 95/25/12 119/24/12 143/24/12
f 133/15/8 109/15/8 110/18/8 134/18/8
f 152/26/12 128/26/12 93/23/12 129/23/12
f 134/18/8 110/18/8 111/18/8 135/18/8
f 151/26/12 127/26/12 128/26/12 152/26/12
f 132/15/8 108/15/8 109/15/8 133/15/8
f 129/23/12 93/23/12 95/23/12 130/23/12
f 142/22/8 118/22/8 107/21/8 131/21/8
f 143/24/12 119/24/12 120/27/12 144/27/12
f 141/22/8 117/22/8 118/22/8 142/22/8
f 144/27/12 120/27/12 121/28/12 145/28/12
f 140/18/8 116/18/8 117/18/8 141/18/8
f 145/26/12 121/26/12 122/26/12 146/26/12
f 139/15/8 115/15/8 116/18/8 140/18/8
f 146/26/12 122/26/12 123/23/12 147/23/12
f 138/15/8 114/15/8 115/15/8 139/15/8
f 147/23/12 123/23/12 124/23/12 148/23/12
f 137/18/8 113/18/8 114/18/8 138/18/8
f 148/26/12 124/26/12 125/26/12 149/26/12
f 136/15/8 112/15/8 113/18/8 137/18/8
f 149/26/12 125/26/12 126/23/12 150/23/12
usemtl Mat.5
f 112/15/7 87/16/7 88/17/7 113/18/7
f 89/16/8 90/17/8 88/19/8 87/20/8
f 107/21/9 118/22/9 90/19/9 89/20/9
f 113/18/11 88/17/11 80/17/11 114/18/11
f 112/15/10 111/15/10 79/16/10 87/16/10
f 90/17/11 82/17/11 80/19/11 88/19/11
f 87/20/10 79/20/10 81/16/10 89/16/10
f 118/22/11 117/22/11 82/19/11 90/19/11
f 107/21/10 89/20/10 81/20/10 108/21/10
f 95/25/10 83/16/10 91/16/10 119/24/10
f 126/23/10 85/20/10 77/20/10 127/23/10
f 125/26/7 86/19/7 85/20/7 126/23/7
f 124/26/11 78/19/11 86/19/11 125/26/11
f 120/27/11 92/17/11 84/17/11 121/28/11
f 119/24/9 91/16/9 92/17/9 120/27/9
