# Blender 4.5.3 LTS
# www.blender.org
mtllib 小柜子.mtl
o Draw01
v -2.079554 -11.706300 -108.715714
v -2.079554 -9.911020 -108.715714
v -1.952090 -11.706300 -108.715714
v -1.952090 -9.911020 -108.715714
v -1.952090 -11.706299 -112.449997
v -1.952090 -9.911019 -112.449997
v -2.079554 -11.706299 -112.449997
v -2.079554 -9.911019 -112.449997
v -1.952090 -11.619487 -108.715714
v -2.079554 -11.619487 -108.715714
v -2.079554 -11.619486 -112.449997
v -1.952090 -11.619486 -112.449997
v -1.952090 -9.911020 -108.832581
v -1.952090 -11.619487 -108.832581
v -1.952090 -11.706300 -108.832581
v -2.079554 -11.706300 -108.832581
v -2.079554 -11.619487 -108.832581
v -2.079554 -9.911020 -108.832581
v -1.952090 -9.911019 -112.322159
v -1.952090 -11.619486 -112.322159
v -1.952090 -11.706299 -112.322159
v -2.079554 -11.706299 -112.322159
v -2.079554 -11.619486 -112.322159
v -2.079554 -9.911019 -112.322159
v -8.250730 -11.706300 -108.715714
v -8.250730 -9.911020 -108.715714
v -8.250730 -11.706299 -112.449997
v -8.250730 -9.911019 -112.449997
v -8.250730 -11.619487 -108.715714
v -8.250730 -11.619486 -112.449997
v -8.250730 -11.706300 -108.832581
v -8.250730 -11.619487 -108.832581
v -8.250730 -9.911020 -108.832581
v -8.250730 -11.706299 -112.322159
v -8.250730 -11.619486 -112.322159
v -8.250730 -9.911019 -112.322159
v -1.820411 -10.542750 -110.519165
v -1.829335 -10.574426 -110.508873
v -1.853717 -10.597614 -110.501335
v -1.887022 -10.606101 -110.498581
v -1.887022 -10.606101 -110.498581
v -1.920328 -10.597614 -110.501335
v -1.944709 -10.574426 -110.508873
v -1.953633 -10.542750 -110.519165
v -1.820411 -10.511284 -110.457405
v -1.829335 -10.538229 -110.437828
v -1.853717 -10.557954 -110.423500
v -1.887022 -10.565173 -110.418251
v -1.887022 -10.565173 -110.418251
v -1.920328 -10.557954 -110.423500
v -1.944709 -10.538229 -110.437828
v -1.953633 -10.511284 -110.457405
v -1.820411 -10.462274 -110.408394
v -1.829335 -10.481851 -110.381454
v -1.853717 -10.496181 -110.361725
v -1.887022 -10.501427 -110.354507
v -1.887022 -10.501427 -110.354507
v -1.920328 -10.496181 -110.361725
v -1.944709 -10.481851 -110.381454
v -1.953633 -10.462274 -110.408394
v -1.820411 -10.400517 -110.376930
v -1.829335 -10.410810 -110.345253
v -1.853717 -10.418344 -110.322067
v -1.887022 -10.421102 -110.313576
v -1.887022 -10.421102 -110.313576
v -1.920328 -10.418344 -110.322067
v -1.944709 -10.410810 -110.345253
v -1.953633 -10.400517 -110.376930
v -1.820411 -10.332060 -110.366089
v -1.829335 -10.332060 -110.332779
v -1.853717 -10.332060 -110.308403
v -1.887022 -10.332060 -110.299477
v -1.887022 -10.332060 -110.299477
v -1.920328 -10.332060 -110.308403
v -1.944709 -10.332060 -110.332779
v -1.953633 -10.332060 -110.366089
v -1.953633 -10.332060 -110.587624
v -1.820411 -10.332060 -110.587624
v -1.953633 -10.553593 -110.587624
v -1.944709 -10.586899 -110.587624
v -1.920328 -10.611279 -110.587624
v -1.887022 -10.620204 -110.587624
v -1.887022 -10.620204 -110.587624
v -1.853717 -10.611279 -110.587624
v -1.829335 -10.586899 -110.587624
v -1.820411 -10.553593 -110.587624
v -1.953633 -10.542750 -110.656075
v -1.944709 -10.574426 -110.666367
v -1.920328 -10.597613 -110.673904
v -1.887022 -10.606101 -110.676659
v -1.887022 -10.606101 -110.676659
v -1.853717 -10.597613 -110.673904
v -1.829335 -10.574426 -110.666367
v -1.820411 -10.542750 -110.656075
v -1.953633 -10.511284 -110.717834
v -1.944709 -10.538229 -110.737411
v -1.920328 -10.557954 -110.751740
v -1.887022 -10.565173 -110.756989
v -1.887022 -10.565173 -110.756989
v -1.853717 -10.557954 -110.751740
v -1.829335 -10.538229 -110.737411
v -1.820411 -10.511284 -110.717834
v -1.953633 -10.462274 -110.766846
v -1.944709 -10.481851 -110.793785
v -1.920328 -10.496181 -110.813515
v -1.887022 -10.501427 -110.820732
v -1.887022 -10.501427 -110.820732
v -1.853717 -10.496181 -110.813515
v -1.829335 -10.481851 -110.793785
v -1.820411 -10.462274 -110.766846
v -1.953633 -10.400517 -110.798309
v -1.944709 -10.410810 -110.829987
v -1.920328 -10.418344 -110.853172
v -1.887022 -10.421102 -110.861664
v -1.887022 -10.421102 -110.861664
v -1.853717 -10.418344 -110.853172
v -1.829335 -10.410810 -110.829987
v -1.820411 -10.400517 -110.798309
v -1.953633 -10.332060 -110.809151
v -1.944709 -10.332060 -110.842461
v -1.920328 -10.332060 -110.866837
v -1.887022 -10.332060 -110.875763
v -1.887022 -10.332060 -110.875763
v -1.853717 -10.332060 -110.866837
v -1.829335 -10.332060 -110.842461
v -1.820411 -10.332060 -110.809151
v -1.953633 -10.263603 -110.798309
v -1.944709 -10.253311 -110.829987
v -1.920328 -10.245776 -110.853172
v -1.887022 -10.243019 -110.861664
v -1.887022 -10.243019 -110.861664
v -1.853717 -10.245776 -110.853172
v -1.829335 -10.253311 -110.829987
v -1.820411 -10.263603 -110.798309
v -1.953633 -10.201846 -110.766846
v -1.944709 -10.182270 -110.793785
v -1.920328 -10.167939 -110.813515
v -1.887022 -10.162694 -110.820732
v -1.887022 -10.162694 -110.820732
v -1.853717 -10.167939 -110.813515
v -1.829335 -10.182270 -110.793785
v -1.820411 -10.201846 -110.766846
v -1.953633 -10.152836 -110.717834
v -1.944709 -10.125892 -110.737411
v -1.920328 -10.106167 -110.751740
v -1.887022 -10.098948 -110.756989
v -1.887022 -10.098948 -110.756989
v -1.853717 -10.106167 -110.751740
v -1.829335 -10.125892 -110.737411
v -1.820411 -10.152836 -110.717834
v -1.953633 -10.121370 -110.656075
v -1.944709 -10.089695 -110.666367
v -1.920328 -10.066506 -110.673904
v -1.887022 -10.058020 -110.676659
v -1.887022 -10.058020 -110.676659
v -1.853717 -10.066506 -110.673904
v -1.829335 -10.089695 -110.666367
v -1.820411 -10.121370 -110.656075
v -1.953633 -10.110527 -110.587616
v -1.944709 -10.077222 -110.587616
v -1.920328 -10.052840 -110.587616
v -1.887022 -10.043917 -110.587616
v -1.887022 -10.043917 -110.587616
v -1.853717 -10.052840 -110.587616
v -1.829335 -10.077222 -110.587616
v -1.820411 -10.110527 -110.587616
v -1.953633 -10.121370 -110.519165
v -1.944709 -10.089695 -110.508873
v -1.920328 -10.066506 -110.501335
v -1.887022 -10.058020 -110.498581
v -1.887022 -10.058020 -110.498581
v -1.853717 -10.066506 -110.501335
v -1.829335 -10.089695 -110.508873
v -1.820411 -10.121370 -110.519165
v -1.953633 -10.152836 -110.457405
v -1.944709 -10.125892 -110.437828
v -1.920328 -10.106167 -110.423500
v -1.887022 -10.098948 -110.418251
v -1.887022 -10.098948 -110.418251
v -1.853717 -10.106167 -110.423500
v -1.829335 -10.125892 -110.437828
v -1.820411 -10.152836 -110.457405
v -1.953633 -10.201846 -110.408394
v -1.944709 -10.182270 -110.381454
v -1.920328 -10.167939 -110.361725
v -1.887022 -10.162694 -110.354507
v -1.887022 -10.162694 -110.354507
v -1.853717 -10.167939 -110.361725
v -1.829335 -10.182270 -110.381454
v -1.820411 -10.201846 -110.408394
v -1.953633 -10.263603 -110.376930
v -1.944709 -10.253311 -110.345253
v -1.920328 -10.245777 -110.322067
v -1.887022 -10.243019 -110.313576
v -1.887022 -10.243019 -110.313576
v -1.853717 -10.245777 -110.322067
v -1.829335 -10.253311 -110.345253
v -1.820411 -10.263603 -110.376930
vn -0.0000 -0.0000 1.0000
vn 1.0000 -0.0000 -0.0000
vn -0.0000 -0.0000 -1.0000
vn -1.0000 -0.0000 -0.0000
vn -0.0000 1.0000 -0.0000
vn -0.0000 -1.0000 -0.0000
vn 0.9915 -0.1305 -0.0000
vn 0.9915 -0.1241 0.0403
vn 0.8664 -0.4994 -0.0000
vn 0.8664 -0.4749 0.1543
vn 0.5006 -0.8657 -0.0000
vn 0.5007 -0.8233 0.2675
vn 0.2588 -0.9659 -0.0000
vn 0.2588 -0.9187 0.2985
vn -0.1796 -0.6700 0.7203
vn 0.1796 -0.6700 0.7203
vn 0.1576 -0.5593 0.8139
vn -0.1576 -0.5593 0.8139
vn -0.5006 -0.8657 -0.0000
vn -0.2588 -0.9659 -0.0000
vn -0.2588 -0.9187 0.2985
vn -0.5006 -0.8233 0.2675
vn -0.8664 -0.4994 -0.0000
vn -0.8664 -0.4749 0.1543
vn -0.9915 -0.1305 -0.0000
vn -0.9915 -0.1241 0.0403
vn 0.9915 -0.1055 0.0767
vn 0.8664 -0.4040 0.2935
vn 0.5006 -0.7003 0.5088
vn 0.2588 -0.7815 0.5678
vn 0.1435 -0.4329 0.8899
vn -0.1434 -0.4330 0.8899
vn -0.2588 -0.7815 0.5678
vn -0.5006 -0.7003 0.5088
vn -0.8664 -0.4040 0.2935
vn -0.9915 -0.1055 0.0767
vn 0.9915 -0.0767 0.1055
vn 0.8664 -0.2935 0.4040
vn 0.5006 -0.5088 0.7003
vn 0.2588 -0.5678 0.7815
vn 0.1346 -0.2951 0.9459
vn -0.1345 -0.2951 0.9459
vn -0.2588 -0.5678 0.7814
vn -0.5007 -0.5088 0.7003
vn -0.8664 -0.2935 0.4040
vn -0.9915 -0.0767 0.1055
vn 0.9915 -0.0403 0.1241
vn 0.8664 -0.1543 0.4749
vn 0.5007 -0.2675 0.8233
vn 0.2588 -0.2985 0.9187
vn 0.1296 -0.1495 0.9802
vn -0.1296 -0.1495 0.9802
vn -0.2588 -0.2985 0.9186
vn -0.5006 -0.2675 0.8233
vn -0.8664 -0.1543 0.4749
vn -0.9915 -0.0403 0.1241
vn 0.9915 -0.0000 0.1305
vn 0.8664 -0.0000 0.4994
vn -0.9915 -0.1241 -0.0403
vn -0.8664 -0.4749 -0.1543
vn -0.5007 -0.8233 -0.2675
vn -0.2588 -0.9187 -0.2985
vn -0.2141 -0.7608 0.6127
vn 0.2144 -0.7607 0.6127
vn 0.2588 -0.9187 -0.2985
vn 0.5006 -0.8233 -0.2675
vn 0.8664 -0.4749 -0.1543
vn 0.9915 -0.1241 -0.0403
vn -0.9914 -0.1056 -0.0767
vn -0.8664 -0.4040 -0.2935
vn -0.5006 -0.7003 -0.5088
vn -0.2588 -0.7815 -0.5678
vn -0.2726 -0.8242 0.4964
vn 0.2730 -0.8241 0.4964
vn 0.2588 -0.7815 -0.5678
vn 0.5006 -0.7003 -0.5088
vn 0.8664 -0.4040 -0.2935
vn 0.9915 -0.1055 -0.0767
vn -0.9915 -0.0767 -0.1055
vn -0.8664 -0.2935 -0.4040
vn -0.5006 -0.5088 -0.7003
vn -0.2588 -0.5678 -0.7815
vn -0.3833 -0.8415 0.3808
vn 0.3836 -0.8413 0.3808
vn 0.2588 -0.5678 -0.7814
vn 0.5006 -0.5088 -0.7003
vn 0.8664 -0.2935 -0.4040
vn 0.9915 -0.0767 -0.1055
vn -0.9915 -0.0403 -0.1241
vn -0.8664 -0.1543 -0.4749
vn -0.5007 -0.2675 -0.8233
vn -0.2588 -0.2985 -0.9187
vn -0.6270 -0.7230 0.2901
vn 0.6270 -0.7230 0.2901
vn 0.2588 -0.2985 -0.9187
vn 0.5006 -0.2675 -0.8233
vn 0.8664 -0.1543 -0.4749
vn 0.9915 -0.0403 -0.1241
vn -0.9915 -0.0000 -0.1305
vn -0.8664 -0.0000 -0.4994
vn -0.5006 -0.0000 -0.8657
vn -0.2588 -0.0000 -0.9659
vn -0.9630 -0.0000 0.2696
vn 0.9630 -0.0000 0.2696
vn 0.2588 -0.0000 -0.9659
vn 0.5006 -0.0000 -0.8657
vn 0.8664 -0.0000 -0.4994
vn 0.9915 -0.0000 -0.1305
vn -0.9915 0.0403 -0.1241
vn -0.8664 0.1543 -0.4749
vn -0.5006 0.2675 -0.8233
vn -0.2588 0.2985 -0.9186
vn -0.6270 0.7230 0.2901
vn 0.6268 0.7232 0.2901
vn 0.2588 0.2985 -0.9186
vn 0.5006 0.2675 -0.8233
vn 0.8664 0.1543 -0.4749
vn 0.9915 0.0403 -0.1241
vn -0.9915 0.0767 -0.1055
vn -0.8664 0.2935 -0.4040
vn -0.5006 0.5088 -0.7003
vn -0.2588 0.5678 -0.7815
vn -0.3836 0.8413 0.3808
vn 0.3832 0.8415 0.3808
vn 0.2588 0.5678 -0.7815
vn 0.5006 0.5088 -0.7003
vn 0.8664 0.2935 -0.4040
vn 0.9915 0.0767 -0.1055
vn -0.9915 0.1055 -0.0767
vn -0.8664 0.4040 -0.2935
vn -0.5006 0.7003 -0.5088
vn -0.2588 0.7815 -0.5678
vn -0.2730 0.8241 0.4964
vn 0.2727 0.8242 0.4964
vn 0.2588 0.7815 -0.5678
vn 0.5006 0.7003 -0.5088
vn 0.8664 0.4040 -0.2935
vn 0.9915 0.1055 -0.0767
vn -0.9915 0.1241 -0.0403
vn -0.8664 0.4749 -0.1543
vn -0.5006 0.8233 -0.2675
vn -0.2588 0.9187 -0.2985
vn -0.2143 0.7607 0.6127
vn 0.2143 0.7607 0.6127
vn 0.2588 0.9187 -0.2985
vn 0.5006 0.8233 -0.2675
vn 0.8664 0.4749 -0.1543
vn 0.9914 0.1241 -0.0403
vn -0.9915 0.1305 -0.0000
vn -0.8664 0.4994 -0.0000
vn -0.5007 0.8656 -0.0000
vn -0.2588 0.9659 -0.0000
vn -0.1796 0.6700 0.7203
vn 0.1796 0.6700 0.7203
vn 0.2588 0.9659 -0.0000
vn 0.5006 0.8657 -0.0000
vn 0.8664 0.4994 -0.0000
vn 0.9915 0.1305 -0.0000
vn -0.9915 0.1241 0.0403
vn -0.8664 0.4749 0.1543
vn -0.5006 0.8233 0.2675
vn -0.2588 0.9187 0.2985
vn -0.1576 0.5593 0.8139
vn 0.1576 0.5593 0.8139
vn 0.2588 0.9186 0.2985
vn 0.5006 0.8233 0.2675
vn 0.8664 0.4749 0.1543
vn 0.9914 0.1241 0.0403
vn -0.9915 0.1055 0.0767
vn -0.8664 0.4040 0.2935
vn -0.5006 0.7003 0.5088
vn -0.2588 0.7815 0.5678
vn -0.1435 0.4329 0.8899
vn 0.1434 0.4330 0.8899
vn 0.2588 0.7815 0.5678
vn 0.5006 0.7003 0.5088
vn 0.8664 0.4040 0.2935
vn 0.9915 0.1055 0.0767
vn -0.9915 0.0767 0.1055
vn -0.8664 0.2935 0.4040
vn -0.5006 0.5088 0.7003
vn -0.2588 0.5678 0.7815
vn -0.1347 0.2951 0.9459
vn 0.1345 0.2951 0.9459
vn 0.2588 0.5678 0.7815
vn 0.5006 0.5088 0.7003
vn 0.8664 0.2935 0.4040
vn 0.9915 0.0767 0.1055
vn -0.9915 0.0403 0.1241
vn -0.8664 0.1543 0.4749
vn -0.5006 0.2675 0.8233
vn -0.2588 0.2985 0.9186
vn -0.1297 0.1495 0.9802
vn 0.1296 0.1495 0.9802
vn 0.2588 0.2985 0.9186
vn 0.5006 0.2675 0.8233
vn 0.8664 0.1543 0.4749
vn 0.9915 0.0403 0.1241
vn -0.9915 -0.0000 0.1305
vn -0.8664 -0.0000 0.4994
vn -0.5006 -0.0000 0.8657
vn -0.2588 -0.0000 0.9659
vn -0.1280 -0.0000 0.9918
vn 0.1280 -0.0000 0.9918
vn 0.2588 -0.0000 0.9659
vn 0.5006 -0.0000 0.8657
vt 1.000000 0.166667
vt 1.000000 1.000000
vt 0.000000 1.000000
vt 0.000000 0.166667
vt 0.166667 0.166667
vt 0.166667 1.000000
vt 0.833333 0.166667
vt 0.833333 1.000000
vt 1.000000 0.000000
vt 0.000000 0.000000
vt 1.000000 0.833333
vt 0.000000 0.833333
vt 0.833333 0.000000
vt 0.166667 0.000000
vt 0.861111 0.166667
vt 0.861111 1.000000
vt 0.861111 0.000000
vt 0.000000 0.138889
vt 1.000000 0.138889
vt 0.138889 0.166667
vt 0.138889 0.000000
vt 0.833333 1.000000
vt 0.138889 1.000000
vt 1.000000 0.861111
vt 0.000000 0.861111
vt 0.138889 1.000000
vt 1.000000 0.659153
vt 0.975000 1.000000
vt 0.950000 0.659153
vt 1.000000 0.606102
vt 0.950000 0.606102
vt 1.000000 0.553051
vt 0.950000 0.553051
vt 1.000000 0.500000
vt 0.950000 0.500000
vt 1.000000 0.446949
vt 0.950000 0.446949
vt 1.000000 0.393898
vt 0.950000 0.393898
vt 1.000000 0.340847
vt 0.950000 0.340847
vt 0.975000 0.000000
vt 0.925000 1.000000
vt 0.900000 0.659153
vt 0.900000 0.606102
vt 0.900000 0.553051
vt 0.900000 0.500000
vt 0.900000 0.446949
vt 0.900000 0.393898
vt 0.900000 0.340847
vt 0.925000 0.000000
vt 0.875000 1.000000
vt 0.850000 0.659153
vt 0.850000 0.606102
vt 0.850000 0.553051
vt 0.850000 0.500000
vt 0.850000 0.446949
vt 0.850000 0.393898
vt 0.850000 0.340847
vt 0.875000 0.000000
vt 0.825000 1.000000
vt 0.800000 0.659153
vt 0.800000 0.606102
vt 0.800000 0.553051
vt 0.800000 0.500000
vt 0.800000 0.446949
vt 0.800000 0.393898
vt 0.800000 0.340847
vt 0.825000 0.000000
vt 0.775000 1.000000
vt 0.750000 0.659153
vt 0.750000 0.606102
vt 0.050000 0.340847
vt 0.000000 0.340847
vt 0.025000 0.000000
vt 0.050000 0.393898
vt 0.000000 0.393898
vt 0.050000 0.446949
vt 0.000000 0.446949
vt 0.050000 0.500000
vt 0.000000 0.500000
vt 0.050000 0.553051
vt 0.000000 0.553051
vt 0.050000 0.606102
vt 0.000000 0.606102
vt 0.050000 0.659153
vt 0.000000 0.659153
vt 0.025000 1.000000
vt 0.100000 0.340847
vt 0.075000 0.000000
vt 0.100000 0.393898
vt 0.100000 0.446949
vt 0.100000 0.500000
vt 0.100000 0.553051
vt 0.100000 0.606102
vt 0.100000 0.659153
vt 0.075000 1.000000
vt 0.150000 0.340847
vt 0.125000 0.000000
vt 0.150000 0.393898
vt 0.150000 0.446949
vt 0.150000 0.500000
vt 0.150000 0.553051
vt 0.150000 0.606102
vt 0.150000 0.659153
vt 0.125000 1.000000
vt 0.200000 0.340847
vt 0.175000 0.000000
vt 0.200000 0.393898
vt 0.200000 0.446949
vt 0.200000 0.500000
vt 0.200000 0.553051
vt 0.200000 0.606102
vt 0.200000 0.659153
vt 0.175000 1.000000
vt 0.250000 0.340847
vt 0.225000 0.000000
vt 0.250000 0.393898
vt 0.250000 0.446949
vt 0.250000 0.500000
vt 0.250000 0.553051
vt 0.250000 0.606102
vt 0.250000 0.659153
vt 0.225000 1.000000
vt 0.300000 0.340847
vt 0.275000 0.000000
vt 0.300000 0.393898
vt 0.300000 0.446949
vt 0.300000 0.500000
vt 0.300000 0.553051
vt 0.300000 0.606102
vt 0.300000 0.659153
vt 0.275000 1.000000
vt 0.350000 0.340847
vt 0.325000 0.000000
vt 0.350000 0.393898
vt 0.350000 0.446949
vt 0.350000 0.500000
vt 0.350000 0.553051
vt 0.350000 0.606102
vt 0.350000 0.659153
vt 0.325000 1.000000
vt 0.400000 0.340847
vt 0.375000 0.000000
vt 0.400000 0.393898
vt 0.400000 0.446949
vt 0.400000 0.500000
vt 0.400000 0.553051
vt 0.400000 0.606102
vt 0.400000 0.659153
vt 0.375000 1.000000
vt 0.450000 0.340847
vt 0.425000 0.000000
vt 0.450000 0.393898
vt 0.450000 0.446949
vt 0.450000 0.500000
vt 0.450000 0.553051
vt 0.450000 0.606102
vt 0.450000 0.659153
vt 0.425000 1.000000
vt 0.500000 0.340847
vt 0.475000 0.000000
vt 0.500000 0.393898
vt 0.500000 0.446949
vt 0.500000 0.500000
vt 0.500000 0.553051
vt 0.500000 0.606102
vt 0.500000 0.659153
vt 0.475000 1.000000
vt 0.550000 0.340847
vt 0.525000 0.000000
vt 0.550000 0.393898
vt 0.550000 0.446949
vt 0.550000 0.500000
vt 0.550000 0.553051
vt 0.550000 0.606102
vt 0.550000 0.659153
vt 0.525000 1.000000
vt 0.600000 0.340847
vt 0.575000 0.000000
vt 0.600000 0.393898
vt 0.600000 0.446949
vt 0.600000 0.500000
vt 0.600000 0.553051
vt 0.600000 0.606102
vt 0.600000 0.659153
vt 0.575000 1.000000
vt 0.650000 0.340847
vt 0.625000 0.000000
vt 0.650000 0.393898
vt 0.650000 0.446949
vt 0.650000 0.500000
vt 0.650000 0.553051
vt 0.650000 0.606102
vt 0.650000 0.659153
vt 0.625000 1.000000
vt 0.700000 0.340847
vt 0.675000 0.000000
vt 0.700000 0.393898
vt 0.700000 0.446949
vt 0.700000 0.500000
vt 0.700000 0.553051
vt 0.700000 0.606102
vt 0.700000 0.659153
vt 0.675000 1.000000
vt 0.750000 0.340847
vt 0.725000 0.000000
vt 0.750000 0.393898
vt 0.750000 0.446949
vt 0.750000 0.500000
vt 0.750000 0.553051
vt 0.725000 1.000000
vt 0.775000 0.000000
s 1
usemtl Mat.8
f 9/1/1 4/2/1 2/3/1 10/4/1
f 14/5/2 13/6/2 4/3/2 9/4/2
f 11/1/3 8/2/3 6/3/3 12/4/3
f 32/7/4 29/1/4 26/2/4 33/8/4
f 4/9/5 13/1/5 18/4/5 2/10/5
f 15/11/6 3/2/6 1/3/6 16/12/6
f 10/4/1 1/10/1 3/9/1 9/1/1
f 32/7/4 31/13/4 25/9/4 29/1/4
f 12/4/3 5/10/3 7/9/3 11/1/3
f 14/5/2 9/4/2 3/10/2 15/14/2
f 14/5/2 20/15/2 19/16/2 13/6/2
f 15/14/2 21/17/2 20/15/2 14/5/2
f 16/12/6 22/18/6 21/19/6 15/11/6
f 32/7/4 35/20/4 34/21/4 31/13/4
f 18/22/4 24/23/4 23/20/4 17/7/4
f 13/1/5 19/24/5 24/25/5 18/4/5
f 20/15/2 12/1/2 6/2/2 19/16/2
f 21/17/2 5/9/2 12/1/2 20/15/2
f 22/18/6 7/10/6 5/9/6 21/19/6
f 35/20/4 30/4/4 27/10/4 34/21/4
f 36/26/4 28/3/4 30/4/4 35/20/4
f 19/24/5 6/2/5 8/3/5 24/25/5
f 26/2/5 2/2/5 18/22/5 33/8/5
f 29/1/1 10/1/1 2/2/1 26/2/1
f 33/8/3 18/22/3 17/7/3 32/7/3
f 25/9/1 1/9/1 10/1/1 29/1/1
f 31/13/6 16/13/6 1/9/6 25/9/6
f 34/21/6 22/21/6 16/13/6 31/13/6
f 32/7/5 17/7/5 23/20/5 35/20/5
f 27/10/6 7/10/6 22/21/6 34/21/6
f 30/4/3 11/4/3 7/10/3 27/10/3
f 28/3/3 8/3/3 11/4/3 30/4/3
f 36/26/5 24/23/5 8/3/5 28/3/5
f 35/20/1 23/20/1 24/23/1 36/26/1
usemtl Mat.3
f 86/27/7 78/28/2 37/29/8
f 85/30/9 86/27/7 37/29/8 38/31/10
f 84/32/11 85/30/9 38/31/10 39/33/12
f 83/34/13 84/32/11 39/33/12 40/35/14
f 82/34/15 83/34/16 40/35/17 41/35/18
f 81/36/19 82/34/20 41/35/21 42/37/22
f 80/38/23 81/36/19 42/37/22 43/39/24
f 79/40/25 80/38/23 43/39/24 44/41/26
f 79/40/25 44/41/26 77/42/4
f 37/29/8 78/43/2 45/44/27
f 38/31/10 37/29/8 45/44/27 46/45/28
f 39/33/12 38/31/10 46/45/28 47/46/29
f 40/35/14 39/33/12 47/46/29 48/47/30
f 41/35/18 40/35/17 48/47/31 49/47/32
f 42/37/22 41/35/21 49/47/33 50/48/34
f 43/39/24 42/37/22 50/48/34 51/49/35
f 44/41/26 43/39/24 51/49/35 52/50/36
f 44/41/26 52/50/36 77/51/4
f 45/44/27 78/52/2 53/53/37
f 46/45/28 45/44/27 53/53/37 54/54/38
f 47/46/29 46/45/28 54/54/38 55/55/39
f 48/47/30 47/46/29 55/55/39 56/56/40
f 49/47/32 48/47/31 56/56/41 57/56/42
f 50/48/34 49/47/33 57/56/43 58/57/44
f 51/49/35 50/48/34 58/57/44 59/58/45
f 52/50/36 51/49/35 59/58/45 60/59/46
f 52/50/36 60/59/46 77/60/4
f 53/53/37 78/61/2 61/62/47
f 54/54/38 53/53/37 61/62/47 62/63/48
f 55/55/39 54/54/38 62/63/48 63/64/49
f 56/56/40 55/55/39 63/64/49 64/65/50
f 57/56/42 56/56/41 64/65/51 65/65/52
f 58/57/44 57/56/43 65/65/53 66/66/54
f 59/58/45 58/57/44 66/66/54 67/67/55
f 60/59/46 59/58/45 67/67/55 68/68/56
f 60/59/46 68/68/56 77/69/4
f 61/62/47 78/70/2 69/71/57
f 62/63/48 61/62/47 69/71/57 70/72/58
f 87/73/59 79/74/25 77/75/4
f 87/73/59 88/76/60 80/77/23 79/74/25
f 88/76/60 89/78/61 81/79/19 80/77/23
f 89/78/61 90/80/62 82/81/20 81/79/19
f 90/80/63 91/80/64 83/81/16 82/81/15
f 91/80/65 92/82/66 84/83/11 83/81/13
f 92/82/66 93/84/67 85/85/9 84/83/11
f 93/84/67 94/86/68 86/87/7 85/85/9
f 94/86/68 78/88/2 86/87/7
f 95/89/69 87/73/59 77/90/4
f 95/89/69 96/91/70 88/76/60 87/73/59
f 96/91/70 97/92/71 89/78/61 88/76/60
f 97/92/71 98/93/72 90/80/62 89/78/61
f 98/93/73 99/93/74 91/80/64 90/80/63
f 99/93/75 100/94/76 92/82/66 91/80/65
f 100/94/76 101/95/77 93/84/67 92/82/66
f 101/95/77 102/96/78 94/86/68 93/84/67
f 102/96/78 78/97/2 94/86/68
f 103/98/79 95/89/69 77/99/4
f 103/98/79 104/100/80 96/91/70 95/89/69
f 104/100/80 105/101/81 97/92/71 96/91/70
f 105/101/81 106/102/82 98/93/72 97/92/71
f 106/102/83 107/102/84 99/93/74 98/93/73
f 107/102/85 108/103/86 100/94/76 99/93/75
f 108/103/86 109/104/87 101/95/77 100/94/76
f 109/104/87 110/105/88 102/96/78 101/95/77
f 110/105/88 78/106/2 102/96/78
f 111/107/89 103/98/79 77/108/4
f 111/107/89 112/109/90 104/100/80 103/98/79
f 112/109/90 113/110/91 105/101/81 104/100/80
f 113/110/91 114/111/92 106/102/82 105/101/81
f 114/111/93 115/111/94 107/102/84 106/102/83
f 115/111/95 116/112/96 108/103/86 107/102/85
f 116/112/96 117/113/97 109/104/87 108/103/86
f 117/113/97 118/114/98 110/105/88 109/104/87
f 118/114/98 78/115/2 110/105/88
f 119/116/99 111/107/89 77/117/4
f 119/116/99 120/118/100 112/109/90 111/107/89
f 120/118/100 121/119/101 113/110/91 112/109/90
f 121/119/101 122/120/102 114/111/92 113/110/91
f 122/120/103 123/120/104 115/111/94 114/111/93
f 123/120/105 124/121/106 116/112/96 115/111/95
f 124/121/106 125/122/107 117/113/97 116/112/96
f 125/122/107 126/123/108 118/114/98 117/113/97
f 126/123/108 78/124/2 118/114/98
f 127/125/109 119/116/99 77/126/4
f 127/125/109 128/127/110 120/118/100 119/116/99
f 128/127/110 129/128/111 121/119/101 120/118/100
f 129/128/111 130/129/112 122/120/102 121/119/101
f 130/129/113 131/129/114 123/120/104 122/120/103
f 131/129/115 132/130/116 124/121/106 123/120/105
f 132/130/116 133/131/117 125/122/107 124/121/106
f 133/131/117 134/132/118 126/123/108 125/122/107
f 134/132/118 78/133/2 126/123/108
f 135/134/119 127/125/109 77/135/4
f 135/134/119 136/136/120 128/127/110 127/125/109
f 136/136/120 137/137/121 129/128/111 128/127/110
f 137/137/121 138/138/122 130/129/112 129/128/111
f 138/138/123 139/138/124 131/129/114 130/129/113
f 139/138/125 140/139/126 132/130/116 131/129/115
f 140/139/126 141/140/127 133/131/117 132/130/116
f 141/140/127 142/141/128 134/132/118 133/131/117
f 142/141/128 78/142/2 134/132/118
f 143/143/129 135/134/119 77/144/4
f 143/143/129 144/145/130 136/136/120 135/134/119
f 144/145/130 145/146/131 137/137/121 136/136/120
f 145/146/131 146/147/132 138/138/122 137/137/121
f 146/147/133 147/147/134 139/138/124 138/138/123
f 147/147/135 148/148/136 140/139/126 139/138/125
f 148/148/136 149/149/137 141/140/127 140/139/126
f 149/149/137 150/150/138 142/141/128 141/140/127
f 150/150/138 78/151/2 142/141/128
f 151/152/139 143/143/129 77/153/4
f 151/152/139 152/154/140 144/145/130 143/143/129
f 152/154/140 153/155/141 145/146/131 144/145/130
f 153/155/141 154/156/142 146/147/132 145/146/131
f 154/156/143 155/156/144 147/147/134 146/147/133
f 155/156/145 156/157/146 148/148/136 147/147/135
f 156/157/146 157/158/147 149/149/137 148/148/136
f 157/158/147 158/159/148 150/150/138 149/149/137
f 158/159/148 78/160/2 150/150/138
f 159/161/149 151/152/139 77/162/4
f 159/161/149 160/163/150 152/154/140 151/152/139
f 160/163/150 161/164/151 153/155/141 152/154/140
f 161/164/151 162/165/152 154/156/142 153/155/141
f 162/165/153 163/165/154 155/156/144 154/156/143
f 163/165/155 164/166/156 156/157/146 155/156/145
f 164/166/156 165/167/157 157/158/147 156/157/146
f 165/167/157 166/168/158 158/159/148 157/158/147
f 166/168/158 78/169/2 158/159/148
f 167/170/159 159/161/149 77/171/4
f 167/170/159 168/172/160 160/163/150 159/161/149
f 168/172/160 169/173/161 161/164/151 160/163/150
f 169/173/161 170/174/162 162/165/152 161/164/151
f 170/174/163 171/174/164 163/165/154 162/165/153
f 171/174/165 172/175/166 164/166/156 163/165/155
f 172/175/166 173/176/167 165/167/157 164/166/156
f 173/176/167 174/177/168 166/168/158 165/167/157
f 174/177/168 78/178/2 166/168/158
f 175/179/169 167/170/159 77/180/4
f 175/179/169 176/181/170 168/172/160 167/170/159
f 176/181/170 177/182/171 169/173/161 168/172/160
f 177/182/171 178/183/172 170/174/162 169/173/161
f 178/183/173 179/183/174 171/174/164 170/174/163
f 179/183/175 180/184/176 172/175/166 171/174/165
f 180/184/176 181/185/177 173/176/167 172/175/166
f 181/185/177 182/186/178 174/177/168 173/176/167
f 182/186/178 78/187/2 174/177/168
f 183/188/179 175/179/169 77/189/4
f 183/188/179 184/190/180 176/181/170 175/179/169
f 184/190/180 185/191/181 177/182/171 176/181/170
f 185/191/181 186/192/182 178/183/172 177/182/171
f 186/192/183 187/192/184 179/183/174 178/183/173
f 187/192/185 188/193/186 180/184/176 179/183/175
f 188/193/186 189/194/187 181/185/177 180/184/176
f 189/194/187 190/195/188 182/186/178 181/185/177
f 190/195/188 78/196/2 182/186/178
f 191/197/189 183/188/179 77/198/4
f 191/197/189 192/199/190 184/190/180 183/188/179
f 192/199/190 193/200/191 185/191/181 184/190/180
f 193/200/191 194/201/192 186/192/182 185/191/181
f 194/201/193 195/201/194 187/192/184 186/192/183
f 195/201/195 196/202/196 188/193/186 187/192/185
f 196/202/196 197/203/197 189/194/187 188/193/186
f 197/203/197 198/204/198 190/195/188 189/194/187
f 198/204/198 78/205/2 190/195/188
f 76/206/199 191/197/189 77/207/4
f 76/206/199 75/208/200 192/199/190 191/197/189
f 75/208/200 74/209/201 193/200/191 192/199/190
f 74/209/201 73/210/202 194/201/192 193/200/191
f 73/210/203 72/210/204 195/201/194 194/201/193
f 72/210/205 71/211/206 196/202/196 195/201/195
f 71/211/206 70/72/58 197/203/197 196/202/196
f 70/72/58 69/71/57 198/204/198 197/203/197
f 69/71/57 78/212/2 198/204/198
f 68/68/56 76/206/199 77/213/4
f 68/68/56 67/67/55 75/208/200 76/206/199
f 67/67/55 66/66/54 74/209/201 75/208/200
f 66/66/54 65/65/53 73/210/202 74/209/201
f 65/65/52 64/65/51 72/210/204 73/210/203
f 64/65/50 63/64/49 71/211/206 72/210/205
f 63/64/49 62/63/48 70/72/58 71/211/206
o Chest_of_Drawers
v -8.617252 -15.776859 -108.332855
v -8.617252 -9.476859 -108.332855
v -1.913159 -15.776859 -108.332855
v -1.913159 -9.476859 -108.332855
v -1.913159 -15.776858 -112.832855
v -1.913159 -9.476858 -112.832855
v -8.617252 -15.776858 -112.832855
v -8.617252 -9.476858 -112.832855
v -1.913159 -15.342699 -108.715714
v -1.913159 -9.911019 -108.715714
v -1.913159 -15.342698 -112.449997
v -1.913159 -9.911018 -112.449997
v -8.381674 -15.342699 -108.715714
v -8.381674 -9.911019 -108.715714
v -8.381674 -15.342698 -112.449997
v -8.381674 -9.911018 -112.449997
vn -0.0000 -0.0000 1.0000
vn 1.0000 -0.0000 -0.0000
vn -0.0000 -0.0000 -1.0000
vn -1.0000 -0.0000 -0.0000
vn -0.0000 1.0000 -0.0000
vn -0.0000 -1.0000 -0.0000
vt 1.000000 0.000000
vt 1.000000 1.000000
vt 0.000000 1.000000
vt 0.000000 0.000000
vt 0.940000 0.042857
vt 0.940000 0.957143
vt 0.060000 0.957143
vt 0.060000 0.042857
s 1
usemtl white
f 201/214/207 202/215/207 200/216/207 199/217/207
f 213/218/208 214/219/208 212/220/208 211/221/208
f 205/214/209 206/215/209 204/216/209 203/217/209
f 199/214/210 200/215/210 206/216/210 205/217/210
f 202/214/211 204/215/211 206/216/211 200/217/211
f 203/214/212 201/215/212 199/216/212 205/217/212
f 208/220/208 202/216/208 201/217/208 207/221/208
f 210/219/208 204/215/208 202/216/208 208/220/208
f 209/218/208 203/214/208 204/215/208 210/219/208
f 207/221/208 201/217/208 203/214/208 209/218/208
f 212/220/209 208/220/209 207/221/209 211/221/209
f 214/219/212 210/219/212 208/220/212 212/220/212
f 213/218/207 209/218/207 210/219/207 214/219/207
f 211/221/211 207/221/211 209/218/211 213/218/211
o Draw02
v -1.258317 -13.527494 -108.715714
v -1.258317 -11.732215 -108.715714
v -1.130854 -13.527494 -108.715714
v -1.130854 -11.732215 -108.715714
v -1.130854 -13.527493 -112.449997
v -1.130854 -11.732214 -112.449997
v -1.258317 -13.527493 -112.449997
v -1.258317 -11.732214 -112.449997
v -1.130854 -13.440681 -108.715714
v -1.258317 -13.440681 -108.715714
v -1.258317 -13.440681 -112.449997
v -1.130854 -13.440681 -112.449997
v -1.130854 -11.732215 -108.832581
v -1.130854 -13.440681 -108.832581
v -1.130854 -13.527494 -108.832581
v -1.258317 -13.527494 -108.832581
v -1.258317 -13.440681 -108.832581
v -1.258317 -11.732215 -108.832581
v -1.130854 -11.732214 -112.322159
v -1.130854 -13.440681 -112.322159
v -1.130854 -13.527493 -112.322159
v -1.258317 -13.527493 -112.322159
v -1.258317 -13.440681 -112.322159
v -1.258317 -11.732214 -112.322159
v -7.429493 -13.527494 -108.715714
v -7.429493 -11.732215 -108.715714
v -7.429493 -13.527493 -112.449997
v -7.429493 -11.732214 -112.449997
v -7.429493 -13.440681 -108.715714
v -7.429493 -13.440681 -112.449997
v -7.429493 -13.527494 -108.832581
v -7.429493 -13.440681 -108.832581
v -7.429493 -11.732215 -108.832581
v -7.429493 -13.527493 -112.322159
v -7.429493 -13.440681 -112.322159
v -7.429493 -11.732214 -112.322159
v -0.999175 -12.363945 -110.519165
v -1.008099 -12.395620 -110.508873
v -1.032480 -12.418809 -110.501335
v -1.065786 -12.427296 -110.498581
v -1.065786 -12.427296 -110.498581
v -1.099091 -12.418809 -110.501335
v -1.123472 -12.395620 -110.508873
v -1.132397 -12.363945 -110.519165
v -0.999175 -12.332479 -110.457405
v -1.008099 -12.359424 -110.437828
v -1.032480 -12.379148 -110.423500
v -1.065786 -12.386368 -110.418251
v -1.065786 -12.386368 -110.418251
v -1.099091 -12.379148 -110.423500
v -1.123472 -12.359424 -110.437828
v -1.132397 -12.332479 -110.457405
v -0.999175 -12.283468 -110.408394
v -1.008099 -12.303045 -110.381454
v -1.032480 -12.317376 -110.361725
v -1.065786 -12.322621 -110.354507
v -1.065786 -12.322621 -110.354507
v -1.099091 -12.317376 -110.361725
v -1.123472 -12.303045 -110.381454
v -1.132397 -12.283468 -110.408394
v -0.999175 -12.221712 -110.376930
v -1.008099 -12.232004 -110.345253
v -1.032480 -12.239538 -110.322067
v -1.065786 -12.242296 -110.313576
v -1.065786 -12.242296 -110.313576
v -1.099091 -12.239538 -110.322067
v -1.123472 -12.232004 -110.345253
v -1.132397 -12.221712 -110.376930
v -0.999175 -12.153255 -110.366089
v -1.008099 -12.153255 -110.332779
v -1.032480 -12.153255 -110.308403
v -1.065786 -12.153255 -110.299477
v -1.065786 -12.153255 -110.299477
v -1.099091 -12.153255 -110.308403
v -1.123472 -12.153255 -110.332779
v -1.132397 -12.153255 -110.366089
v -1.132397 -12.153255 -110.587624
v -0.999175 -12.153255 -110.587624
v -1.132397 -12.374787 -110.587624
v -1.123472 -12.408093 -110.587624
v -1.099091 -12.432474 -110.587624
v -1.065786 -12.441399 -110.587624
v -1.065786 -12.441399 -110.587624
v -1.032480 -12.432474 -110.587624
v -1.008099 -12.408093 -110.587624
v -0.999175 -12.374787 -110.587624
v -1.132397 -12.363945 -110.656075
v -1.123472 -12.395620 -110.666367
v -1.099091 -12.418808 -110.673904
v -1.065786 -12.427296 -110.676659
v -1.065786 -12.427296 -110.676659
v -1.032480 -12.418808 -110.673904
v -1.008099 -12.395620 -110.666367
v -0.999175 -12.363945 -110.656075
v -1.132397 -12.332479 -110.717834
v -1.123472 -12.359424 -110.737411
v -1.099091 -12.379148 -110.751740
v -1.065786 -12.386368 -110.756989
v -1.065786 -12.386368 -110.756989
v -1.032480 -12.379148 -110.751740
v -1.008099 -12.359424 -110.737411
v -0.999175 -12.332479 -110.717834
v -1.132397 -12.283468 -110.766846
v -1.123472 -12.303045 -110.793785
v -1.099091 -12.317376 -110.813515
v -1.065786 -12.322621 -110.820732
v -1.065786 -12.322621 -110.820732
v -1.032480 -12.317376 -110.813515
v -1.008099 -12.303045 -110.793785
v -0.999175 -12.283468 -110.766846
v -1.132397 -12.221712 -110.798309
v -1.123472 -12.232004 -110.829987
v -1.099091 -12.239538 -110.853172
v -1.065786 -12.242296 -110.861664
v -1.065786 -12.242296 -110.861664
v -1.032480 -12.239538 -110.853172
v -1.008099 -12.232004 -110.829987
v -0.999175 -12.221712 -110.798309
v -1.132397 -12.153255 -110.809151
v -1.123472 -12.153255 -110.842461
v -1.099091 -12.153255 -110.866837
v -1.065786 -12.153255 -110.875763
v -1.065786 -12.153255 -110.875763
v -1.032480 -12.153255 -110.866837
v -1.008099 -12.153255 -110.842461
v -0.999175 -12.153255 -110.809151
v -1.132397 -12.084797 -110.798309
v -1.123472 -12.074506 -110.829987
v -1.099091 -12.066971 -110.853172
v -1.065786 -12.064214 -110.861664
v -1.065786 -12.064214 -110.861664
v -1.032480 -12.066971 -110.853172
v -1.008099 -12.074506 -110.829987
v -0.999175 -12.084797 -110.798309
v -1.132397 -12.023041 -110.766846
v -1.123472 -12.003465 -110.793785
v -1.099091 -11.989134 -110.813515
v -1.065786 -11.983889 -110.820732
v -1.065786 -11.983889 -110.820732
v -1.032480 -11.989134 -110.813515
v -1.008099 -12.003465 -110.793785
v -0.999175 -12.023041 -110.766846
v -1.132397 -11.974031 -110.717834
v -1.123472 -11.947086 -110.737411
v -1.099091 -11.927361 -110.751740
v -1.065786 -11.920142 -110.756989
v -1.065786 -11.920142 -110.756989
v -1.032480 -11.927361 -110.751740
v -1.008099 -11.947086 -110.737411
v -0.999175 -11.974031 -110.717834
v -1.132397 -11.942565 -110.656075
v -1.123472 -11.910890 -110.666367
v -1.099091 -11.887701 -110.673904
v -1.065786 -11.879214 -110.676659
v -1.065786 -11.879214 -110.676659
v -1.032480 -11.887701 -110.673904
v -1.008099 -11.910890 -110.666367
v -0.999175 -11.942565 -110.656075
v -1.132397 -11.931722 -110.587616
v -1.123472 -11.898417 -110.587616
v -1.099091 -11.874035 -110.587616
v -1.065786 -11.865111 -110.587616
v -1.065786 -11.865111 -110.587616
v -1.032480 -11.874035 -110.587616
v -1.008099 -11.898417 -110.587616
v -0.999175 -11.931722 -110.587616
v -1.132397 -11.942565 -110.519165
v -1.123472 -11.910890 -110.508873
v -1.099091 -11.887701 -110.501335
v -1.065786 -11.879214 -110.498581
v -1.065786 -11.879214 -110.498581
v -1.032480 -11.887701 -110.501335
v -1.008099 -11.910890 -110.508873
v -0.999175 -11.942565 -110.519165
v -1.132397 -11.974031 -110.457405
v -1.123472 -11.947086 -110.437828
v -1.099091 -11.927361 -110.423500
v -1.065786 -11.920142 -110.418251
v -1.065786 -11.920142 -110.418251
v -1.032480 -11.927361 -110.423500
v -1.008099 -11.947086 -110.437828
v -0.999175 -11.974031 -110.457405
v -1.132397 -12.023041 -110.408394
v -1.123472 -12.003465 -110.381454
v -1.099091 -11.989134 -110.361725
v -1.065786 -11.983889 -110.354507
v -1.065786 -11.983889 -110.354507
v -1.032480 -11.989134 -110.361725
v -1.008099 -12.003465 -110.381454
v -0.999175 -12.023041 -110.408394
v -1.132397 -12.084798 -110.376930
v -1.123472 -12.074506 -110.345253
v -1.099091 -12.066972 -110.322067
v -1.065786 -12.064214 -110.313576
v -1.065786 -12.064214 -110.313576
v -1.032480 -12.066972 -110.322067
v -1.008099 -12.074506 -110.345253
v -0.999175 -12.084798 -110.376930
vn -0.0000 -0.0000 1.0000
vn 1.0000 -0.0000 -0.0000
vn -0.0000 -0.0000 -1.0000
vn -1.0000 -0.0000 -0.0000
vn -0.0000 1.0000 -0.0000
vn -0.0000 -1.0000 -0.0000
vn 0.9915 -0.1305 -0.0000
vn 0.9915 -0.1241 0.0403
vn 0.8664 -0.4994 -0.0000
vn 0.8664 -0.4749 0.1543
vn 0.5006 -0.8657 -0.0000
vn 0.5007 -0.8233 0.2675
vn 0.2588 -0.9659 -0.0000
vn 0.2588 -0.9187 0.2985
vn -0.1796 -0.6700 0.7203
vn 0.1796 -0.6700 0.7203
vn 0.1576 -0.5593 0.8139
vn -0.1576 -0.5593 0.8139
vn -0.5006 -0.8657 -0.0000
vn -0.2588 -0.9659 -0.0000
vn -0.2588 -0.9187 0.2985
vn -0.5006 -0.8233 0.2675
vn -0.8664 -0.4994 -0.0000
vn -0.8664 -0.4749 0.1543
vn -0.9915 -0.1305 -0.0000
vn -0.9915 -0.1241 0.0403
vn 0.9915 -0.1055 0.0767
vn 0.8664 -0.4040 0.2935
vn 0.5006 -0.7003 0.5088
vn 0.2588 -0.7815 0.5678
vn 0.1435 -0.4329 0.8899
vn -0.1434 -0.4330 0.8899
vn -0.2588 -0.7815 0.5678
vn -0.5006 -0.7003 0.5088
vn -0.8664 -0.4040 0.2935
vn -0.9915 -0.1055 0.0767
vn 0.9915 -0.0767 0.1055
vn 0.8664 -0.2935 0.4040
vn 0.5006 -0.5088 0.7003
vn 0.2588 -0.5678 0.7815
vn 0.1346 -0.2951 0.9459
vn -0.1345 -0.2951 0.9459
vn -0.2588 -0.5678 0.7814
vn -0.5007 -0.5088 0.7003
vn -0.8664 -0.2935 0.4040
vn -0.9915 -0.0767 0.1055
vn 0.9915 -0.0403 0.1241
vn 0.8664 -0.1543 0.4749
vn 0.5007 -0.2675 0.8233
vn 0.2588 -0.2985 0.9187
vn 0.1296 -0.1495 0.9802
vn -0.1296 -0.1495 0.9802
vn -0.2588 -0.2985 0.9186
vn -0.5006 -0.2675 0.8233
vn -0.8664 -0.1543 0.4749
vn -0.9915 -0.0403 0.1241
vn 0.9915 -0.0000 0.1305
vn 0.8664 -0.0000 0.4994
vn -0.9915 -0.1241 -0.0403
vn -0.8664 -0.4749 -0.1543
vn -0.5007 -0.8233 -0.2675
vn -0.2588 -0.9187 -0.2985
vn -0.2141 -0.7608 0.6127
vn 0.2144 -0.7607 0.6127
vn 0.2588 -0.9187 -0.2985
vn 0.5006 -0.8233 -0.2675
vn 0.8664 -0.4749 -0.1543
vn 0.9915 -0.1241 -0.0403
vn -0.9914 -0.1056 -0.0767
vn -0.8664 -0.4040 -0.2935
vn -0.5006 -0.7003 -0.5088
vn -0.2588 -0.7815 -0.5678
vn -0.2726 -0.8242 0.4964
vn 0.2730 -0.8241 0.4964
vn 0.2588 -0.7815 -0.5678
vn 0.5006 -0.7003 -0.5088
vn 0.8664 -0.4040 -0.2935
vn 0.9915 -0.1055 -0.0767
vn -0.9915 -0.0767 -0.1055
vn -0.8664 -0.2935 -0.4040
vn -0.5006 -0.5088 -0.7003
vn -0.2588 -0.5678 -0.7815
vn -0.3833 -0.8415 0.3808
vn 0.3836 -0.8413 0.3808
vn 0.2588 -0.5678 -0.7814
vn 0.5006 -0.5088 -0.7003
vn 0.8664 -0.2935 -0.4040
vn 0.9915 -0.0767 -0.1055
vn -0.9915 -0.0403 -0.1241
vn -0.8664 -0.1543 -0.4749
vn -0.5007 -0.2675 -0.8233
vn -0.2588 -0.2985 -0.9187
vn -0.6270 -0.7230 0.2901
vn 0.6270 -0.7230 0.2901
vn 0.2588 -0.2985 -0.9187
vn 0.5006 -0.2675 -0.8233
vn 0.8664 -0.1543 -0.4749
vn 0.9915 -0.0403 -0.1241
vn -0.9915 -0.0000 -0.1305
vn -0.8664 -0.0000 -0.4994
vn -0.5006 -0.0000 -0.8657
vn -0.2588 -0.0000 -0.9659
vn -0.9630 -0.0000 0.2696
vn 0.9630 -0.0000 0.2696
vn 0.2588 -0.0000 -0.9659
vn 0.5006 -0.0000 -0.8657
vn 0.8664 -0.0000 -0.4994
vn 0.9915 -0.0000 -0.1305
vn -0.9915 0.0403 -0.1241
vn -0.8664 0.1543 -0.4749
vn -0.5006 0.2675 -0.8233
vn -0.2588 0.2985 -0.9186
vn -0.6270 0.7230 0.2901
vn 0.6268 0.7232 0.2901
vn 0.2588 0.2985 -0.9186
vn 0.5006 0.2675 -0.8233
vn 0.8664 0.1543 -0.4749
vn 0.9915 0.0403 -0.1241
vn -0.9915 0.0767 -0.1055
vn -0.8664 0.2935 -0.4040
vn -0.5006 0.5088 -0.7003
vn -0.2588 0.5678 -0.7815
vn -0.3836 0.8413 0.3808
vn 0.3832 0.8415 0.3808
vn 0.2588 0.5678 -0.7815
vn 0.5006 0.5088 -0.7003
vn 0.8664 0.2935 -0.4040
vn 0.9915 0.0767 -0.1055
vn -0.9915 0.1055 -0.0767
vn -0.8664 0.4040 -0.2935
vn -0.5006 0.7003 -0.5088
vn -0.2588 0.7815 -0.5678
vn -0.2730 0.8241 0.4964
vn 0.2727 0.8242 0.4964
vn 0.2588 0.7815 -0.5678
vn 0.5006 0.7003 -0.5088
vn 0.8664 0.4040 -0.2935
vn 0.9915 0.1055 -0.0767
vn -0.9915 0.1241 -0.0403
vn -0.8664 0.4749 -0.1543
vn -0.5006 0.8233 -0.2675
vn -0.2588 0.9187 -0.2985
vn -0.2143 0.7607 0.6127
vn 0.2143 0.7607 0.6127
vn 0.2588 0.9187 -0.2985
vn 0.5006 0.8233 -0.2675
vn 0.8664 0.4749 -0.1543
vn 0.9914 0.1241 -0.0403
vn -0.9915 0.1305 -0.0000
vn -0.8664 0.4994 -0.0000
vn -0.5007 0.8656 -0.0000
vn -0.2588 0.9659 -0.0000
vn -0.1796 0.6700 0.7203
vn 0.1796 0.6700 0.7203
vn 0.2588 0.9659 -0.0000
vn 0.5006 0.8657 -0.0000
vn 0.8664 0.4994 -0.0000
vn 0.9915 0.1305 -0.0000
vn -0.9915 0.1241 0.0403
vn -0.8664 0.4749 0.1543
vn -0.5006 0.8233 0.2675
vn -0.2588 0.9187 0.2985
vn -0.1576 0.5593 0.8139
vn 0.1576 0.5593 0.8139
vn 0.2588 0.9186 0.2985
vn 0.5006 0.8233 0.2675
vn 0.8664 0.4749 0.1543
vn 0.9914 0.1241 0.0403
vn -0.9915 0.1055 0.0767
vn -0.8664 0.4040 0.2935
vn -0.5006 0.7003 0.5088
vn -0.2588 0.7815 0.5678
vn -0.1435 0.4329 0.8899
vn 0.1434 0.4330 0.8899
vn 0.2588 0.7815 0.5678
vn 0.5006 0.7003 0.5088
vn 0.8664 0.4040 0.2935
vn 0.9915 0.1055 0.0767
vn -0.9915 0.0767 0.1055
vn -0.8664 0.2935 0.4040
vn -0.5006 0.5088 0.7003
vn -0.2588 0.5678 0.7815
vn -0.1347 0.2951 0.9459
vn 0.1345 0.2951 0.9459
vn 0.2588 0.5678 0.7815
vn 0.5006 0.5088 0.7003
vn 0.8664 0.2935 0.4040
vn 0.9915 0.0767 0.1055
vn -0.9915 0.0403 0.1241
vn -0.8664 0.1543 0.4749
vn -0.5006 0.2675 0.8233
vn -0.2588 0.2985 0.9186
vn -0.1297 0.1495 0.9802
vn 0.1296 0.1495 0.9802
vn 0.2588 0.2985 0.9186
vn 0.5006 0.2675 0.8233
vn 0.8664 0.1543 0.4749
vn 0.9915 0.0403 0.1241
vn -0.9915 -0.0000 0.1305
vn -0.8664 -0.0000 0.4994
vn -0.5006 -0.0000 0.8657
vn -0.2588 -0.0000 0.9659
vn -0.1280 -0.0000 0.9918
vn 0.1280 -0.0000 0.9918
vn 0.2588 -0.0000 0.9659
vn 0.5006 -0.0000 0.8657
vt 1.000000 0.166667
vt 1.000000 1.000000
vt 0.000000 1.000000
vt 0.000000 0.166667
vt 0.166667 0.166667
vt 0.166667 1.000000
vt 0.833333 0.166667
vt 0.833333 1.000000
vt 1.000000 0.000000
vt 0.000000 0.000000
vt 1.000000 0.833333
vt 0.000000 0.833333
vt 0.833333 0.000000
vt 0.166667 0.000000
vt 0.861111 0.166667
vt 0.861111 1.000000
vt 0.861111 0.000000
vt 0.000000 0.138889
vt 1.000000 0.138889
vt 0.138889 0.166667
vt 0.138889 0.000000
vt 0.833333 1.000000
vt 0.138889 1.000000
vt 1.000000 0.861111
vt 0.000000 0.861111
vt 0.138889 1.000000
vt 1.000000 0.659153
vt 0.975000 1.000000
vt 0.950000 0.659153
vt 1.000000 0.606102
vt 0.950000 0.606102
vt 1.000000 0.553051
vt 0.950000 0.553051
vt 1.000000 0.500000
vt 0.950000 0.500000
vt 1.000000 0.446949
vt 0.950000 0.446949
vt 1.000000 0.393898
vt 0.950000 0.393898
vt 1.000000 0.340847
vt 0.950000 0.340847
vt 0.975000 0.000000
vt 0.925000 1.000000
vt 0.900000 0.659153
vt 0.900000 0.606102
vt 0.900000 0.553051
vt 0.900000 0.500000
vt 0.900000 0.446949
vt 0.900000 0.393898
vt 0.900000 0.340847
vt 0.925000 0.000000
vt 0.875000 1.000000
vt 0.850000 0.659153
vt 0.850000 0.606102
vt 0.850000 0.553051
vt 0.850000 0.500000
vt 0.850000 0.446949
vt 0.850000 0.393898
vt 0.850000 0.340847
vt 0.875000 0.000000
vt 0.825000 1.000000
vt 0.800000 0.659153
vt 0.800000 0.606102
vt 0.800000 0.553051
vt 0.800000 0.500000
vt 0.800000 0.446949
vt 0.800000 0.393898
vt 0.800000 0.340847
vt 0.825000 0.000000
vt 0.775000 1.000000
vt 0.750000 0.659153
vt 0.750000 0.606102
vt 0.050000 0.340847
vt 0.000000 0.340847
vt 0.025000 0.000000
vt 0.050000 0.393898
vt 0.000000 0.393898
vt 0.050000 0.446949
vt 0.000000 0.446949
vt 0.050000 0.500000
vt 0.000000 0.500000
vt 0.050000 0.553051
vt 0.000000 0.553051
vt 0.050000 0.606102
vt 0.000000 0.606102
vt 0.050000 0.659153
vt 0.000000 0.659153
vt 0.025000 1.000000
vt 0.100000 0.340847
vt 0.075000 0.000000
vt 0.100000 0.393898
vt 0.100000 0.446949
vt 0.100000 0.500000
vt 0.100000 0.553051
vt 0.100000 0.606102
vt 0.100000 0.659153
vt 0.075000 1.000000
vt 0.150000 0.340847
vt 0.125000 0.000000
vt 0.150000 0.393898
vt 0.150000 0.446949
vt 0.150000 0.500000
vt 0.150000 0.553051
vt 0.150000 0.606102
vt 0.150000 0.659153
vt 0.125000 1.000000
vt 0.200000 0.340847
vt 0.175000 0.000000
vt 0.200000 0.393898
vt 0.200000 0.446949
vt 0.200000 0.500000
vt 0.200000 0.553051
vt 0.200000 0.606102
vt 0.200000 0.659153
vt 0.175000 1.000000
vt 0.250000 0.340847
vt 0.225000 0.000000
vt 0.250000 0.393898
vt 0.250000 0.446949
vt 0.250000 0.500000
vt 0.250000 0.553051
vt 0.250000 0.606102
vt 0.250000 0.659153
vt 0.225000 1.000000
vt 0.300000 0.340847
vt 0.275000 0.000000
vt 0.300000 0.393898
vt 0.300000 0.446949
vt 0.300000 0.500000
vt 0.300000 0.553051
vt 0.300000 0.606102
vt 0.300000 0.659153
vt 0.275000 1.000000
vt 0.350000 0.340847
vt 0.325000 0.000000
vt 0.350000 0.393898
vt 0.350000 0.446949
vt 0.350000 0.500000
vt 0.350000 0.553051
vt 0.350000 0.606102
vt 0.350000 0.659153
vt 0.325000 1.000000
vt 0.400000 0.340847
vt 0.375000 0.000000
vt 0.400000 0.393898
vt 0.400000 0.446949
vt 0.400000 0.500000
vt 0.400000 0.553051
vt 0.400000 0.606102
vt 0.400000 0.659153
vt 0.375000 1.000000
vt 0.450000 0.340847
vt 0.425000 0.000000
vt 0.450000 0.393898
vt 0.450000 0.446949
vt 0.450000 0.500000
vt 0.450000 0.553051
vt 0.450000 0.606102
vt 0.450000 0.659153
vt 0.425000 1.000000
vt 0.500000 0.340847
vt 0.475000 0.000000
vt 0.500000 0.393898
vt 0.500000 0.446949
vt 0.500000 0.500000
vt 0.500000 0.553051
vt 0.500000 0.606102
vt 0.500000 0.659153
vt 0.475000 1.000000
vt 0.550000 0.340847
vt 0.525000 0.000000
vt 0.550000 0.393898
vt 0.550000 0.446949
vt 0.550000 0.500000
vt 0.550000 0.553051
vt 0.550000 0.606102
vt 0.550000 0.659153
vt 0.525000 1.000000
vt 0.600000 0.340847
vt 0.575000 0.000000
vt 0.600000 0.393898
vt 0.600000 0.446949
vt 0.600000 0.500000
vt 0.600000 0.553051
vt 0.600000 0.606102
vt 0.600000 0.659153
vt 0.575000 1.000000
vt 0.650000 0.340847
vt 0.625000 0.000000
vt 0.650000 0.393898
vt 0.650000 0.446949
vt 0.650000 0.500000
vt 0.650000 0.553051
vt 0.650000 0.606102
vt 0.650000 0.659153
vt 0.625000 1.000000
vt 0.700000 0.340847
vt 0.675000 0.000000
vt 0.700000 0.393898
vt 0.700000 0.446949
vt 0.700000 0.500000
vt 0.700000 0.553051
vt 0.700000 0.606102
vt 0.700000 0.659153
vt 0.675000 1.000000
vt 0.750000 0.340847
vt 0.725000 0.000000
vt 0.750000 0.393898
vt 0.750000 0.446949
vt 0.750000 0.500000
vt 0.750000 0.553051
vt 0.725000 1.000000
vt 0.775000 0.000000
s 1
usemtl Mat.8
f 223/222/213 218/223/213 216/224/213 224/225/213
f 228/226/214 227/227/214 218/224/214 223/225/214
f 225/222/215 222/223/215 220/224/215 226/225/215
f 246/228/216 243/222/216 240/223/216 247/229/216
f 218/230/217 227/222/217 232/225/217 216/231/217
f 229/232/218 217/223/218 215/224/218 230/233/218
f 224/225/213 215/231/213 217/230/213 223/222/213
f 246/228/216 245/234/216 239/230/216 243/222/216
f 226/225/215 219/231/215 221/230/215 225/222/215
f 228/226/214 223/225/214 217/231/214 229/235/214
f 228/226/214 234/236/214 233/237/214 227/227/214
f 229/235/214 235/238/214 234/236/214 228/226/214
f 230/233/218 236/239/218 235/240/218 229/232/218
f 246/228/216 249/241/216 248/242/216 245/234/216
f 232/243/216 238/244/216 237/241/216 231/228/216
f 227/222/217 233/245/217 238/246/217 232/225/217
f 234/236/214 226/222/214 220/223/214 233/237/214
f 235/238/214 219/230/214 226/222/214 234/236/214
f 236/239/218 221/231/218 219/230/218 235/240/218
f 249/241/216 244/225/216 241/231/216 248/242/216
f 250/247/216 242/224/216 244/225/216 249/241/216
f 233/245/217 220/223/217 222/224/217 238/246/217
f 240/223/217 216/223/217 232/243/217 247/229/217
f 243/222/213 224/222/213 216/223/213 240/223/213
f 247/229/215 232/243/215 231/228/215 246/228/215
f 239/230/213 215/230/213 224/222/213 243/222/213
f 245/234/218 230/234/218 215/230/218 239/230/218
f 248/242/218 236/242/218 230/234/218 245/234/218
f 246/228/217 231/228/217 237/241/217 249/241/217
f 241/231/218 221/231/218 236/242/218 248/242/218
f 244/225/215 225/225/215 221/231/215 241/231/215
f 242/224/215 222/224/215 225/225/215 244/225/215
f 250/247/217 238/244/217 222/224/217 242/224/217
f 249/241/213 237/241/213 238/244/213 250/247/213
usemtl Mat.3
f 300/248/219 292/249/214 251/250/220
f 299/251/221 300/248/219 251/250/220 252/252/222
f 298/253/223 299/251/221 252/252/222 253/254/224
f 297/255/225 298/253/223 253/254/224 254/256/226
f 296/255/227 297/255/228 254/256/229 255/256/230
f 295/257/231 296/255/232 255/256/233 256/258/234
f 294/259/235 295/257/231 256/258/234 257/260/236
f 293/261/237 294/259/235 257/260/236 258/262/238
f 293/261/237 258/262/238 291/263/216
f 251/250/220 292/264/214 259/265/239
f 252/252/222 251/250/220 259/265/239 260/266/240
f 253/254/224 252/252/222 260/266/240 261/267/241
f 254/256/226 253/254/224 261/267/241 262/268/242
f 255/256/230 254/256/229 262/268/243 263/268/244
f 256/258/234 255/256/233 263/268/245 264/269/246
f 257/260/236 256/258/234 264/269/246 265/270/247
f 258/262/238 257/260/236 265/270/247 266/271/248
f 258/262/238 266/271/248 291/272/216
f 259/265/239 292/273/214 267/274/249
f 260/266/240 259/265/239 267/274/249 268/275/250
f 261/267/241 260/266/240 268/275/250 269/276/251
f 262/268/242 261/267/241 269/276/251 270/277/252
f 263/268/244 262/268/243 270/277/253 271/277/254
f 264/269/246 263/268/245 271/277/255 272/278/256
f 265/270/247 264/269/246 272/278/256 273/279/257
f 266/271/248 265/270/247 273/279/257 274/280/258
f 266/271/248 274/280/258 291/281/216
f 267/274/249 292/282/214 275/283/259
f 268/275/250 267/274/249 275/283/259 276/284/260
f 269/276/251 268/275/250 276/284/260 277/285/261
f 270/277/252 269/276/251 277/285/261 278/286/262
f 271/277/254 270/277/253 278/286/263 279/286/264
f 272/278/256 271/277/255 279/286/265 280/287/266
f 273/279/257 272/278/256 280/287/266 281/288/267
f 274/280/258 273/279/257 281/288/267 282/289/268
f 274/280/258 282/289/268 291/290/216
f 275/283/259 292/291/214 283/292/269
f 276/284/260 275/283/259 283/292/269 284/293/270
f 301/294/271 293/295/237 291/296/216
f 301/294/271 302/297/272 294/298/235 293/295/237
f 302/297/272 303/299/273 295/300/231 294/298/235
f 303/299/273 304/301/274 296/302/232 295/300/231
f 304/301/275 305/301/276 297/302/228 296/302/227
f 305/301/277 306/303/278 298/304/223 297/302/225
f 306/303/278 307/305/279 299/306/221 298/304/223
f 307/305/279 308/307/280 300/308/219 299/306/221
f 308/307/280 292/309/214 300/308/219
f 309/310/281 301/294/271 291/311/216
f 309/310/281 310/312/282 302/297/272 301/294/271
f 310/312/282 311/313/283 303/299/273 302/297/272
f 311/313/283 312/314/284 304/301/274 303/299/273
f 312/314/285 313/314/286 305/301/276 304/301/275
f 313/314/287 314/315/288 306/303/278 305/301/277
f 314/315/288 315/316/289 307/305/279 306/303/278
f 315/316/289 316/317/290 308/307/280 307/305/279
f 316/317/290 292/318/214 308/307/280
f 317/319/291 309/310/281 291/320/216
f 317/319/291 318/321/292 310/312/282 309/310/281
f 318/321/292 319/322/293 311/313/283 310/312/282
f 319/322/293 320/323/294 312/314/284 311/313/283
f 320/323/295 321/323/296 313/314/286 312/314/285
f 321/323/297 322/324/298 314/315/288 313/314/287
f 322/324/298 323/325/299 315/316/289 314/315/288
f 323/325/299 324/326/300 316/317/290 315/316/289
f 324/326/300 292/327/214 316/317/290
f 325/328/301 317/319/291 291/329/216
f 325/328/301 326/330/302 318/321/292 317/319/291
f 326/330/302 327/331/303 319/322/293 318/321/292
f 327/331/303 328/332/304 320/323/294 319/322/293
f 328/332/305 329/332/306 321/323/296 320/323/295
f 329/332/307 330/333/308 322/324/298 321/323/297
f 330/333/308 331/334/309 323/325/299 322/324/298
f 331/334/309 332/335/310 324/326/300 323/325/299
f 332/335/310 292/336/214 324/326/300
f 333/337/311 325/328/301 291/338/216
f 333/337/311 334/339/312 326/330/302 325/328/301
f 334/339/312 335/340/313 327/331/303 326/330/302
f 335/340/313 336/341/314 328/332/304 327/331/303
f 336/341/315 337/341/316 329/332/306 328/332/305
f 337/341/317 338/342/318 330/333/308 329/332/307
f 338/342/318 339/343/319 331/334/309 330/333/308
f 339/343/319 340/344/320 332/335/310 331/334/309
f 340/344/320 292/345/214 332/335/310
f 341/346/321 333/337/311 291/347/216
f 341/346/321 342/348/322 334/339/312 333/337/311
f 342/348/322 343/349/323 335/340/313 334/339/312
f 343/349/323 344/350/324 336/341/314 335/340/313
f 344/350/325 345/350/326 337/341/316 336/341/315
f 345/350/327 346/351/328 338/342/318 337/341/317
f 346/351/328 347/352/329 339/343/319 338/342/318
f 347/352/329 348/353/330 340/344/320 339/343/319
f 348/353/330 292/354/214 340/344/320
f 349/355/331 341/346/321 291/356/216
f 349/355/331 350/357/332 342/348/322 341/346/321
f 350/357/332 351/358/333 343/349/323 342/348/322
f 351/358/333 352/359/334 344/350/324 343/349/323
f 352/359/335 353/359/336 345/350/326 344/350/325
f 353/359/337 354/360/338 346/351/328 345/350/327
f 354/360/338 355/361/339 347/352/329 346/351/328
f 355/361/339 356/362/340 348/353/330 347/352/329
f 356/362/340 292/363/214 348/353/330
f 357/364/341 349/355/331 291/365/216
f 357/364/341 358/366/342 350/357/332 349/355/331
f 358/366/342 359/367/343 351/358/333 350/357/332
f 359/367/343 360/368/344 352/359/334 351/358/333
f 360/368/345 361/368/346 353/359/336 352/359/335
f 361/368/347 362/369/348 354/360/338 353/359/337
f 362/369/348 363/370/349 355/361/339 354/360/338
f 363/370/349 364/371/350 356/362/340 355/361/339
f 364/371/350 292/372/214 356/362/340
f 365/373/351 357/364/341 291/374/216
f 365/373/351 366/375/352 358/366/342 357/364/341
f 366/375/352 367/376/353 359/367/343 358/366/342
f 367/376/353 368/377/354 360/368/344 359/367/343
f 368/377/355 369/377/356 361/368/346 360/368/345
f 369/377/357 370/378/358 362/369/348 361/368/347
f 370/378/358 371/379/359 363/370/349 362/369/348
f 371/379/359 372/380/360 364/371/350 363/370/349
f 372/380/360 292/381/214 364/371/350
f 373/382/361 365/373/351 291/383/216
f 373/382/361 374/384/362 366/375/352 365/373/351
f 374/384/362 375/385/363 367/376/353 366/375/352
f 375/385/363 376/386/364 368/377/354 367/376/353
f 376/386/365 377/386/366 369/377/356 368/377/355
f 377/386/367 378/387/368 370/378/358 369/377/357
f 378/387/368 379/388/369 371/379/359 370/378/358
f 379/388/369 380/389/370 372/380/360 371/379/359
f 380/389/370 292/390/214 372/380/360
f 381/391/371 373/382/361 291/392/216
f 381/391/371 382/393/372 374/384/362 373/382/361
f 382/393/372 383/394/373 375/385/363 374/384/362
f 383/394/373 384/395/374 376/386/364 375/385/363
f 384/395/375 385/395/376 377/386/366 376/386/365
f 385/395/377 386/396/378 378/387/368 377/386/367
f 386/396/378 387/397/379 379/388/369 378/387/368
f 387/397/379 388/398/380 380/389/370 379/388/369
f 388/398/380 292/399/214 380/389/370
f 389/400/381 381/391/371 291/401/216
f 389/400/381 390/402/382 382/393/372 381/391/371
f 390/402/382 391/403/383 383/394/373 382/393/372
f 391/403/383 392/404/384 384/395/374 383/394/373
f 392/404/385 393/404/386 385/395/376 384/395/375
f 393/404/387 394/405/388 386/396/378 385/395/377
f 394/405/388 395/406/389 387/397/379 386/396/378
f 395/406/389 396/407/390 388/398/380 387/397/379
f 396/407/390 292/408/214 388/398/380
f 397/409/391 389/400/381 291/410/216
f 397/409/391 398/411/392 390/402/382 389/400/381
f 398/411/392 399/412/393 391/403/383 390/402/382
f 399/412/393 400/413/394 392/404/384 391/403/383
f 400/413/395 401/413/396 393/404/386 392/404/385
f 401/413/397 402/414/398 394/405/388 393/404/387
f 402/414/398 403/415/399 395/406/389 394/405/388
f 403/415/399 404/416/400 396/407/390 395/406/389
f 404/416/400 292/417/214 396/407/390
f 405/418/401 397/409/391 291/419/216
f 405/418/401 406/420/402 398/411/392 397/409/391
f 406/420/402 407/421/403 399/412/393 398/411/392
f 407/421/403 408/422/404 400/413/394 399/412/393
f 408/422/405 409/422/406 401/413/396 400/413/395
f 409/422/407 410/423/408 402/414/398 401/413/397
f 410/423/408 411/424/409 403/415/399 402/414/398
f 411/424/409 412/425/410 404/416/400 403/415/399
f 412/425/410 292/426/214 404/416/400
f 290/427/411 405/418/401 291/428/216
f 290/427/411 289/429/412 406/420/402 405/418/401
f 289/429/412 288/430/413 407/421/403 406/420/402
f 288/430/413 287/431/414 408/422/404 407/421/403
f 287/431/415 286/431/416 409/422/406 408/422/405
f 286/431/417 285/432/418 410/423/408 409/422/407
f 285/432/418 284/293/270 411/424/409 410/423/408
f 284/293/270 283/292/269 412/425/410 411/424/409
f 283/292/269 292/433/214 412/425/410
f 282/289/268 290/427/411 291/434/216
f 282/289/268 281/288/267 289/429/412 290/427/411
f 281/288/267 280/287/266 288/430/413 289/429/412
f 280/287/266 279/286/265 287/431/414 288/430/413
f 279/286/264 278/286/263 286/431/416 287/431/415
f 278/286/262 277/285/261 285/432/418 286/431/417
f 277/285/261 276/284/260 284/293/270 285/432/418
o Draw03
v -0.317490 -15.343736 -108.715714
v -0.317490 -13.548456 -108.715714
v -0.190026 -15.343736 -108.715714
v -0.190026 -13.548456 -108.715714
v -0.190026 -15.343735 -112.449997
v -0.190026 -13.548455 -112.449997
v -0.317490 -15.343735 -112.449997
v -0.317490 -13.548455 -112.449997
v -0.190026 -15.256923 -108.715714
v -0.317490 -15.256923 -108.715714
v -0.317490 -15.256922 -112.449997
v -0.190026 -15.256922 -112.449997
v -0.190026 -13.548456 -108.832581
v -0.190026 -15.256923 -108.832581
v -0.190026 -15.343736 -108.832581
v -0.317490 -15.343736 -108.832581
v -0.317490 -15.256923 -108.832581
v -0.317490 -13.548456 -108.832581
v -0.190026 -13.548455 -112.322159
v -0.190026 -15.256922 -112.322159
v -0.190026 -15.343735 -112.322159
v -0.317490 -15.343735 -112.322159
v -0.317490 -15.256922 -112.322159
v -0.317490 -13.548455 -112.322159
v -6.488665 -15.343736 -108.715714
v -6.488665 -13.548456 -108.715714
v -6.488665 -15.343735 -112.449997
v -6.488665 -13.548455 -112.449997
v -6.488665 -15.256923 -108.715714
v -6.488665 -15.256922 -112.449997
v -6.488665 -15.343736 -108.832581
v -6.488665 -15.256923 -108.832581
v -6.488665 -13.548456 -108.832581
v -6.488665 -15.343735 -112.322159
v -6.488665 -15.256922 -112.322159
v -6.488665 -13.548455 -112.322159
v -0.058347 -14.180186 -110.519165
v -0.067271 -14.211862 -110.508873
v -0.091653 -14.235050 -110.501335
v -0.124958 -14.243537 -110.498581
v -0.124958 -14.243537 -110.498581
v -0.158263 -14.235050 -110.501335
v -0.182645 -14.211862 -110.508873
v -0.191569 -14.180186 -110.519165
v -0.058347 -14.148720 -110.457405
v -0.067271 -14.175665 -110.437828
v -0.091653 -14.195390 -110.423500
v -0.124958 -14.202609 -110.418251
v -0.124958 -14.202609 -110.418251
v -0.158263 -14.195390 -110.423500
v -0.182645 -14.175665 -110.437828
v -0.191569 -14.148720 -110.457405
v -0.058347 -14.099710 -110.408394
v -0.067271 -14.119287 -110.381454
v -0.091653 -14.133617 -110.361725
v -0.124958 -14.138863 -110.354507
v -0.124958 -14.138863 -110.354507
v -0.158263 -14.133617 -110.361725
v -0.182645 -14.119287 -110.381454
v -0.191569 -14.099710 -110.408394
v -0.058347 -14.037953 -110.376930
v -0.067271 -14.048245 -110.345253
v -0.091653 -14.055779 -110.322067
v -0.124958 -14.058537 -110.313576
v -0.124958 -14.058537 -110.313576
v -0.158263 -14.055779 -110.322067
v -0.182645 -14.048245 -110.345253
v -0.191569 -14.037953 -110.376930
v -0.058347 -13.969496 -110.366089
v -0.067271 -13.969496 -110.332779
v -0.091653 -13.969496 -110.308403
v -0.124958 -13.969496 -110.299477
v -0.124958 -13.969496 -110.299477
v -0.158263 -13.969496 -110.308403
v -0.182645 -13.969496 -110.332779
v -0.191569 -13.969496 -110.366089
v -0.191569 -13.969496 -110.587624
v -0.058347 -13.969496 -110.587624
v -0.191569 -14.191029 -110.587624
v -0.182645 -14.224335 -110.587624
v -0.158263 -14.248715 -110.587624
v -0.124958 -14.257640 -110.587624
v -0.124958 -14.257640 -110.587624
v -0.091653 -14.248715 -110.587624
v -0.067271 -14.224335 -110.587624
v -0.058347 -14.191029 -110.587624
v -0.191569 -14.180186 -110.656075
v -0.182645 -14.211862 -110.666367
v -0.158263 -14.235049 -110.673904
v -0.124958 -14.243537 -110.676659
v -0.124958 -14.243537 -110.676659
v -0.091653 -14.235049 -110.673904
v -0.067271 -14.211862 -110.666367
v -0.058347 -14.180186 -110.656075
v -0.191569 -14.148720 -110.717834
v -0.182645 -14.175665 -110.737411
v -0.158263 -14.195390 -110.751740
v -0.124958 -14.202609 -110.756989
v -0.124958 -14.202609 -110.756989
v -0.091653 -14.195390 -110.751740
v -0.067271 -14.175665 -110.737411
v -0.058347 -14.148720 -110.717834
v -0.191569 -14.099710 -110.766846
v -0.182645 -14.119287 -110.793785
v -0.158263 -14.133617 -110.813515
v -0.124958 -14.138863 -110.820732
v -0.124958 -14.138863 -110.820732
v -0.091653 -14.133617 -110.813515
v -0.067271 -14.119287 -110.793785
v -0.058347 -14.099710 -110.766846
v -0.191569 -14.037953 -110.798309
v -0.182645 -14.048245 -110.829987
v -0.158263 -14.055779 -110.853172
v -0.124958 -14.058537 -110.861664
v -0.124958 -14.058537 -110.861664
v -0.091653 -14.055779 -110.853172
v -0.067271 -14.048245 -110.829987
v -0.058347 -14.037953 -110.798309
v -0.191569 -13.969496 -110.809151
v -0.182645 -13.969496 -110.842461
v -0.158263 -13.969496 -110.866837
v -0.124958 -13.969496 -110.875763
v -0.124958 -13.969496 -110.875763
v -0.091653 -13.969496 -110.866837
v -0.067271 -13.969496 -110.842461
v -0.058347 -13.969496 -110.809151
v -0.191569 -13.901039 -110.798309
v -0.182645 -13.890747 -110.829987
v -0.158263 -13.883212 -110.853172
v -0.124958 -13.880455 -110.861664
v -0.124958 -13.880455 -110.861664
v -0.091653 -13.883212 -110.853172
v -0.067271 -13.890747 -110.829987
v -0.058347 -13.901039 -110.798309
v -0.191569 -13.839282 -110.766846
v -0.182645 -13.819706 -110.793785
v -0.158263 -13.805375 -110.813515
v -0.124958 -13.800130 -110.820732
v -0.124958 -13.800130 -110.820732
v -0.091653 -13.805375 -110.813515
v -0.067271 -13.819706 -110.793785
v -0.058347 -13.839282 -110.766846
v -0.191569 -13.790272 -110.717834
v -0.182645 -13.763328 -110.737411
v -0.158263 -13.743603 -110.751740
v -0.124958 -13.736383 -110.756989
v -0.124958 -13.736383 -110.756989
v -0.091653 -13.743603 -110.751740
v -0.067271 -13.763328 -110.737411
v -0.058347 -13.790272 -110.717834
v -0.191569 -13.758806 -110.656075
v -0.182645 -13.727131 -110.666367
v -0.158263 -13.703942 -110.673904
v -0.124958 -13.695456 -110.676659
v -0.124958 -13.695456 -110.676659
v -0.091653 -13.703942 -110.673904
v -0.067271 -13.727131 -110.666367
v -0.058347 -13.758806 -110.656075
v -0.191569 -13.747963 -110.587616
v -0.182645 -13.714658 -110.587616
v -0.158263 -13.690276 -110.587616
v -0.124958 -13.681353 -110.587616
v -0.124958 -13.681353 -110.587616
v -0.091653 -13.690276 -110.587616
v -0.067271 -13.714658 -110.587616
v -0.058347 -13.747963 -110.587616
v -0.191569 -13.758806 -110.519165
v -0.182645 -13.727131 -110.508873
v -0.158263 -13.703942 -110.501335
v -0.124958 -13.695456 -110.498581
v -0.124958 -13.695456 -110.498581
v -0.091653 -13.703942 -110.501335
v -0.067271 -13.727131 -110.508873
v -0.058347 -13.758806 -110.519165
v -0.191569 -13.790272 -110.457405
v -0.182645 -13.763328 -110.437828
v -0.158263 -13.743603 -110.423500
v -0.124958 -13.736383 -110.418251
v -0.124958 -13.736383 -110.418251
v -0.091653 -13.743603 -110.423500
v -0.067271 -13.763328 -110.437828
v -0.058347 -13.790272 -110.457405
v -0.191569 -13.839282 -110.408394
v -0.182645 -13.819706 -110.381454
v -0.158263 -13.805375 -110.361725
v -0.124958 -13.800130 -110.354507
v -0.124958 -13.800130 -110.354507
v -0.091653 -13.805375 -110.361725
v -0.067271 -13.819706 -110.381454
v -0.058347 -13.839282 -110.408394
v -0.191569 -13.901039 -110.376930
v -0.182645 -13.890747 -110.345253
v -0.158263 -13.883213 -110.322067
v -0.124958 -13.880455 -110.313576
v -0.124958 -13.880455 -110.313576
v -0.091653 -13.883213 -110.322067
v -0.067271 -13.890747 -110.345253
v -0.058347 -13.901039 -110.376930
vn -0.0000 -0.0000 1.0000
vn 1.0000 -0.0000 -0.0000
vn -0.0000 -0.0000 -1.0000
vn -1.0000 -0.0000 -0.0000
vn -0.0000 1.0000 -0.0000
vn -0.0000 -1.0000 -0.0000
vn 0.9915 -0.1305 -0.0000
vn 0.9915 -0.1241 0.0403
vn 0.8664 -0.4994 -0.0000
vn 0.8664 -0.4749 0.1543
vn 0.5006 -0.8657 -0.0000
vn 0.5007 -0.8233 0.2675
vn 0.2588 -0.9659 -0.0000
vn 0.2588 -0.9187 0.2985
vn -0.1796 -0.6700 0.7203
vn 0.1796 -0.6700 0.7203
vn 0.1576 -0.5593 0.8139
vn -0.1576 -0.5593 0.8139
vn -0.5006 -0.8657 -0.0000
vn -0.2588 -0.9659 -0.0000
vn -0.2588 -0.9187 0.2985
vn -0.5006 -0.8233 0.2675
vn -0.8664 -0.4994 -0.0000
vn -0.8664 -0.4749 0.1543
vn -0.9915 -0.1305 -0.0000
vn -0.9915 -0.1241 0.0403
vn 0.9915 -0.1055 0.0767
vn 0.8664 -0.4040 0.2935
vn 0.5006 -0.7003 0.5088
vn 0.2588 -0.7815 0.5678
vn 0.1435 -0.4329 0.8899
vn -0.1434 -0.4330 0.8899
vn -0.2588 -0.7815 0.5678
vn -0.5006 -0.7003 0.5088
vn -0.8664 -0.4040 0.2935
vn -0.9915 -0.1055 0.0767
vn 0.9915 -0.0767 0.1055
vn 0.8664 -0.2935 0.4040
vn 0.5006 -0.5088 0.7003
vn 0.2588 -0.5678 0.7815
vn 0.1346 -0.2951 0.9459
vn -0.1345 -0.2951 0.9459
vn -0.2588 -0.5678 0.7814
vn -0.5007 -0.5088 0.7003
vn -0.8664 -0.2935 0.4040
vn -0.9915 -0.0767 0.1055
vn 0.9915 -0.0403 0.1241
vn 0.8664 -0.1543 0.4749
vn 0.5007 -0.2675 0.8233
vn 0.2588 -0.2985 0.9187
vn 0.1296 -0.1495 0.9802
vn -0.1296 -0.1495 0.9802
vn -0.2588 -0.2985 0.9186
vn -0.5006 -0.2675 0.8233
vn -0.8664 -0.1543 0.4749
vn -0.9915 -0.0403 0.1241
vn 0.9915 -0.0000 0.1305
vn 0.8664 -0.0000 0.4994
vn -0.9915 -0.1241 -0.0403
vn -0.8664 -0.4749 -0.1543
vn -0.5007 -0.8233 -0.2675
vn -0.2588 -0.9187 -0.2985
vn -0.2141 -0.7608 0.6127
vn 0.2144 -0.7607 0.6127
vn 0.2588 -0.9187 -0.2985
vn 0.5006 -0.8233 -0.2675
vn 0.8664 -0.4749 -0.1543
vn 0.9915 -0.1241 -0.0403
vn -0.9914 -0.1056 -0.0767
vn -0.8664 -0.4040 -0.2935
vn -0.5006 -0.7003 -0.5088
vn -0.2588 -0.7815 -0.5678
vn -0.2726 -0.8242 0.4964
vn 0.2730 -0.8241 0.4964
vn 0.2588 -0.7815 -0.5678
vn 0.5006 -0.7003 -0.5088
vn 0.8664 -0.4040 -0.2935
vn 0.9915 -0.1055 -0.0767
vn -0.9915 -0.0767 -0.1055
vn -0.8664 -0.2935 -0.4040
vn -0.5006 -0.5088 -0.7003
vn -0.2588 -0.5678 -0.7815
vn -0.3833 -0.8415 0.3808
vn 0.3836 -0.8413 0.3808
vn 0.2588 -0.5678 -0.7814
vn 0.5006 -0.5088 -0.7003
vn 0.8664 -0.2935 -0.4040
vn 0.9915 -0.0767 -0.1055
vn -0.9915 -0.0403 -0.1241
vn -0.8664 -0.1543 -0.4749
vn -0.5007 -0.2675 -0.8233
vn -0.2588 -0.2985 -0.9187
vn -0.6270 -0.7230 0.2901
vn 0.6270 -0.7230 0.2901
vn 0.2588 -0.2985 -0.9187
vn 0.5006 -0.2675 -0.8233
vn 0.8664 -0.1543 -0.4749
vn 0.9915 -0.0403 -0.1241
vn -0.9915 -0.0000 -0.1305
vn -0.8664 -0.0000 -0.4994
vn -0.5006 -0.0000 -0.8657
vn -0.2588 -0.0000 -0.9659
vn -0.9630 -0.0000 0.2696
vn 0.9630 -0.0000 0.2696
vn 0.2588 -0.0000 -0.9659
vn 0.5006 -0.0000 -0.8657
vn 0.8664 -0.0000 -0.4994
vn 0.9915 -0.0000 -0.1305
vn -0.9915 0.0403 -0.1241
vn -0.8664 0.1543 -0.4749
vn -0.5006 0.2675 -0.8233
vn -0.2588 0.2985 -0.9186
vn -0.6270 0.7230 0.2901
vn 0.6268 0.7232 0.2901
vn 0.2588 0.2985 -0.9186
vn 0.5006 0.2675 -0.8233
vn 0.8664 0.1543 -0.4749
vn 0.9915 0.0403 -0.1241
vn -0.9915 0.0767 -0.1055
vn -0.8664 0.2935 -0.4040
vn -0.5006 0.5088 -0.7003
vn -0.2588 0.5678 -0.7815
vn -0.3836 0.8413 0.3808
vn 0.3832 0.8415 0.3808
vn 0.2588 0.5678 -0.7815
vn 0.5006 0.5088 -0.7003
vn 0.8664 0.2935 -0.4040
vn 0.9915 0.0767 -0.1055
vn -0.9915 0.1055 -0.0767
vn -0.8664 0.4040 -0.2935
vn -0.5006 0.7003 -0.5088
vn -0.2588 0.7815 -0.5678
vn -0.2730 0.8241 0.4964
vn 0.2727 0.8242 0.4964
vn 0.2588 0.7815 -0.5678
vn 0.5006 0.7003 -0.5088
vn 0.8664 0.4040 -0.2935
vn 0.9915 0.1055 -0.0767
vn -0.9915 0.1241 -0.0403
vn -0.8664 0.4749 -0.1543
vn -0.5006 0.8233 -0.2675
vn -0.2588 0.9187 -0.2985
vn -0.2143 0.7607 0.6127
vn 0.2143 0.7607 0.6127
vn 0.2588 0.9187 -0.2985
vn 0.5006 0.8233 -0.2675
vn 0.8664 0.4749 -0.1543
vn 0.9914 0.1241 -0.0403
vn -0.9915 0.1305 -0.0000
vn -0.8664 0.4994 -0.0000
vn -0.5007 0.8656 -0.0000
vn -0.2588 0.9659 -0.0000
vn -0.1796 0.6700 0.7203
vn 0.1796 0.6700 0.7203
vn 0.2588 0.9659 -0.0000
vn 0.5006 0.8657 -0.0000
vn 0.8664 0.4994 -0.0000
vn 0.9915 0.1305 -0.0000
vn -0.9915 0.1241 0.0403
vn -0.8664 0.4749 0.1543
vn -0.5006 0.8233 0.2675
vn -0.2588 0.9187 0.2985
vn -0.1576 0.5593 0.8139
vn 0.1576 0.5593 0.8139
vn 0.2588 0.9186 0.2985
vn 0.5006 0.8233 0.2675
vn 0.8664 0.4749 0.1543
vn 0.9914 0.1241 0.0403
vn -0.9915 0.1055 0.0767
vn -0.8664 0.4040 0.2935
vn -0.5006 0.7003 0.5088
vn -0.2588 0.7815 0.5678
vn -0.1435 0.4329 0.8899
vn 0.1434 0.4330 0.8899
vn 0.2588 0.7815 0.5678
vn 0.5006 0.7003 0.5088
vn 0.8664 0.4040 0.2935
vn 0.9915 0.1055 0.0767
vn -0.9915 0.0767 0.1055
vn -0.8664 0.2935 0.4040
vn -0.5006 0.5088 0.7003
vn -0.2588 0.5678 0.7815
vn -0.1347 0.2951 0.9459
vn 0.1345 0.2951 0.9459
vn 0.2588 0.5678 0.7815
vn 0.5006 0.5088 0.7003
vn 0.8664 0.2935 0.4040
vn 0.9915 0.0767 0.1055
vn -0.9915 0.0403 0.1241
vn -0.8664 0.1543 0.4749
vn -0.5006 0.2675 0.8233
vn -0.2588 0.2985 0.9186
vn -0.1297 0.1495 0.9802
vn 0.1296 0.1495 0.9802
vn 0.2588 0.2985 0.9186
vn 0.5006 0.2675 0.8233
vn 0.8664 0.1543 0.4749
vn 0.9915 0.0403 0.1241
vn -0.9915 -0.0000 0.1305
vn -0.8664 -0.0000 0.4994
vn -0.5006 -0.0000 0.8657
vn -0.2588 -0.0000 0.9659
vn -0.1280 -0.0000 0.9918
vn 0.1280 -0.0000 0.9918
vn 0.2588 -0.0000 0.9659
vn 0.5006 -0.0000 0.8657
vt 1.000000 0.166667
vt 1.000000 1.000000
vt 0.000000 1.000000
vt 0.000000 0.166667
vt 0.166667 0.166667
vt 0.166667 1.000000
vt 0.833333 0.166667
vt 0.833333 1.000000
vt 1.000000 0.000000
vt 0.000000 0.000000
vt 1.000000 0.833333
vt 0.000000 0.833333
vt 0.833333 0.000000
vt 0.166667 0.000000
vt 0.861111 0.166667
vt 0.861111 1.000000
vt 0.861111 0.000000
vt 0.000000 0.138889
vt 1.000000 0.138889
vt 0.138889 0.166667
vt 0.138889 0.000000
vt 0.833333 1.000000
vt 0.138889 1.000000
vt 1.000000 0.861111
vt 0.000000 0.861111
vt 0.138889 1.000000
vt 1.000000 0.659153
vt 0.975000 1.000000
vt 0.950000 0.659153
vt 1.000000 0.606102
vt 0.950000 0.606102
vt 1.000000 0.553051
vt 0.950000 0.553051
vt 1.000000 0.500000
vt 0.950000 0.500000
vt 1.000000 0.446949
vt 0.950000 0.446949
vt 1.000000 0.393898
vt 0.950000 0.393898
vt 1.000000 0.340847
vt 0.950000 0.340847
vt 0.975000 0.000000
vt 0.925000 1.000000
vt 0.900000 0.659153
vt 0.900000 0.606102
vt 0.900000 0.553051
vt 0.900000 0.500000
vt 0.900000 0.446949
vt 0.900000 0.393898
vt 0.900000 0.340847
vt 0.925000 0.000000
vt 0.875000 1.000000
vt 0.850000 0.659153
vt 0.850000 0.606102
vt 0.850000 0.553051
vt 0.850000 0.500000
vt 0.850000 0.446949
vt 0.850000 0.393898
vt 0.850000 0.340847
vt 0.875000 0.000000
vt 0.825000 1.000000
vt 0.800000 0.659153
vt 0.800000 0.606102
vt 0.800000 0.553051
vt 0.800000 0.500000
vt 0.800000 0.446949
vt 0.800000 0.393898
vt 0.800000 0.340847
vt 0.825000 0.000000
vt 0.775000 1.000000
vt 0.750000 0.659153
vt 0.750000 0.606102
vt 0.050000 0.340847
vt 0.000000 0.340847
vt 0.025000 0.000000
vt 0.050000 0.393898
vt 0.000000 0.393898
vt 0.050000 0.446949
vt 0.000000 0.446949
vt 0.050000 0.500000
vt 0.000000 0.500000
vt 0.050000 0.553051
vt 0.000000 0.553051
vt 0.050000 0.606102
vt 0.000000 0.606102
vt 0.050000 0.659153
vt 0.000000 0.659153
vt 0.025000 1.000000
vt 0.100000 0.340847
vt 0.075000 0.000000
vt 0.100000 0.393898
vt 0.100000 0.446949
vt 0.100000 0.500000
vt 0.100000 0.553051
vt 0.100000 0.606102
vt 0.100000 0.659153
vt 0.075000 1.000000
vt 0.150000 0.340847
vt 0.125000 0.000000
vt 0.150000 0.393898
vt 0.150000 0.446949
vt 0.150000 0.500000
vt 0.150000 0.553051
vt 0.150000 0.606102
vt 0.150000 0.659153
vt 0.125000 1.000000
vt 0.200000 0.340847
vt 0.175000 0.000000
vt 0.200000 0.393898
vt 0.200000 0.446949
vt 0.200000 0.500000
vt 0.200000 0.553051
vt 0.200000 0.606102
vt 0.200000 0.659153
vt 0.175000 1.000000
vt 0.250000 0.340847
vt 0.225000 0.000000
vt 0.250000 0.393898
vt 0.250000 0.446949
vt 0.250000 0.500000
vt 0.250000 0.553051
vt 0.250000 0.606102
vt 0.250000 0.659153
vt 0.225000 1.000000
vt 0.300000 0.340847
vt 0.275000 0.000000
vt 0.300000 0.393898
vt 0.300000 0.446949
vt 0.300000 0.500000
vt 0.300000 0.553051
vt 0.300000 0.606102
vt 0.300000 0.659153
vt 0.275000 1.000000
vt 0.350000 0.340847
vt 0.325000 0.000000
vt 0.350000 0.393898
vt 0.350000 0.446949
vt 0.350000 0.500000
vt 0.350000 0.553051
vt 0.350000 0.606102
vt 0.350000 0.659153
vt 0.325000 1.000000
vt 0.400000 0.340847
vt 0.375000 0.000000
vt 0.400000 0.393898
vt 0.400000 0.446949
vt 0.400000 0.500000
vt 0.400000 0.553051
vt 0.400000 0.606102
vt 0.400000 0.659153
vt 0.375000 1.000000
vt 0.450000 0.340847
vt 0.425000 0.000000
vt 0.450000 0.393898
vt 0.450000 0.446949
vt 0.450000 0.500000
vt 0.450000 0.553051
vt 0.450000 0.606102
vt 0.450000 0.659153
vt 0.425000 1.000000
vt 0.500000 0.340847
vt 0.475000 0.000000
vt 0.500000 0.393898
vt 0.500000 0.446949
vt 0.500000 0.500000
vt 0.500000 0.553051
vt 0.500000 0.606102
vt 0.500000 0.659153
vt 0.475000 1.000000
vt 0.550000 0.340847
vt 0.525000 0.000000
vt 0.550000 0.393898
vt 0.550000 0.446949
vt 0.550000 0.500000
vt 0.550000 0.553051
vt 0.550000 0.606102
vt 0.550000 0.659153
vt 0.525000 1.000000
vt 0.600000 0.340847
vt 0.575000 0.000000
vt 0.600000 0.393898
vt 0.600000 0.446949
vt 0.600000 0.500000
vt 0.600000 0.553051
vt 0.600000 0.606102
vt 0.600000 0.659153
vt 0.575000 1.000000
vt 0.650000 0.340847
vt 0.625000 0.000000
vt 0.650000 0.393898
vt 0.650000 0.446949
vt 0.650000 0.500000
vt 0.650000 0.553051
vt 0.650000 0.606102
vt 0.650000 0.659153
vt 0.625000 1.000000
vt 0.700000 0.340847
vt 0.675000 0.000000
vt 0.700000 0.393898
vt 0.700000 0.446949
vt 0.700000 0.500000
vt 0.700000 0.553051
vt 0.700000 0.606102
vt 0.700000 0.659153
vt 0.675000 1.000000
vt 0.750000 0.340847
vt 0.725000 0.000000
vt 0.750000 0.393898
vt 0.750000 0.446949
vt 0.750000 0.500000
vt 0.750000 0.553051
vt 0.725000 1.000000
vt 0.775000 0.000000
s 1
usemtl Mat.8
f 421/435/419 416/436/419 414/437/419 422/438/419
f 426/439/420 425/440/420 416/437/420 421/438/420
f 423/435/421 420/436/421 418/437/421 424/438/421
f 444/441/422 441/435/422 438/436/422 445/442/422
f 416/443/423 425/435/423 430/438/423 414/444/423
f 427/445/424 415/436/424 413/437/424 428/446/424
f 422/438/419 413/444/419 415/443/419 421/435/419
f 444/441/422 443/447/422 437/443/422 441/435/422
f 424/438/421 417/444/421 419/443/421 423/435/421
f 426/439/420 421/438/420 415/444/420 427/448/420
f 426/439/420 432/449/420 431/450/420 425/440/420
f 427/448/420 433/451/420 432/449/420 426/439/420
f 428/446/424 434/452/424 433/453/424 427/445/424
f 444/441/422 447/454/422 446/455/422 443/447/422
f 430/456/422 436/457/422 435/454/422 429/441/422
f 425/435/423 431/458/423 436/459/423 430/438/423
f 432/449/420 424/435/420 418/436/420 431/450/420
f 433/451/420 417/443/420 424/435/420 432/449/420
f 434/452/424 419/444/424 417/443/424 433/453/424
f 447/454/422 442/438/422 439/444/422 446/455/422
f 448/460/422 440/437/422 442/438/422 447/454/422
f 431/458/423 418/436/423 420/437/423 436/459/423
f 438/436/423 414/436/423 430/456/423 445/442/423
f 441/435/419 422/435/419 414/436/419 438/436/419
f 445/442/421 430/456/421 429/441/421 444/441/421
f 437/443/419 413/443/419 422/435/419 441/435/419
f 443/447/424 428/447/424 413/443/424 437/443/424
f 446/455/424 434/455/424 428/447/424 443/447/424
f 444/441/423 429/441/423 435/454/423 447/454/423
f 439/444/424 419/444/424 434/455/424 446/455/424
f 442/438/421 423/438/421 419/444/421 439/444/421
f 440/437/421 420/437/421 423/438/421 442/438/421
f 448/460/423 436/457/423 420/437/423 440/437/423
f 447/454/419 435/454/419 436/457/419 448/460/419
usemtl Mat.3
f 498/461/425 490/462/420 449/463/426
f 497/464/427 498/461/425 449/463/426 450/465/428
f 496/466/429 497/464/427 450/465/428 451/467/430
f 495/468/431 496/466/429 451/467/430 452/469/432
f 494/468/433 495/468/434 452/469/435 453/469/436
f 493/470/437 494/468/438 453/469/439 454/471/440
f 492/472/441 493/470/437 454/471/440 455/473/442
f 491/474/443 492/472/441 455/473/442 456/475/444
f 491/474/443 456/475/444 489/476/422
f 449/463/426 490/477/420 457/478/445
f 450/465/428 449/463/426 457/478/445 458/479/446
f 451/467/430 450/465/428 458/479/446 459/480/447
f 452/469/432 451/467/430 459/480/447 460/481/448
f 453/469/436 452/469/435 460/481/449 461/481/450
f 454/471/440 453/469/439 461/481/451 462/482/452
f 455/473/442 454/471/440 462/482/452 463/483/453
f 456/475/444 455/473/442 463/483/453 464/484/454
f 456/475/444 464/484/454 489/485/422
f 457/478/445 490/486/420 465/487/455
f 458/479/446 457/478/445 465/487/455 466/488/456
f 459/480/447 458/479/446 466/488/456 467/489/457
f 460/481/448 459/480/447 467/489/457 468/490/458
f 461/481/450 460/481/449 468/490/459 469/490/460
f 462/482/452 461/481/451 469/490/461 470/491/462
f 463/483/453 462/482/452 470/491/462 471/492/463
f 464/484/454 463/483/453 471/492/463 472/493/464
f 464/484/454 472/493/464 489/494/422
f 465/487/455 490/495/420 473/496/465
f 466/488/456 465/487/455 473/496/465 474/497/466
f 467/489/457 466/488/456 474/497/466 475/498/467
f 468/490/458 467/489/457 475/498/467 476/499/468
f 469/490/460 468/490/459 476/499/469 477/499/470
f 470/491/462 469/490/461 477/499/471 478/500/472
f 471/492/463 470/491/462 478/500/472 479/501/473
f 472/493/464 471/492/463 479/501/473 480/502/474
f 472/493/464 480/502/474 489/503/422
f 473/496/465 490/504/420 481/505/475
f 474/497/466 473/496/465 481/505/475 482/506/476
f 499/507/477 491/508/443 489/509/422
f 499/507/477 500/510/478 492/511/441 491/508/443
f 500/510/478 501/512/479 493/513/437 492/511/441
f 501/512/479 502/514/480 494/515/438 493/513/437
f 502/514/481 503/514/482 495/515/434 494/515/433
f 503/514/483 504/516/484 496/517/429 495/515/431
f 504/516/484 505/518/485 497/519/427 496/517/429
f 505/518/485 506/520/486 498/521/425 497/519/427
f 506/520/486 490/522/420 498/521/425
f 507/523/487 499/507/477 489/524/422
f 507/523/487 508/525/488 500/510/478 499/507/477
f 508/525/488 509/526/489 501/512/479 500/510/478
f 509/526/489 510/527/490 502/514/480 501/512/479
f 510/527/491 511/527/492 503/514/482 502/514/481
f 511/527/493 512/528/494 504/516/484 503/514/483
f 512/528/494 513/529/495 505/518/485 504/516/484
f 513/529/495 514/530/496 506/520/486 505/518/485
f 514/530/496 490/531/420 506/520/486
f 515/532/497 507/523/487 489/533/422
f 515/532/497 516/534/498 508/525/488 507/523/487
f 516/534/498 517/535/499 509/526/489 508/525/488
f 517/535/499 518/536/500 510/527/490 509/526/489
f 518/536/501 519/536/502 511/527/492 510/527/491
f 519/536/503 520/537/504 512/528/494 511/527/493
f 520/537/504 521/538/505 513/529/495 512/528/494
f 521/538/505 522/539/506 514/530/496 513/529/495
f 522/539/506 490/540/420 514/530/496
f 523/541/507 515/532/497 489/542/422
f 523/541/507 524/543/508 516/534/498 515/532/497
f 524/543/508 525/544/509 517/535/499 516/534/498
f 525/544/509 526/545/510 518/536/500 517/535/499
f 526/545/511 527/545/512 519/536/502 518/536/501
f 527/545/513 528/546/514 520/537/504 519/536/503
f 528/546/514 529/547/515 521/538/505 520/537/504
f 529/547/515 530/548/516 522/539/506 521/538/505
f 530/548/516 490/549/420 522/539/506
f 531/550/517 523/541/507 489/551/422
f 531/550/517 532/552/518 524/543/508 523/541/507
f 532/552/518 533/553/519 525/544/509 524/543/508
f 533/553/519 534/554/520 526/545/510 525/544/509
f 534/554/521 535/554/522 527/545/512 526/545/511
f 535/554/523 536/555/524 528/546/514 527/545/513
f 536/555/524 537/556/525 529/547/515 528/546/514
f 537/556/525 538/557/526 530/548/516 529/547/515
f 538/557/526 490/558/420 530/548/516
f 539/559/527 531/550/517 489/560/422
f 539/559/527 540/561/528 532/552/518 531/550/517
f 540/561/528 541/562/529 533/553/519 532/552/518
f 541/562/529 542/563/530 534/554/520 533/553/519
f 542/563/531 543/563/532 535/554/522 534/554/521
f 543/563/533 544/564/534 536/555/524 535/554/523
f 544/564/534 545/565/535 537/556/525 536/555/524
f 545/565/535 546/566/536 538/557/526 537/556/525
f 546/566/536 490/567/420 538/557/526
f 547/568/537 539/559/527 489/569/422
f 547/568/537 548/570/538 540/561/528 539/559/527
f 548/570/538 549/571/539 541/562/529 540/561/528
f 549/571/539 550/572/540 542/563/530 541/562/529
f 550/572/541 551/572/542 543/563/532 542/563/531
f 551/572/543 552/573/544 544/564/534 543/563/533
f 552/573/544 553/574/545 545/565/535 544/564/534
f 553/574/545 554/575/546 546/566/536 545/565/535
f 554/575/546 490/576/420 546/566/536
f 555/577/547 547/568/537 489/578/422
f 555/577/547 556/579/548 548/570/538 547/568/537
f 556/579/548 557/580/549 549/571/539 548/570/538
f 557/580/549 558/581/550 550/572/540 549/571/539
f 558/581/551 559/581/552 551/572/542 550/572/541
f 559/581/553 560/582/554 552/573/544 551/572/543
f 560/582/554 561/583/555 553/574/545 552/573/544
f 561/583/555 562/584/556 554/575/546 553/574/545
f 562/584/556 490/585/420 554/575/546
f 563/586/557 555/577/547 489/587/422
f 563/586/557 564/588/558 556/579/548 555/577/547
f 564/588/558 565/589/559 557/580/549 556/579/548
f 565/589/559 566/590/560 558/581/550 557/580/549
f 566/590/561 567/590/562 559/581/552 558/581/551
f 567/590/563 568/591/564 560/582/554 559/581/553
f 568/591/564 569/592/565 561/583/555 560/582/554
f 569/592/565 570/593/566 562/584/556 561/583/555
f 570/593/566 490/594/420 562/584/556
f 571/595/567 563/586/557 489/596/422
f 571/595/567 572/597/568 564/588/558 563/586/557
f 572/597/568 573/598/569 565/589/559 564/588/558
f 573/598/569 574/599/570 566/590/560 565/589/559
f 574/599/571 575/599/572 567/590/562 566/590/561
f 575/599/573 576/600/574 568/591/564 567/590/563
f 576/600/574 577/601/575 569/592/565 568/591/564
f 577/601/575 578/602/576 570/593/566 569/592/565
f 578/602/576 490/603/420 570/593/566
f 579/604/577 571/595/567 489/605/422
f 579/604/577 580/606/578 572/597/568 571/595/567
f 580/606/578 581/607/579 573/598/569 572/597/568
f 581/607/579 582/608/580 574/599/570 573/598/569
f 582/608/581 583/608/582 575/599/572 574/599/571
f 583/608/583 584/609/584 576/600/574 575/599/573
f 584/609/584 585/610/585 577/601/575 576/600/574
f 585/610/585 586/611/586 578/602/576 577/601/575
f 586/611/586 490/612/420 578/602/576
f 587/613/587 579/604/577 489/614/422
f 587/613/587 588/615/588 580/606/578 579/604/577
f 588/615/588 589/616/589 581/607/579 580/606/578
f 589/616/589 590/617/590 582/608/580 581/607/579
f 590/617/591 591/617/592 583/608/582 582/608/581
f 591/617/593 592/618/594 584/609/584 583/608/583
f 592/618/594 593/619/595 585/610/585 584/609/584
f 593/619/595 594/620/596 586/611/586 585/610/585
f 594/620/596 490/621/420 586/611/586
f 595/622/597 587/613/587 489/623/422
f 595/622/597 596/624/598 588/615/588 587/613/587
f 596/624/598 597/625/599 589/616/589 588/615/588
f 597/625/599 598/626/600 590/617/590 589/616/589
f 598/626/601 599/626/602 591/617/592 590/617/591
f 599/626/603 600/627/604 592/618/594 591/617/593
f 600/627/604 601/628/605 593/619/595 592/618/594
f 601/628/605 602/629/606 594/620/596 593/619/595
f 602/629/606 490/630/420 594/620/596
f 603/631/607 595/622/597 489/632/422
f 603/631/607 604/633/608 596/624/598 595/622/597
f 604/633/608 605/634/609 597/625/599 596/624/598
f 605/634/609 606/635/610 598/626/600 597/625/599
f 606/635/611 607/635/612 599/626/602 598/626/601
f 607/635/613 608/636/614 600/627/604 599/626/603
f 608/636/614 609/637/615 601/628/605 600/627/604
f 609/637/615 610/638/616 602/629/606 601/628/605
f 610/638/616 490/639/420 602/629/606
f 488/640/617 603/631/607 489/641/422
f 488/640/617 487/642/618 604/633/608 603/631/607
f 487/642/618 486/643/619 605/634/609 604/633/608
f 486/643/619 485/644/620 606/635/610 605/634/609
f 485/644/621 484/644/622 607/635/612 606/635/611
f 484/644/623 483/645/624 608/636/614 607/635/613
f 483/645/624 482/506/476 609/637/615 608/636/614
f 482/506/476 481/505/475 610/638/616 609/637/615
f 481/505/475 490/646/420 610/638/616
f 480/502/474 488/640/617 489/647/422
f 480/502/474 479/501/473 487/642/618 488/640/617
f 479/501/473 478/500/472 486/643/619 487/642/618
f 478/500/472 477/499/471 485/644/620 486/643/619
f 477/499/470 476/499/469 484/644/622 485/644/621
f 476/499/468 475/498/467 483/645/624 484/644/623
f 475/498/467 474/497/466 482/506/476 483/645/624
