# Blender 4.5.3 LTS
# www.blender.org
mtllib 窗户.mtl
o Window
v -47.913086 -10.522727 37.027550
v -47.913086 -6.241690 37.027550
v -47.913086 -1.960653 37.027550
v -47.913086 2.320385 37.027550
v -47.463089 -10.522727 37.027550
v -47.463089 -6.241690 37.027550
v -47.463089 -1.960653 37.027550
v -47.463089 2.320385 37.027550
v -47.463089 -10.522726 33.015686
v -47.463089 -6.241689 33.015686
v -47.463089 -1.960652 33.015686
v -47.463089 2.320385 33.015686
v -47.463089 -10.522726 29.003822
v -47.463089 -6.241689 29.003822
v -47.463089 -1.960651 29.003824
v -47.463089 2.320386 29.003824
v -47.913086 -10.522726 29.003822
v -47.913086 -6.241689 29.003822
v -47.913086 -1.960651 29.003824
v -47.913086 2.320386 29.003824
v -47.913086 -10.522726 33.015686
v -47.913086 -6.241689 33.015686
v -47.913086 -1.960652 33.015686
v -47.913086 2.320385 33.015686
v -47.463089 -10.162727 36.667549
v -47.463089 -6.601690 36.667549
v -47.463089 -10.162726 33.258541
v -47.463089 -6.601689 33.258545
v -47.463089 -10.162726 32.772827
v -47.463089 -6.601689 32.772827
v -47.463089 -10.162725 29.363823
v -47.463089 -6.601689 29.363823
v -47.463089 -6.241690 36.667549
v -47.463089 -2.320652 36.667549
v -47.463089 -6.241689 33.258545
v -47.463089 -2.320652 33.258545
v -47.463089 -6.241689 32.772827
v -47.463089 -2.320652 32.772827
v -47.463089 -6.241689 29.363823
v -47.463089 -2.320651 29.363823
v -47.463089 -1.960652 36.667549
v -47.463089 1.960385 36.667549
v -47.463089 -1.960652 33.258545
v -47.463089 1.960385 33.258545
v -47.463089 -1.960652 32.772827
v -47.463089 1.960385 32.772831
v -47.463089 -1.960651 29.363823
v -47.463089 1.960386 29.363825
v -47.815887 -10.162727 36.667549
v -47.815887 -6.601690 36.667549
v -47.815887 -10.162726 33.258541
v -47.815887 -6.601689 33.258545
v -47.815887 -10.162726 32.772827
v -47.815887 -6.601689 32.772827
v -47.815887 -10.162725 29.363823
v -47.815887 -6.601689 29.363823
v -47.815887 -6.241690 36.667549
v -47.815887 -2.320652 36.667549
v -47.815887 -6.241689 33.258545
v -47.815887 -2.320652 33.258545
v -47.815887 -6.241689 32.772827
v -47.815887 -2.320652 32.772827
v -47.815887 -6.241689 29.363823
v -47.815887 -2.320651 29.363823
v -47.815887 -1.960652 36.667549
v -47.815887 1.960385 36.667549
v -47.815887 -1.960652 33.258545
v -47.815887 1.960385 33.258545
v -47.815887 -1.960652 32.772827
v -47.815887 1.960385 32.772831
v -47.815887 -1.960651 29.363823
v -47.815887 1.960386 29.363825
vn -0.0000 -0.0000 1.0000
vn 1.0000 -0.0000 -0.0000
vn -0.0000 -0.0000 -1.0000
vn -1.0000 -0.0000 -0.0000
vn -0.0000 1.0000 -0.0000
vn -0.0000 -1.0000 -0.0000
vt 1.000000 0.000000
vt 1.000000 0.333333
vt 0.000000 0.333333
vt 0.000000 0.000000
vt 1.000000 0.666667
vt 0.000000 0.666667
vt 1.000000 1.000000
vt 0.000000 1.000000
vt 0.455133 0.028031
vt 0.455133 0.305303
vt 0.044867 0.305303
vt 0.044867 0.028031
vt 0.955133 0.028031
vt 0.955133 0.305303
vt 0.544867 0.305303
vt 0.544867 0.028031
vt 0.455133 0.361364
vt 0.455133 0.638636
vt 0.044867 0.638636
vt 0.044867 0.361364
vt 0.955133 0.361364
vt 0.955133 0.638636
vt 0.544867 0.638636
vt 0.544867 0.361364
vt 0.455133 0.694697
vt 0.455133 0.971969
vt 0.044867 0.971969
vt 0.044867 0.694697
vt 0.955133 0.694697
vt 0.955133 0.971969
vt 0.544867 0.971969
vt 0.544867 0.694697
vt 0.500000 0.000000
vt 0.500000 0.333333
vt 0.500000 0.666667
vt 0.500000 1.000000
vt 1.000000 0.500000
vt 0.000000 0.500000
s 1
usemtl Glass
f 51/9/2 52/10/2 50/11/2 49/12/2
f 55/13/2 56/14/2 54/15/2 53/16/2
f 59/17/2 60/18/2 58/19/2 57/20/2
f 63/21/2 64/22/2 62/23/2 61/24/2
f 67/25/2 68/26/2 66/27/2 65/28/2
f 71/29/2 72/30/2 70/31/2 69/32/2
usemtl Mat.2
f 5/1/1 6/2/1 2/3/1 1/4/1
f 6/2/1 7/5/1 3/6/1 2/3/1
f 7/5/1 8/7/1 4/8/1 3/6/1
f 17/1/3 18/2/3 14/3/3 13/4/3
f 18/2/3 19/5/3 15/6/3 14/3/3
f 19/5/3 20/7/3 16/8/3 15/6/3
f 21/33/4 22/34/4 18/3/4 17/4/4
f 1/1/4 2/2/4 22/34/4 21/33/4
f 22/34/4 23/35/4 19/6/4 18/3/4
f 2/2/4 3/5/4 23/35/4 22/34/4
f 23/35/4 24/36/4 20/8/4 19/6/4
f 3/5/4 4/7/4 24/36/4 23/35/4
f 8/1/5 12/37/5 24/38/5 4/4/5
f 12/37/5 16/7/5 20/8/5 24/38/5
f 13/1/6 9/37/6 21/38/6 17/4/6
f 9/37/6 5/7/6 1/8/6 21/38/6
f 26/11/2 6/3/2 5/4/2 25/12/2
f 28/10/2 10/34/2 6/3/2 26/11/2
f 27/9/2 9/33/2 10/34/2 28/10/2
f 25/12/2 5/4/2 9/33/2 27/9/2
f 30/15/2 10/34/2 9/33/2 29/16/2
f 32/14/2 14/2/2 10/34/2 30/15/2
f 31/13/2 13/1/2 14/2/2 32/14/2
f 29/16/2 9/33/2 13/1/2 31/13/2
f 34/19/2 7/6/2 6/3/2 33/20/2
f 36/18/2 11/35/2 7/6/2 34/19/2
f 35/17/2 10/34/2 11/35/2 36/18/2
f 33/20/5 6/3/5 10/34/5 35/17/5
f 38/23/2 11/35/2 10/34/2 37/24/2
f 40/22/2 15/5/2 11/35/2 38/23/2
f 39/21/2 14/2/2 15/5/2 40/22/2
f 37/24/5 10/34/5 14/2/5 39/21/5
f 42/27/2 8/8/2 7/6/2 41/28/2
f 44/26/2 12/36/2 8/8/2 42/27/2
f 43/25/2 11/35/2 12/36/2 44/26/2
f 41/28/5 7/6/5 11/35/5 43/25/5
f 46/31/2 12/36/2 11/35/2 45/32/2
f 48/30/2 16/7/2 12/36/2 46/31/2
f 47/29/2 15/5/2 16/7/2 48/30/2
f 45/32/5 11/35/5 15/5/5 47/29/5
f 50/11/3 26/11/3 25/12/3 49/12/3
f 52/10/6 28/10/6 26/11/6 50/11/6
f 51/9/1 27/9/1 28/10/1 52/10/1
f 49/12/5 25/12/5 27/9/5 51/9/5
f 54/15/3 30/15/3 29/16/3 53/16/3
f 56/14/6 32/14/6 30/15/6 54/15/6
f 55/13/1 31/13/1 32/14/1 56/14/1
f 53/16/5 29/16/5 31/13/5 55/13/5
f 58/19/3 34/19/3 33/20/3 57/20/3
f 60/18/6 36/18/6 34/19/6 58/19/6
f 59/17/1 35/17/1 36/18/1 60/18/1
f 57/20/5 33/20/5 35/17/5 59/17/5
f 62/23/3 38/23/3 37/24/3 61/24/3
f 64/22/6 40/22/6 38/23/6 62/23/6
f 63/21/1 39/21/1 40/22/1 64/22/1
f 61/24/5 37/24/5 39/21/5 63/21/5
f 66/27/3 42/27/3 41/28/3 65/28/3
f 68/26/6 44/26/6 42/27/6 66/27/6
f 67/25/1 43/25/1 44/26/1 68/26/1
f 65/28/5 41/28/5 43/25/5 67/25/5
f 70/31/3 46/31/3 45/32/3 69/32/3
f 72/30/6 48/30/6 46/31/6 70/31/6
f 71/29/1 47/29/1 48/30/1 72/30/1
f 69/32/5 45/32/5 47/29/5 71/29/5
